ISO-10303-21;
HEADER;
/* Generated by software containing ST-Developer
 * from STEP Tools, Inc. (www.steptools.com) 
 */

FILE_DESCRIPTION(
/* description */ (''),
/* implementation_level */ '2;1');

FILE_NAME(
/* name */ 'card_floor.step',
/* time_stamp */ '2026-08-19T17:42:50-06:00',
/* author */ (''),
/* organization */ (''),
/* preprocessor_version */ 'ST-DEVELOPER v20.1',
/* originating_system */ 'Autodesk Translation Framework v15.8.0.0',
/* authorisation */ '');

FILE_SCHEMA (('AUTOMOTIVE_DESIGN { 1 0 10303 214 3 1 1 }'));
ENDSEC;

DATA;
#10=MECHANICAL_DESIGN_GEOMETRIC_PRESENTATION_REPRESENTATION('',(#13),#939);
#11=SHAPE_REPRESENTATION_RELATIONSHIP('SRR','None',#946,#12);
#12=ADVANCED_BREP_SHAPE_REPRESENTATION('',(#14),#938);
#13=STYLED_ITEM('',(#955),#14);
#14=MANIFOLD_SOLID_BREP('Body1',#559);
#15=FACE_BOUND('',#90,.T.);
#16=FACE_BOUND('',#92,.T.);
#17=FACE_BOUND('',#93,.T.);
#18=FACE_BOUND('',#94,.T.);
#19=FACE_BOUND('',#95,.T.);
#20=FACE_BOUND('',#99,.T.);
#21=FACE_BOUND('',#104,.T.);
#22=FACE_BOUND('',#109,.T.);
#23=CIRCLE('',#580,3.175);
#24=CIRCLE('',#581,3.175);
#25=CIRCLE('',#583,5.575);
#26=CIRCLE('',#584,5.575);
#27=CIRCLE('',#587,5.575);
#28=CIRCLE('',#588,5.575);
#29=CIRCLE('',#589,5.575);
#30=CIRCLE('',#591,3.175);
#31=CIRCLE('',#592,3.175);
#32=CIRCLE('',#594,5.575);
#33=CIRCLE('',#598,3.175);
#34=CIRCLE('',#599,3.175);
#35=CIRCLE('',#601,5.575);
#36=CIRCLE('',#605,3.175);
#37=CIRCLE('',#606,3.175);
#38=CIRCLE('',#608,5.575);
#39=CYLINDRICAL_SURFACE('',#579,3.175);
#40=CYLINDRICAL_SURFACE('',#582,5.575);
#41=CYLINDRICAL_SURFACE('',#590,3.175);
#42=CYLINDRICAL_SURFACE('',#593,5.575);
#43=CYLINDRICAL_SURFACE('',#597,3.175);
#44=CYLINDRICAL_SURFACE('',#600,5.575);
#45=CYLINDRICAL_SURFACE('',#604,3.175);
#46=CYLINDRICAL_SURFACE('',#607,5.575);
#47=FACE_OUTER_BOUND('',#81,.T.);
#48=FACE_OUTER_BOUND('',#82,.T.);
#49=FACE_OUTER_BOUND('',#83,.T.);
#50=FACE_OUTER_BOUND('',#84,.T.);
#51=FACE_OUTER_BOUND('',#85,.T.);
#52=FACE_OUTER_BOUND('',#86,.T.);
#53=FACE_OUTER_BOUND('',#87,.T.);
#54=FACE_OUTER_BOUND('',#88,.T.);
#55=FACE_OUTER_BOUND('',#89,.T.);
#56=FACE_OUTER_BOUND('',#91,.T.);
#57=FACE_OUTER_BOUND('',#96,.T.);
#58=FACE_OUTER_BOUND('',#97,.T.);
#59=FACE_OUTER_BOUND('',#98,.T.);
#60=FACE_OUTER_BOUND('',#100,.T.);
#61=FACE_OUTER_BOUND('',#101,.T.);
#62=FACE_OUTER_BOUND('',#102,.T.);
#63=FACE_OUTER_BOUND('',#103,.T.);
#64=FACE_OUTER_BOUND('',#105,.T.);
#65=FACE_OUTER_BOUND('',#106,.T.);
#66=FACE_OUTER_BOUND('',#107,.T.);
#67=FACE_OUTER_BOUND('',#108,.T.);
#68=FACE_OUTER_BOUND('',#110,.T.);
#69=FACE_OUTER_BOUND('',#111,.T.);
#70=FACE_OUTER_BOUND('',#112,.T.);
#71=FACE_OUTER_BOUND('',#113,.T.);
#72=FACE_OUTER_BOUND('',#114,.T.);
#73=FACE_OUTER_BOUND('',#115,.T.);
#74=FACE_OUTER_BOUND('',#116,.T.);
#75=FACE_OUTER_BOUND('',#117,.T.);
#76=FACE_OUTER_BOUND('',#118,.T.);
#77=FACE_OUTER_BOUND('',#119,.T.);
#78=FACE_OUTER_BOUND('',#120,.T.);
#79=FACE_OUTER_BOUND('',#121,.T.);
#80=FACE_OUTER_BOUND('',#122,.T.);
#81=EDGE_LOOP('',(#355,#356,#357,#358));
#82=EDGE_LOOP('',(#359,#360,#361,#362));
#83=EDGE_LOOP('',(#363,#364,#365,#366));
#84=EDGE_LOOP('',(#367,#368,#369,#370));
#85=EDGE_LOOP('',(#371,#372,#373,#374));
#86=EDGE_LOOP('',(#375,#376,#377,#378,#379,#380,#381,#382,#383,#384,#385,
#386,#387,#388,#389,#390));
#87=EDGE_LOOP('',(#391,#392,#393,#394));
#88=EDGE_LOOP('',(#395,#396,#397,#398));
#89=EDGE_LOOP('',(#399));
#90=EDGE_LOOP('',(#400));
#91=EDGE_LOOP('',(#401,#402,#403,#404,#405,#406,#407,#408,#409,#410,#411,
#412,#413,#414,#415,#416));
#92=EDGE_LOOP('',(#417));
#93=EDGE_LOOP('',(#418));
#94=EDGE_LOOP('',(#419));
#95=EDGE_LOOP('',(#420));
#96=EDGE_LOOP('',(#421,#422,#423,#424));
#97=EDGE_LOOP('',(#425,#426,#427,#428));
#98=EDGE_LOOP('',(#429));
#99=EDGE_LOOP('',(#430));
#100=EDGE_LOOP('',(#431));
#101=EDGE_LOOP('',(#432,#433,#434,#435));
#102=EDGE_LOOP('',(#436,#437,#438,#439));
#103=EDGE_LOOP('',(#440));
#104=EDGE_LOOP('',(#441));
#105=EDGE_LOOP('',(#442));
#106=EDGE_LOOP('',(#443,#444,#445,#446));
#107=EDGE_LOOP('',(#447,#448,#449,#450));
#108=EDGE_LOOP('',(#451));
#109=EDGE_LOOP('',(#452));
#110=EDGE_LOOP('',(#453));
#111=EDGE_LOOP('',(#454,#455,#456,#457));
#112=EDGE_LOOP('',(#458,#459,#460,#461));
#113=EDGE_LOOP('',(#462,#463,#464,#465));
#114=EDGE_LOOP('',(#466,#467,#468,#469));
#115=EDGE_LOOP('',(#470,#471,#472,#473));
#116=EDGE_LOOP('',(#474,#475,#476,#477));
#117=EDGE_LOOP('',(#478,#479,#480,#481));
#118=EDGE_LOOP('',(#482,#483,#484,#485));
#119=EDGE_LOOP('',(#486,#487,#488,#489));
#120=EDGE_LOOP('',(#490,#491,#492,#493));
#121=EDGE_LOOP('',(#494,#495,#496,#497));
#122=EDGE_LOOP('',(#498));
#123=LINE('',#785,#179);
#124=LINE('',#787,#180);
#125=LINE('',#789,#181);
#126=LINE('',#790,#182);
#127=LINE('',#793,#183);
#128=LINE('',#795,#184);
#129=LINE('',#796,#185);
#130=LINE('',#799,#186);
#131=LINE('',#801,#187);
#132=LINE('',#802,#188);
#133=LINE('',#805,#189);
#134=LINE('',#807,#190);
#135=LINE('',#808,#191);
#136=LINE('',#811,#192);
#137=LINE('',#813,#193);
#138=LINE('',#814,#194);
#139=LINE('',#817,#195);
#140=LINE('',#819,#196);
#141=LINE('',#821,#197);
#142=LINE('',#823,#198);
#143=LINE('',#825,#199);
#144=LINE('',#827,#200);
#145=LINE('',#829,#201);
#146=LINE('',#831,#202);
#147=LINE('',#833,#203);
#148=LINE('',#835,#204);
#149=LINE('',#836,#205);
#150=LINE('',#841,#206);
#151=LINE('',#847,#207);
#152=LINE('',#852,#208);
#153=LINE('',#854,#209);
#154=LINE('',#856,#210);
#155=LINE('',#858,#211);
#156=LINE('',#860,#212);
#157=LINE('',#862,#213);
#158=LINE('',#864,#214);
#159=LINE('',#866,#215);
#160=LINE('',#868,#216);
#161=LINE('',#870,#217);
#162=LINE('',#871,#218);
#163=LINE('',#882,#219);
#164=LINE('',#887,#220);
#165=LINE('',#894,#221);
#166=LINE('',#899,#222);
#167=LINE('',#906,#223);
#168=LINE('',#911,#224);
#169=LINE('',#915,#225);
#170=LINE('',#916,#226);
#171=LINE('',#918,#227);
#172=LINE('',#920,#228);
#173=LINE('',#922,#229);
#174=LINE('',#924,#230);
#175=LINE('',#926,#231);
#176=LINE('',#928,#232);
#177=LINE('',#930,#233);
#178=LINE('',#932,#234);
#179=VECTOR('',#627,10.);
#180=VECTOR('',#628,10.);
#181=VECTOR('',#629,10.);
#182=VECTOR('',#630,10.);
#183=VECTOR('',#633,10.);
#184=VECTOR('',#634,10.);
#185=VECTOR('',#635,10.);
#186=VECTOR('',#638,10.);
#187=VECTOR('',#639,10.);
#188=VECTOR('',#640,10.);
#189=VECTOR('',#643,10.);
#190=VECTOR('',#644,10.);
#191=VECTOR('',#645,10.);
#192=VECTOR('',#648,10.);
#193=VECTOR('',#649,10.);
#194=VECTOR('',#650,10.);
#195=VECTOR('',#653,10.);
#196=VECTOR('',#654,10.);
#197=VECTOR('',#655,10.);
#198=VECTOR('',#656,10.);
#199=VECTOR('',#657,10.);
#200=VECTOR('',#658,10.);
#201=VECTOR('',#659,10.);
#202=VECTOR('',#660,10.);
#203=VECTOR('',#661,10.);
#204=VECTOR('',#662,10.);
#205=VECTOR('',#663,10.);
#206=VECTOR('',#668,3.175);
#207=VECTOR('',#675,5.575);
#208=VECTOR('',#682,10.);
#209=VECTOR('',#683,10.);
#210=VECTOR('',#684,10.);
#211=VECTOR('',#685,10.);
#212=VECTOR('',#686,10.);
#213=VECTOR('',#687,10.);
#214=VECTOR('',#688,10.);
#215=VECTOR('',#689,10.);
#216=VECTOR('',#690,10.);
#217=VECTOR('',#691,10.);
#218=VECTOR('',#692,10.);
#219=VECTOR('',#703,3.175);
#220=VECTOR('',#710,5.575);
#221=VECTOR('',#719,3.175);
#222=VECTOR('',#726,5.575);
#223=VECTOR('',#735,3.175);
#224=VECTOR('',#742,5.575);
#225=VECTOR('',#749,10.);
#226=VECTOR('',#750,10.);
#227=VECTOR('',#753,10.);
#228=VECTOR('',#756,10.);
#229=VECTOR('',#759,10.);
#230=VECTOR('',#762,10.);
#231=VECTOR('',#765,10.);
#232=VECTOR('',#768,10.);
#233=VECTOR('',#771,10.);
#234=VECTOR('',#774,10.);
#235=VERTEX_POINT('',#783);
#236=VERTEX_POINT('',#784);
#237=VERTEX_POINT('',#786);
#238=VERTEX_POINT('',#788);
#239=VERTEX_POINT('',#792);
#240=VERTEX_POINT('',#794);
#241=VERTEX_POINT('',#798);
#242=VERTEX_POINT('',#800);
#243=VERTEX_POINT('',#804);
#244=VERTEX_POINT('',#806);
#245=VERTEX_POINT('',#810);
#246=VERTEX_POINT('',#812);
#247=VERTEX_POINT('',#816);
#248=VERTEX_POINT('',#818);
#249=VERTEX_POINT('',#820);
#250=VERTEX_POINT('',#822);
#251=VERTEX_POINT('',#824);
#252=VERTEX_POINT('',#826);
#253=VERTEX_POINT('',#828);
#254=VERTEX_POINT('',#830);
#255=VERTEX_POINT('',#832);
#256=VERTEX_POINT('',#834);
#257=VERTEX_POINT('',#838);
#258=VERTEX_POINT('',#840);
#259=VERTEX_POINT('',#844);
#260=VERTEX_POINT('',#846);
#261=VERTEX_POINT('',#851);
#262=VERTEX_POINT('',#853);
#263=VERTEX_POINT('',#855);
#264=VERTEX_POINT('',#857);
#265=VERTEX_POINT('',#859);
#266=VERTEX_POINT('',#861);
#267=VERTEX_POINT('',#863);
#268=VERTEX_POINT('',#865);
#269=VERTEX_POINT('',#867);
#270=VERTEX_POINT('',#869);
#271=VERTEX_POINT('',#872);
#272=VERTEX_POINT('',#874);
#273=VERTEX_POINT('',#876);
#274=VERTEX_POINT('',#879);
#275=VERTEX_POINT('',#881);
#276=VERTEX_POINT('',#885);
#277=VERTEX_POINT('',#891);
#278=VERTEX_POINT('',#893);
#279=VERTEX_POINT('',#897);
#280=VERTEX_POINT('',#903);
#281=VERTEX_POINT('',#905);
#282=VERTEX_POINT('',#909);
#283=EDGE_CURVE('',#235,#236,#123,.T.);
#284=EDGE_CURVE('',#235,#237,#124,.T.);
#285=EDGE_CURVE('',#238,#237,#125,.T.);
#286=EDGE_CURVE('',#236,#238,#126,.T.);
#287=EDGE_CURVE('',#239,#235,#127,.T.);
#288=EDGE_CURVE('',#239,#240,#128,.T.);
#289=EDGE_CURVE('',#237,#240,#129,.T.);
#290=EDGE_CURVE('',#241,#239,#130,.T.);
#291=EDGE_CURVE('',#242,#241,#131,.T.);
#292=EDGE_CURVE('',#240,#242,#132,.T.);
#293=EDGE_CURVE('',#238,#243,#133,.T.);
#294=EDGE_CURVE('',#243,#244,#134,.T.);
#295=EDGE_CURVE('',#236,#244,#135,.T.);
#296=EDGE_CURVE('',#245,#241,#136,.T.);
#297=EDGE_CURVE('',#246,#245,#137,.T.);
#298=EDGE_CURVE('',#246,#242,#138,.T.);
#299=EDGE_CURVE('',#244,#247,#139,.T.);
#300=EDGE_CURVE('',#247,#248,#140,.T.);
#301=EDGE_CURVE('',#248,#249,#141,.T.);
#302=EDGE_CURVE('',#249,#250,#142,.T.);
#303=EDGE_CURVE('',#250,#251,#143,.T.);
#304=EDGE_CURVE('',#251,#252,#144,.T.);
#305=EDGE_CURVE('',#252,#253,#145,.T.);
#306=EDGE_CURVE('',#253,#254,#146,.T.);
#307=EDGE_CURVE('',#254,#255,#147,.T.);
#308=EDGE_CURVE('',#255,#256,#148,.T.);
#309=EDGE_CURVE('',#256,#245,#149,.T.);
#310=EDGE_CURVE('',#257,#257,#23,.T.);
#311=EDGE_CURVE('',#257,#258,#150,.T.);
#312=EDGE_CURVE('',#258,#258,#24,.T.);
#313=EDGE_CURVE('',#259,#259,#25,.T.);
#314=EDGE_CURVE('',#259,#260,#151,.T.);
#315=EDGE_CURVE('',#260,#260,#26,.T.);
#316=EDGE_CURVE('',#261,#246,#152,.T.);
#317=EDGE_CURVE('',#261,#262,#153,.T.);
#318=EDGE_CURVE('',#263,#262,#154,.T.);
#319=EDGE_CURVE('',#263,#264,#155,.T.);
#320=EDGE_CURVE('',#265,#264,#156,.T.);
#321=EDGE_CURVE('',#266,#265,#157,.T.);
#322=EDGE_CURVE('',#266,#267,#158,.T.);
#323=EDGE_CURVE('',#267,#268,#159,.T.);
#324=EDGE_CURVE('',#269,#268,#160,.T.);
#325=EDGE_CURVE('',#270,#269,#161,.T.);
#326=EDGE_CURVE('',#243,#270,#162,.T.);
#327=EDGE_CURVE('',#271,#271,#27,.T.);
#328=EDGE_CURVE('',#272,#272,#28,.T.);
#329=EDGE_CURVE('',#273,#273,#29,.T.);
#330=EDGE_CURVE('',#274,#274,#30,.T.);
#331=EDGE_CURVE('',#274,#275,#163,.T.);
#332=EDGE_CURVE('',#275,#275,#31,.T.);
#333=EDGE_CURVE('',#276,#276,#32,.T.);
#334=EDGE_CURVE('',#276,#271,#164,.T.);
#335=EDGE_CURVE('',#277,#277,#33,.T.);
#336=EDGE_CURVE('',#277,#278,#165,.T.);
#337=EDGE_CURVE('',#278,#278,#34,.T.);
#338=EDGE_CURVE('',#279,#279,#35,.T.);
#339=EDGE_CURVE('',#279,#273,#166,.T.);
#340=EDGE_CURVE('',#280,#280,#36,.T.);
#341=EDGE_CURVE('',#280,#281,#167,.T.);
#342=EDGE_CURVE('',#281,#281,#37,.T.);
#343=EDGE_CURVE('',#282,#282,#38,.T.);
#344=EDGE_CURVE('',#282,#272,#168,.T.);
#345=EDGE_CURVE('',#261,#256,#169,.T.);
#346=EDGE_CURVE('',#262,#255,#170,.T.);
#347=EDGE_CURVE('',#263,#254,#171,.T.);
#348=EDGE_CURVE('',#264,#253,#172,.T.);
#349=EDGE_CURVE('',#265,#252,#173,.T.);
#350=EDGE_CURVE('',#266,#251,#174,.T.);
#351=EDGE_CURVE('',#267,#250,#175,.T.);
#352=EDGE_CURVE('',#268,#249,#176,.T.);
#353=EDGE_CURVE('',#269,#248,#177,.T.);
#354=EDGE_CURVE('',#270,#247,#178,.T.);
#355=ORIENTED_EDGE('',*,*,#283,.F.);
#356=ORIENTED_EDGE('',*,*,#284,.T.);
#357=ORIENTED_EDGE('',*,*,#285,.F.);
#358=ORIENTED_EDGE('',*,*,#286,.F.);
#359=ORIENTED_EDGE('',*,*,#287,.F.);
#360=ORIENTED_EDGE('',*,*,#288,.T.);
#361=ORIENTED_EDGE('',*,*,#289,.F.);
#362=ORIENTED_EDGE('',*,*,#284,.F.);
#363=ORIENTED_EDGE('',*,*,#290,.F.);
#364=ORIENTED_EDGE('',*,*,#291,.F.);
#365=ORIENTED_EDGE('',*,*,#292,.F.);
#366=ORIENTED_EDGE('',*,*,#288,.F.);
#367=ORIENTED_EDGE('',*,*,#286,.T.);
#368=ORIENTED_EDGE('',*,*,#293,.T.);
#369=ORIENTED_EDGE('',*,*,#294,.T.);
#370=ORIENTED_EDGE('',*,*,#295,.F.);
#371=ORIENTED_EDGE('',*,*,#291,.T.);
#372=ORIENTED_EDGE('',*,*,#296,.F.);
#373=ORIENTED_EDGE('',*,*,#297,.F.);
#374=ORIENTED_EDGE('',*,*,#298,.T.);
#375=ORIENTED_EDGE('',*,*,#290,.T.);
#376=ORIENTED_EDGE('',*,*,#287,.T.);
#377=ORIENTED_EDGE('',*,*,#283,.T.);
#378=ORIENTED_EDGE('',*,*,#295,.T.);
#379=ORIENTED_EDGE('',*,*,#299,.T.);
#380=ORIENTED_EDGE('',*,*,#300,.T.);
#381=ORIENTED_EDGE('',*,*,#301,.T.);
#382=ORIENTED_EDGE('',*,*,#302,.T.);
#383=ORIENTED_EDGE('',*,*,#303,.T.);
#384=ORIENTED_EDGE('',*,*,#304,.T.);
#385=ORIENTED_EDGE('',*,*,#305,.T.);
#386=ORIENTED_EDGE('',*,*,#306,.T.);
#387=ORIENTED_EDGE('',*,*,#307,.T.);
#388=ORIENTED_EDGE('',*,*,#308,.T.);
#389=ORIENTED_EDGE('',*,*,#309,.T.);
#390=ORIENTED_EDGE('',*,*,#296,.T.);
#391=ORIENTED_EDGE('',*,*,#310,.F.);
#392=ORIENTED_EDGE('',*,*,#311,.T.);
#393=ORIENTED_EDGE('',*,*,#312,.F.);
#394=ORIENTED_EDGE('',*,*,#311,.F.);
#395=ORIENTED_EDGE('',*,*,#313,.F.);
#396=ORIENTED_EDGE('',*,*,#314,.T.);
#397=ORIENTED_EDGE('',*,*,#315,.F.);
#398=ORIENTED_EDGE('',*,*,#314,.F.);
#399=ORIENTED_EDGE('',*,*,#313,.T.);
#400=ORIENTED_EDGE('',*,*,#310,.T.);
#401=ORIENTED_EDGE('',*,*,#292,.T.);
#402=ORIENTED_EDGE('',*,*,#298,.F.);
#403=ORIENTED_EDGE('',*,*,#316,.F.);
#404=ORIENTED_EDGE('',*,*,#317,.T.);
#405=ORIENTED_EDGE('',*,*,#318,.F.);
#406=ORIENTED_EDGE('',*,*,#319,.T.);
#407=ORIENTED_EDGE('',*,*,#320,.F.);
#408=ORIENTED_EDGE('',*,*,#321,.F.);
#409=ORIENTED_EDGE('',*,*,#322,.T.);
#410=ORIENTED_EDGE('',*,*,#323,.T.);
#411=ORIENTED_EDGE('',*,*,#324,.F.);
#412=ORIENTED_EDGE('',*,*,#325,.F.);
#413=ORIENTED_EDGE('',*,*,#326,.F.);
#414=ORIENTED_EDGE('',*,*,#293,.F.);
#415=ORIENTED_EDGE('',*,*,#285,.T.);
#416=ORIENTED_EDGE('',*,*,#289,.T.);
#417=ORIENTED_EDGE('',*,*,#327,.T.);
#418=ORIENTED_EDGE('',*,*,#328,.T.);
#419=ORIENTED_EDGE('',*,*,#329,.T.);
#420=ORIENTED_EDGE('',*,*,#315,.T.);
#421=ORIENTED_EDGE('',*,*,#330,.F.);
#422=ORIENTED_EDGE('',*,*,#331,.T.);
#423=ORIENTED_EDGE('',*,*,#332,.F.);
#424=ORIENTED_EDGE('',*,*,#331,.F.);
#425=ORIENTED_EDGE('',*,*,#333,.F.);
#426=ORIENTED_EDGE('',*,*,#334,.T.);
#427=ORIENTED_EDGE('',*,*,#327,.F.);
#428=ORIENTED_EDGE('',*,*,#334,.F.);
#429=ORIENTED_EDGE('',*,*,#333,.T.);
#430=ORIENTED_EDGE('',*,*,#330,.T.);
#431=ORIENTED_EDGE('',*,*,#312,.T.);
#432=ORIENTED_EDGE('',*,*,#335,.F.);
#433=ORIENTED_EDGE('',*,*,#336,.T.);
#434=ORIENTED_EDGE('',*,*,#337,.F.);
#435=ORIENTED_EDGE('',*,*,#336,.F.);
#436=ORIENTED_EDGE('',*,*,#338,.F.);
#437=ORIENTED_EDGE('',*,*,#339,.T.);
#438=ORIENTED_EDGE('',*,*,#329,.F.);
#439=ORIENTED_EDGE('',*,*,#339,.F.);
#440=ORIENTED_EDGE('',*,*,#338,.T.);
#441=ORIENTED_EDGE('',*,*,#335,.T.);
#442=ORIENTED_EDGE('',*,*,#332,.T.);
#443=ORIENTED_EDGE('',*,*,#340,.F.);
#444=ORIENTED_EDGE('',*,*,#341,.T.);
#445=ORIENTED_EDGE('',*,*,#342,.F.);
#446=ORIENTED_EDGE('',*,*,#341,.F.);
#447=ORIENTED_EDGE('',*,*,#343,.F.);
#448=ORIENTED_EDGE('',*,*,#344,.T.);
#449=ORIENTED_EDGE('',*,*,#328,.F.);
#450=ORIENTED_EDGE('',*,*,#344,.F.);
#451=ORIENTED_EDGE('',*,*,#343,.T.);
#452=ORIENTED_EDGE('',*,*,#340,.T.);
#453=ORIENTED_EDGE('',*,*,#337,.T.);
#454=ORIENTED_EDGE('',*,*,#317,.F.);
#455=ORIENTED_EDGE('',*,*,#345,.T.);
#456=ORIENTED_EDGE('',*,*,#308,.F.);
#457=ORIENTED_EDGE('',*,*,#346,.F.);
#458=ORIENTED_EDGE('',*,*,#318,.T.);
#459=ORIENTED_EDGE('',*,*,#346,.T.);
#460=ORIENTED_EDGE('',*,*,#307,.F.);
#461=ORIENTED_EDGE('',*,*,#347,.F.);
#462=ORIENTED_EDGE('',*,*,#319,.F.);
#463=ORIENTED_EDGE('',*,*,#347,.T.);
#464=ORIENTED_EDGE('',*,*,#306,.F.);
#465=ORIENTED_EDGE('',*,*,#348,.F.);
#466=ORIENTED_EDGE('',*,*,#320,.T.);
#467=ORIENTED_EDGE('',*,*,#348,.T.);
#468=ORIENTED_EDGE('',*,*,#305,.F.);
#469=ORIENTED_EDGE('',*,*,#349,.F.);
#470=ORIENTED_EDGE('',*,*,#321,.T.);
#471=ORIENTED_EDGE('',*,*,#349,.T.);
#472=ORIENTED_EDGE('',*,*,#304,.F.);
#473=ORIENTED_EDGE('',*,*,#350,.F.);
#474=ORIENTED_EDGE('',*,*,#322,.F.);
#475=ORIENTED_EDGE('',*,*,#350,.T.);
#476=ORIENTED_EDGE('',*,*,#303,.F.);
#477=ORIENTED_EDGE('',*,*,#351,.F.);
#478=ORIENTED_EDGE('',*,*,#323,.F.);
#479=ORIENTED_EDGE('',*,*,#351,.T.);
#480=ORIENTED_EDGE('',*,*,#302,.F.);
#481=ORIENTED_EDGE('',*,*,#352,.F.);
#482=ORIENTED_EDGE('',*,*,#324,.T.);
#483=ORIENTED_EDGE('',*,*,#352,.T.);
#484=ORIENTED_EDGE('',*,*,#301,.F.);
#485=ORIENTED_EDGE('',*,*,#353,.F.);
#486=ORIENTED_EDGE('',*,*,#325,.T.);
#487=ORIENTED_EDGE('',*,*,#353,.T.);
#488=ORIENTED_EDGE('',*,*,#300,.F.);
#489=ORIENTED_EDGE('',*,*,#354,.F.);
#490=ORIENTED_EDGE('',*,*,#326,.T.);
#491=ORIENTED_EDGE('',*,*,#354,.T.);
#492=ORIENTED_EDGE('',*,*,#299,.F.);
#493=ORIENTED_EDGE('',*,*,#294,.F.);
#494=ORIENTED_EDGE('',*,*,#316,.T.);
#495=ORIENTED_EDGE('',*,*,#297,.T.);
#496=ORIENTED_EDGE('',*,*,#309,.F.);
#497=ORIENTED_EDGE('',*,*,#345,.F.);
#498=ORIENTED_EDGE('',*,*,#342,.T.);
#499=PLANE('',#573);
#500=PLANE('',#574);
#501=PLANE('',#575);
#502=PLANE('',#576);
#503=PLANE('',#577);
#504=PLANE('',#578);
#505=PLANE('',#585);
#506=PLANE('',#586);
#507=PLANE('',#595);
#508=PLANE('',#596);
#509=PLANE('',#602);
#510=PLANE('',#603);
#511=PLANE('',#609);
#512=PLANE('',#610);
#513=PLANE('',#611);
#514=PLANE('',#612);
#515=PLANE('',#613);
#516=PLANE('',#614);
#517=PLANE('',#615);
#518=PLANE('',#616);
#519=PLANE('',#617);
#520=PLANE('',#618);
#521=PLANE('',#619);
#522=PLANE('',#620);
#523=PLANE('',#621);
#524=PLANE('',#622);
#525=ADVANCED_FACE('',(#47),#499,.F.);
#526=ADVANCED_FACE('',(#48),#500,.F.);
#527=ADVANCED_FACE('',(#49),#501,.F.);
#528=ADVANCED_FACE('',(#50),#502,.T.);
#529=ADVANCED_FACE('',(#51),#503,.T.);
#530=ADVANCED_FACE('',(#52),#504,.T.);
#531=ADVANCED_FACE('',(#53),#39,.F.);
#532=ADVANCED_FACE('',(#54),#40,.T.);
#533=ADVANCED_FACE('',(#55,#15),#505,.T.);
#534=ADVANCED_FACE('',(#56,#16,#17,#18,#19),#506,.F.);
#535=ADVANCED_FACE('',(#57),#41,.F.);
#536=ADVANCED_FACE('',(#58),#42,.T.);
#537=ADVANCED_FACE('',(#59,#20),#507,.T.);
#538=ADVANCED_FACE('',(#60),#508,.F.);
#539=ADVANCED_FACE('',(#61),#43,.F.);
#540=ADVANCED_FACE('',(#62),#44,.T.);
#541=ADVANCED_FACE('',(#63,#21),#509,.T.);
#542=ADVANCED_FACE('',(#64),#510,.F.);
#543=ADVANCED_FACE('',(#65),#45,.F.);
#544=ADVANCED_FACE('',(#66),#46,.T.);
#545=ADVANCED_FACE('',(#67,#22),#511,.T.);
#546=ADVANCED_FACE('',(#68),#512,.F.);
#547=ADVANCED_FACE('',(#69),#513,.T.);
#548=ADVANCED_FACE('',(#70),#514,.T.);
#549=ADVANCED_FACE('',(#71),#515,.T.);
#550=ADVANCED_FACE('',(#72),#516,.T.);
#551=ADVANCED_FACE('',(#73),#517,.T.);
#552=ADVANCED_FACE('',(#74),#518,.T.);
#553=ADVANCED_FACE('',(#75),#519,.T.);
#554=ADVANCED_FACE('',(#76),#520,.T.);
#555=ADVANCED_FACE('',(#77),#521,.T.);
#556=ADVANCED_FACE('',(#78),#522,.T.);
#557=ADVANCED_FACE('',(#79),#523,.T.);
#558=ADVANCED_FACE('',(#80),#524,.F.);
#559=CLOSED_SHELL('',(#525,#526,#527,#528,#529,#530,#531,#532,#533,#534,
#535,#536,#537,#538,#539,#540,#541,#542,#543,#544,#545,#546,#547,#548,#549,
#550,#551,#552,#553,#554,#555,#556,#557,#558));
#560=DERIVED_UNIT_ELEMENT(#562,1.);
#561=DERIVED_UNIT_ELEMENT(#941,-3.);
#562=(
MASS_UNIT()
NAMED_UNIT(*)
SI_UNIT(.KILO.,.GRAM.)
);
#563=DERIVED_UNIT((#560,#561));
#564=MEASURE_REPRESENTATION_ITEM('density measure',
POSITIVE_RATIO_MEASURE(7850.),#563);
#565=PROPERTY_DEFINITION_REPRESENTATION(#570,#567);
#566=PROPERTY_DEFINITION_REPRESENTATION(#571,#568);
#567=REPRESENTATION('material name',(#569),#938);
#568=REPRESENTATION('density',(#564),#938);
#569=DESCRIPTIVE_REPRESENTATION_ITEM('Steel','Steel');
#570=PROPERTY_DEFINITION('material property','material name',#948);
#571=PROPERTY_DEFINITION('material property','density of part',#948);
#572=AXIS2_PLACEMENT_3D('',#781,#623,#624);
#573=AXIS2_PLACEMENT_3D('',#782,#625,#626);
#574=AXIS2_PLACEMENT_3D('',#791,#631,#632);
#575=AXIS2_PLACEMENT_3D('',#797,#636,#637);
#576=AXIS2_PLACEMENT_3D('',#803,#641,#642);
#577=AXIS2_PLACEMENT_3D('',#809,#646,#647);
#578=AXIS2_PLACEMENT_3D('',#815,#651,#652);
#579=AXIS2_PLACEMENT_3D('',#837,#664,#665);
#580=AXIS2_PLACEMENT_3D('',#839,#666,#667);
#581=AXIS2_PLACEMENT_3D('',#842,#669,#670);
#582=AXIS2_PLACEMENT_3D('',#843,#671,#672);
#583=AXIS2_PLACEMENT_3D('',#845,#673,#674);
#584=AXIS2_PLACEMENT_3D('',#848,#676,#677);
#585=AXIS2_PLACEMENT_3D('',#849,#678,#679);
#586=AXIS2_PLACEMENT_3D('',#850,#680,#681);
#587=AXIS2_PLACEMENT_3D('',#873,#693,#694);
#588=AXIS2_PLACEMENT_3D('',#875,#695,#696);
#589=AXIS2_PLACEMENT_3D('',#877,#697,#698);
#590=AXIS2_PLACEMENT_3D('',#878,#699,#700);
#591=AXIS2_PLACEMENT_3D('',#880,#701,#702);
#592=AXIS2_PLACEMENT_3D('',#883,#704,#705);
#593=AXIS2_PLACEMENT_3D('',#884,#706,#707);
#594=AXIS2_PLACEMENT_3D('',#886,#708,#709);
#595=AXIS2_PLACEMENT_3D('',#888,#711,#712);
#596=AXIS2_PLACEMENT_3D('',#889,#713,#714);
#597=AXIS2_PLACEMENT_3D('',#890,#715,#716);
#598=AXIS2_PLACEMENT_3D('',#892,#717,#718);
#599=AXIS2_PLACEMENT_3D('',#895,#720,#721);
#600=AXIS2_PLACEMENT_3D('',#896,#722,#723);
#601=AXIS2_PLACEMENT_3D('',#898,#724,#725);
#602=AXIS2_PLACEMENT_3D('',#900,#727,#728);
#603=AXIS2_PLACEMENT_3D('',#901,#729,#730);
#604=AXIS2_PLACEMENT_3D('',#902,#731,#732);
#605=AXIS2_PLACEMENT_3D('',#904,#733,#734);
#606=AXIS2_PLACEMENT_3D('',#907,#736,#737);
#607=AXIS2_PLACEMENT_3D('',#908,#738,#739);
#608=AXIS2_PLACEMENT_3D('',#910,#740,#741);
#609=AXIS2_PLACEMENT_3D('',#912,#743,#744);
#610=AXIS2_PLACEMENT_3D('',#913,#745,#746);
#611=AXIS2_PLACEMENT_3D('',#914,#747,#748);
#612=AXIS2_PLACEMENT_3D('',#917,#751,#752);
#613=AXIS2_PLACEMENT_3D('',#919,#754,#755);
#614=AXIS2_PLACEMENT_3D('',#921,#757,#758);
#615=AXIS2_PLACEMENT_3D('',#923,#760,#761);
#616=AXIS2_PLACEMENT_3D('',#925,#763,#764);
#617=AXIS2_PLACEMENT_3D('',#927,#766,#767);
#618=AXIS2_PLACEMENT_3D('',#929,#769,#770);
#619=AXIS2_PLACEMENT_3D('',#931,#772,#773);
#620=AXIS2_PLACEMENT_3D('',#933,#775,#776);
#621=AXIS2_PLACEMENT_3D('',#934,#777,#778);
#622=AXIS2_PLACEMENT_3D('',#935,#779,#780);
#623=DIRECTION('axis',(0.,0.,1.));
#624=DIRECTION('refdir',(1.,0.,0.));
#625=DIRECTION('center_axis',(1.,0.,0.));
#626=DIRECTION('ref_axis',(0.,-1.,0.));
#627=DIRECTION('',(0.,-1.,0.));
#628=DIRECTION('',(0.,0.,-1.));
#629=DIRECTION('',(0.,1.,0.));
#630=DIRECTION('',(0.,0.,-1.));
#631=DIRECTION('center_axis',(0.,1.,0.));
#632=DIRECTION('ref_axis',(1.,0.,0.));
#633=DIRECTION('',(1.,0.,0.));
#634=DIRECTION('',(0.,0.,-1.));
#635=DIRECTION('',(-1.,0.,0.));
#636=DIRECTION('center_axis',(-1.,-1.26882631385732E-16,0.));
#637=DIRECTION('ref_axis',(-1.26882631385732E-16,1.,0.));
#638=DIRECTION('',(-1.26882631385732E-16,1.,0.));
#639=DIRECTION('',(0.,0.,1.));
#640=DIRECTION('',(1.26882631385732E-16,-1.,0.));
#641=DIRECTION('center_axis',(0.,-1.,0.));
#642=DIRECTION('ref_axis',(1.,0.,0.));
#643=DIRECTION('',(1.,0.,0.));
#644=DIRECTION('',(0.,0.,1.));
#645=DIRECTION('',(1.,0.,0.));
#646=DIRECTION('center_axis',(0.,-1.,0.));
#647=DIRECTION('ref_axis',(1.,0.,0.));
#648=DIRECTION('',(1.,0.,0.));
#649=DIRECTION('',(0.,0.,1.));
#650=DIRECTION('',(1.,0.,0.));
#651=DIRECTION('center_axis',(0.,0.,1.));
#652=DIRECTION('ref_axis',(1.,0.,0.));
#653=DIRECTION('',(0.,1.,0.));
#654=DIRECTION('',(1.,0.,0.));
#655=DIRECTION('',(0.,1.,0.));
#656=DIRECTION('',(-1.,0.,0.));
#657=DIRECTION('',(0.,1.,0.));
#658=DIRECTION('',(-1.,0.,0.));
#659=DIRECTION('',(0.,-1.,0.));
#660=DIRECTION('',(-0.999999999999844,5.58793537367713E-7,0.));
#661=DIRECTION('',(0.,-1.,0.));
#662=DIRECTION('',(1.,0.,0.));
#663=DIRECTION('',(0.,-1.,0.));
#664=DIRECTION('center_axis',(0.,0.,-1.));
#665=DIRECTION('ref_axis',(1.,0.,0.));
#666=DIRECTION('center_axis',(0.,0.,1.));
#667=DIRECTION('ref_axis',(1.,0.,0.));
#668=DIRECTION('',(0.,0.,1.));
#669=DIRECTION('center_axis',(0.,0.,-1.));
#670=DIRECTION('ref_axis',(1.,0.,0.));
#671=DIRECTION('center_axis',(0.,0.,-1.));
#672=DIRECTION('ref_axis',(1.,0.,0.));
#673=DIRECTION('center_axis',(0.,0.,-1.));
#674=DIRECTION('ref_axis',(1.,0.,0.));
#675=DIRECTION('',(0.,0.,1.));
#676=DIRECTION('center_axis',(0.,0.,1.));
#677=DIRECTION('ref_axis',(1.,0.,0.));
#678=DIRECTION('center_axis',(0.,0.,-1.));
#679=DIRECTION('ref_axis',(1.,0.,0.));
#680=DIRECTION('center_axis',(0.,0.,1.));
#681=DIRECTION('ref_axis',(1.,0.,0.));
#682=DIRECTION('',(0.,-1.,0.));
#683=DIRECTION('',(-1.,0.,0.));
#684=DIRECTION('',(0.,-1.,0.));
#685=DIRECTION('',(0.999999999999844,-5.58793537367713E-7,0.));
#686=DIRECTION('',(0.,-1.,0.));
#687=DIRECTION('',(-1.,0.,0.));
#688=DIRECTION('',(0.,-1.,0.));
#689=DIRECTION('',(1.,0.,0.));
#690=DIRECTION('',(0.,1.,0.));
#691=DIRECTION('',(1.,0.,0.));
#692=DIRECTION('',(0.,1.,0.));
#693=DIRECTION('center_axis',(0.,0.,1.));
#694=DIRECTION('ref_axis',(1.,0.,0.));
#695=DIRECTION('center_axis',(0.,0.,1.));
#696=DIRECTION('ref_axis',(1.,0.,0.));
#697=DIRECTION('center_axis',(0.,0.,1.));
#698=DIRECTION('ref_axis',(1.,0.,0.));
#699=DIRECTION('center_axis',(0.,0.,-1.));
#700=DIRECTION('ref_axis',(1.,0.,0.));
#701=DIRECTION('center_axis',(0.,0.,1.));
#702=DIRECTION('ref_axis',(1.,0.,0.));
#703=DIRECTION('',(0.,0.,1.));
#704=DIRECTION('center_axis',(0.,0.,-1.));
#705=DIRECTION('ref_axis',(1.,0.,0.));
#706=DIRECTION('center_axis',(0.,0.,-1.));
#707=DIRECTION('ref_axis',(1.,0.,0.));
#708=DIRECTION('center_axis',(0.,0.,-1.));
#709=DIRECTION('ref_axis',(1.,0.,0.));
#710=DIRECTION('',(0.,0.,1.));
#711=DIRECTION('center_axis',(0.,0.,-1.));
#712=DIRECTION('ref_axis',(1.,0.,0.));
#713=DIRECTION('center_axis',(0.,0.,1.));
#714=DIRECTION('ref_axis',(1.,0.,0.));
#715=DIRECTION('center_axis',(0.,0.,-1.));
#716=DIRECTION('ref_axis',(1.,0.,0.));
#717=DIRECTION('center_axis',(0.,0.,1.));
#718=DIRECTION('ref_axis',(1.,0.,0.));
#719=DIRECTION('',(0.,0.,1.));
#720=DIRECTION('center_axis',(0.,0.,-1.));
#721=DIRECTION('ref_axis',(1.,0.,0.));
#722=DIRECTION('center_axis',(0.,0.,-1.));
#723=DIRECTION('ref_axis',(1.,0.,0.));
#724=DIRECTION('center_axis',(0.,0.,-1.));
#725=DIRECTION('ref_axis',(1.,0.,0.));
#726=DIRECTION('',(0.,0.,1.));
#727=DIRECTION('center_axis',(0.,0.,-1.));
#728=DIRECTION('ref_axis',(1.,0.,0.));
#729=DIRECTION('center_axis',(0.,0.,1.));
#730=DIRECTION('ref_axis',(1.,0.,0.));
#731=DIRECTION('center_axis',(0.,0.,-1.));
#732=DIRECTION('ref_axis',(1.,0.,0.));
#733=DIRECTION('center_axis',(0.,0.,1.));
#734=DIRECTION('ref_axis',(1.,0.,0.));
#735=DIRECTION('',(0.,0.,1.));
#736=DIRECTION('center_axis',(0.,0.,-1.));
#737=DIRECTION('ref_axis',(1.,0.,0.));
#738=DIRECTION('center_axis',(0.,0.,-1.));
#739=DIRECTION('ref_axis',(1.,0.,0.));
#740=DIRECTION('center_axis',(0.,0.,-1.));
#741=DIRECTION('ref_axis',(1.,0.,0.));
#742=DIRECTION('',(0.,0.,1.));
#743=DIRECTION('center_axis',(0.,0.,-1.));
#744=DIRECTION('ref_axis',(1.,0.,0.));
#745=DIRECTION('center_axis',(0.,0.,1.));
#746=DIRECTION('ref_axis',(1.,0.,0.));
#747=DIRECTION('center_axis',(0.,-1.,0.));
#748=DIRECTION('ref_axis',(1.,0.,0.));
#749=DIRECTION('',(0.,0.,1.));
#750=DIRECTION('',(0.,0.,1.));
#751=DIRECTION('center_axis',(-1.,0.,0.));
#752=DIRECTION('ref_axis',(0.,-1.,0.));
#753=DIRECTION('',(0.,0.,1.));
#754=DIRECTION('center_axis',(5.58793537367713E-7,0.999999999999844,0.));
#755=DIRECTION('ref_axis',(-0.999999999999844,5.58793537367713E-7,0.));
#756=DIRECTION('',(0.,0.,1.));
#757=DIRECTION('center_axis',(-1.,0.,0.));
#758=DIRECTION('ref_axis',(0.,-1.,0.));
#759=DIRECTION('',(0.,0.,1.));
#760=DIRECTION('center_axis',(0.,1.,0.));
#761=DIRECTION('ref_axis',(-1.,0.,0.));
#762=DIRECTION('',(0.,0.,1.));
#763=DIRECTION('center_axis',(1.,0.,0.));
#764=DIRECTION('ref_axis',(0.,1.,0.));
#765=DIRECTION('',(0.,0.,1.));
#766=DIRECTION('center_axis',(0.,1.,0.));
#767=DIRECTION('ref_axis',(-1.,0.,0.));
#768=DIRECTION('',(0.,0.,1.));
#769=DIRECTION('center_axis',(1.,0.,0.));
#770=DIRECTION('ref_axis',(0.,1.,0.));
#771=DIRECTION('',(0.,0.,1.));
#772=DIRECTION('center_axis',(0.,-1.,0.));
#773=DIRECTION('ref_axis',(1.,0.,0.));
#774=DIRECTION('',(0.,0.,1.));
#775=DIRECTION('center_axis',(1.,0.,0.));
#776=DIRECTION('ref_axis',(0.,1.,0.));
#777=DIRECTION('center_axis',(-1.,0.,0.));
#778=DIRECTION('ref_axis',(0.,-1.,0.));
#779=DIRECTION('center_axis',(0.,0.,1.));
#780=DIRECTION('ref_axis',(1.,0.,0.));
#781=CARTESIAN_POINT('',(0.,0.,0.));
#782=CARTESIAN_POINT('Origin',(44.65,70.,2.4));
#783=CARTESIAN_POINT('',(44.65,70.,2.4));
#784=CARTESIAN_POINT('',(44.65,4.44089209850063E-15,2.4));
#785=CARTESIAN_POINT('',(44.65,58.7,2.4));
#786=CARTESIAN_POINT('',(44.65,70.,0.));
#787=CARTESIAN_POINT('',(44.65,70.,2.4));
#788=CARTESIAN_POINT('',(44.65,0.,0.));
#789=CARTESIAN_POINT('',(44.65,58.7,0.));
#790=CARTESIAN_POINT('',(44.65,0.,1.2));
#791=CARTESIAN_POINT('Origin',(24.65,70.,2.4));
#792=CARTESIAN_POINT('',(24.65,70.,2.4));
#793=CARTESIAN_POINT('',(29.65,70.,2.4));
#794=CARTESIAN_POINT('',(24.65,70.,0.));
#795=CARTESIAN_POINT('',(24.65,70.,2.4));
#796=CARTESIAN_POINT('',(29.65,70.,0.));
#797=CARTESIAN_POINT('Origin',(24.65,0.,2.4));
#798=CARTESIAN_POINT('',(24.65,0.,2.4));
#799=CARTESIAN_POINT('',(24.65,23.7,2.4));
#800=CARTESIAN_POINT('',(24.65,0.,0.));
#801=CARTESIAN_POINT('',(24.65,0.,1.2));
#802=CARTESIAN_POINT('',(24.65,23.7,0.));
#803=CARTESIAN_POINT('Origin',(2.4,0.,0.));
#804=CARTESIAN_POINT('',(66.9,0.,0.));
#805=CARTESIAN_POINT('',(2.4,0.,0.));
#806=CARTESIAN_POINT('',(66.9,0.,2.4));
#807=CARTESIAN_POINT('',(66.9,0.,0.));
#808=CARTESIAN_POINT('',(2.4,0.,2.4));
#809=CARTESIAN_POINT('Origin',(2.4,0.,0.));
#810=CARTESIAN_POINT('',(2.4,0.,2.4));
#811=CARTESIAN_POINT('',(2.4,0.,2.4));
#812=CARTESIAN_POINT('',(2.4,0.,0.));
#813=CARTESIAN_POINT('',(2.4,0.,0.));
#814=CARTESIAN_POINT('',(2.4,0.,0.));
#815=CARTESIAN_POINT('Origin',(34.65,47.4,2.4));
#816=CARTESIAN_POINT('',(66.9,4.8,2.4));
#817=CARTESIAN_POINT('',(66.9,0.,2.4));
#818=CARTESIAN_POINT('',(69.3,4.8,2.4));
#819=CARTESIAN_POINT('',(66.9,4.8,2.4));
#820=CARTESIAN_POINT('',(69.3,90.,2.4));
#821=CARTESIAN_POINT('',(69.3,4.8,2.4));
#822=CARTESIAN_POINT('',(66.9,90.,2.4));
#823=CARTESIAN_POINT('',(66.9,90.,2.4));
#824=CARTESIAN_POINT('',(66.9,94.8,2.4));
#825=CARTESIAN_POINT('',(66.9,94.8,2.4));
#826=CARTESIAN_POINT('',(2.4,94.8,2.4));
#827=CARTESIAN_POINT('',(66.9,94.8,2.4));
#828=CARTESIAN_POINT('',(2.4,90.,2.4));
#829=CARTESIAN_POINT('',(2.4,94.8,2.4));
#830=CARTESIAN_POINT('',(0.,90.0000013411045,2.4));
#831=CARTESIAN_POINT('',(0.,90.0000013411045,2.4));
#832=CARTESIAN_POINT('',(0.,4.8,2.4));
#833=CARTESIAN_POINT('',(0.,90.0000013411045,2.4));
#834=CARTESIAN_POINT('',(2.4,4.8,2.4));
#835=CARTESIAN_POINT('',(2.4,4.8,2.4));
#836=CARTESIAN_POINT('',(2.4,2.4,2.4));
#837=CARTESIAN_POINT('Origin',(58.9,12.8,0.));
#838=CARTESIAN_POINT('',(55.725,12.8,-6.35));
#839=CARTESIAN_POINT('Origin',(58.9,12.8,-6.35));
#840=CARTESIAN_POINT('',(55.725,12.8,0.));
#841=CARTESIAN_POINT('',(55.725,12.8,0.));
#842=CARTESIAN_POINT('Origin',(58.9,12.8,0.));
#843=CARTESIAN_POINT('Origin',(58.9,12.8,0.));
#844=CARTESIAN_POINT('',(53.325,12.8,-6.35));
#845=CARTESIAN_POINT('Origin',(58.9,12.8,-6.35));
#846=CARTESIAN_POINT('',(53.325,12.8,0.));
#847=CARTESIAN_POINT('',(53.325,12.8,0.));
#848=CARTESIAN_POINT('Origin',(58.9,12.8,0.));
#849=CARTESIAN_POINT('Origin',(58.9,12.8,-6.35));
#850=CARTESIAN_POINT('Origin',(34.65,47.4,0.));
#851=CARTESIAN_POINT('',(2.4,4.8,0.));
#852=CARTESIAN_POINT('',(2.4,2.4,0.));
#853=CARTESIAN_POINT('',(0.,4.8,0.));
#854=CARTESIAN_POINT('',(2.4,4.8,0.));
#855=CARTESIAN_POINT('',(0.,90.0000013411045,0.));
#856=CARTESIAN_POINT('',(0.,90.0000013411045,0.));
#857=CARTESIAN_POINT('',(2.4,90.,0.));
#858=CARTESIAN_POINT('',(0.,90.0000013411045,0.));
#859=CARTESIAN_POINT('',(2.4,94.8,0.));
#860=CARTESIAN_POINT('',(2.4,94.8,0.));
#861=CARTESIAN_POINT('',(66.9,94.8,0.));
#862=CARTESIAN_POINT('',(66.9,94.8,0.));
#863=CARTESIAN_POINT('',(66.9,90.,0.));
#864=CARTESIAN_POINT('',(66.9,94.8,0.));
#865=CARTESIAN_POINT('',(69.3,90.,0.));
#866=CARTESIAN_POINT('',(66.9,90.,0.));
#867=CARTESIAN_POINT('',(69.3,4.8,0.));
#868=CARTESIAN_POINT('',(69.3,4.8,0.));
#869=CARTESIAN_POINT('',(66.9,4.8,0.));
#870=CARTESIAN_POINT('',(66.9,4.8,0.));
#871=CARTESIAN_POINT('',(66.9,0.,0.));
#872=CARTESIAN_POINT('',(53.325,82.,0.));
#873=CARTESIAN_POINT('Origin',(58.9,82.,0.));
#874=CARTESIAN_POINT('',(4.825,82.,0.));
#875=CARTESIAN_POINT('Origin',(10.4,82.,0.));
#876=CARTESIAN_POINT('',(4.825,12.8,0.));
#877=CARTESIAN_POINT('Origin',(10.4,12.8,0.));
#878=CARTESIAN_POINT('Origin',(58.9,82.,0.));
#879=CARTESIAN_POINT('',(55.725,82.,-6.35));
#880=CARTESIAN_POINT('Origin',(58.9,82.,-6.35));
#881=CARTESIAN_POINT('',(55.725,82.,0.));
#882=CARTESIAN_POINT('',(55.725,82.,0.));
#883=CARTESIAN_POINT('Origin',(58.9,82.,0.));
#884=CARTESIAN_POINT('Origin',(58.9,82.,0.));
#885=CARTESIAN_POINT('',(53.325,82.,-6.35));
#886=CARTESIAN_POINT('Origin',(58.9,82.,-6.35));
#887=CARTESIAN_POINT('',(53.325,82.,0.));
#888=CARTESIAN_POINT('Origin',(58.9,82.,-6.35));
#889=CARTESIAN_POINT('Origin',(34.65,47.4,0.));
#890=CARTESIAN_POINT('Origin',(10.4,12.8,0.));
#891=CARTESIAN_POINT('',(7.225,12.8,-6.35));
#892=CARTESIAN_POINT('Origin',(10.4,12.8,-6.35));
#893=CARTESIAN_POINT('',(7.225,12.8,0.));
#894=CARTESIAN_POINT('',(7.225,12.8,0.));
#895=CARTESIAN_POINT('Origin',(10.4,12.8,0.));
#896=CARTESIAN_POINT('Origin',(10.4,12.8,0.));
#897=CARTESIAN_POINT('',(4.825,12.8,-6.35));
#898=CARTESIAN_POINT('Origin',(10.4,12.8,-6.35));
#899=CARTESIAN_POINT('',(4.825,12.8,0.));
#900=CARTESIAN_POINT('Origin',(10.4,12.8,-6.35));
#901=CARTESIAN_POINT('Origin',(34.65,47.4,0.));
#902=CARTESIAN_POINT('Origin',(10.4,82.,0.));
#903=CARTESIAN_POINT('',(7.225,82.,-6.35));
#904=CARTESIAN_POINT('Origin',(10.4,82.,-6.35));
#905=CARTESIAN_POINT('',(7.225,82.,0.));
#906=CARTESIAN_POINT('',(7.225,82.,0.));
#907=CARTESIAN_POINT('Origin',(10.4,82.,0.));
#908=CARTESIAN_POINT('Origin',(10.4,82.,0.));
#909=CARTESIAN_POINT('',(4.825,82.,-6.35));
#910=CARTESIAN_POINT('Origin',(10.4,82.,-6.35));
#911=CARTESIAN_POINT('',(4.825,82.,0.));
#912=CARTESIAN_POINT('Origin',(10.4,82.,-6.35));
#913=CARTESIAN_POINT('Origin',(34.65,47.4,0.));
#914=CARTESIAN_POINT('Origin',(0.,4.8,0.));
#915=CARTESIAN_POINT('',(2.4,4.8,0.));
#916=CARTESIAN_POINT('',(0.,4.8,0.));
#917=CARTESIAN_POINT('Origin',(0.,90.0000013411045,0.));
#918=CARTESIAN_POINT('',(0.,90.0000013411045,0.));
#919=CARTESIAN_POINT('Origin',(2.4,90.,0.));
#920=CARTESIAN_POINT('',(2.4,90.,0.));
#921=CARTESIAN_POINT('Origin',(2.4,94.8,0.));
#922=CARTESIAN_POINT('',(2.4,94.8,0.));
#923=CARTESIAN_POINT('Origin',(66.9,94.8,0.));
#924=CARTESIAN_POINT('',(66.9,94.8,0.));
#925=CARTESIAN_POINT('Origin',(66.9,90.,0.));
#926=CARTESIAN_POINT('',(66.9,90.,0.));
#927=CARTESIAN_POINT('Origin',(69.3,90.,0.));
#928=CARTESIAN_POINT('',(69.3,90.,0.));
#929=CARTESIAN_POINT('Origin',(69.3,4.8,0.));
#930=CARTESIAN_POINT('',(69.3,4.8,0.));
#931=CARTESIAN_POINT('Origin',(66.9,4.8,0.));
#932=CARTESIAN_POINT('',(66.9,4.8,0.));
#933=CARTESIAN_POINT('Origin',(66.9,0.,0.));
#934=CARTESIAN_POINT('Origin',(2.4,4.8,0.));
#935=CARTESIAN_POINT('Origin',(34.65,47.4,0.));
#936=UNCERTAINTY_MEASURE_WITH_UNIT(LENGTH_MEASURE(0.01),#940,
'DISTANCE_ACCURACY_VALUE',
'Maximum model space distance between geometric entities at asserted c
onnectivities');
#937=UNCERTAINTY_MEASURE_WITH_UNIT(LENGTH_MEASURE(0.01),#940,
'DISTANCE_ACCURACY_VALUE',
'Maximum model space distance between geometric entities at asserted c
onnectivities');
#938=(
GEOMETRIC_REPRESENTATION_CONTEXT(3)
GLOBAL_UNCERTAINTY_ASSIGNED_CONTEXT((#936))
GLOBAL_UNIT_ASSIGNED_CONTEXT((#940,#942,#943))
REPRESENTATION_CONTEXT('','3D')
);
#939=(
GEOMETRIC_REPRESENTATION_CONTEXT(3)
GLOBAL_UNCERTAINTY_ASSIGNED_CONTEXT((#937))
GLOBAL_UNIT_ASSIGNED_CONTEXT((#940,#942,#943))
REPRESENTATION_CONTEXT('','3D')
);
#940=(
LENGTH_UNIT()
NAMED_UNIT(*)
SI_UNIT(.MILLI.,.METRE.)
);
#941=(
LENGTH_UNIT()
NAMED_UNIT(*)
SI_UNIT($,.METRE.)
);
#942=(
NAMED_UNIT(*)
PLANE_ANGLE_UNIT()
SI_UNIT($,.RADIAN.)
);
#943=(
NAMED_UNIT(*)
SI_UNIT($,.STERADIAN.)
SOLID_ANGLE_UNIT()
);
#944=SHAPE_DEFINITION_REPRESENTATION(#945,#946);
#945=PRODUCT_DEFINITION_SHAPE('',$,#948);
#946=SHAPE_REPRESENTATION('',(#572),#938);
#947=PRODUCT_DEFINITION_CONTEXT('part definition',#952,'design');
#948=PRODUCT_DEFINITION('2026-07-08-15-42-05-763','Card Floor',#949,#947);
#949=PRODUCT_DEFINITION_FORMATION('',$,#954);
#950=PRODUCT_RELATED_PRODUCT_CATEGORY('Card Floor','Card Floor',(#954));
#951=APPLICATION_PROTOCOL_DEFINITION('international standard',
'automotive_design',2009,#952);
#952=APPLICATION_CONTEXT(
'Core Data for Automotive Mechanical Design Process');
#953=PRODUCT_CONTEXT('part definition',#952,'mechanical');
#954=PRODUCT('2026-07-08-15-42-05-763','Card Floor',$,(#953));
#955=PRESENTATION_STYLE_ASSIGNMENT((#956));
#956=SURFACE_STYLE_USAGE(.BOTH.,#957);
#957=SURFACE_SIDE_STYLE('',(#958));
#958=SURFACE_STYLE_FILL_AREA(#959);
#959=FILL_AREA_STYLE('Steel - Satin',(#960));
#960=FILL_AREA_STYLE_COLOUR('Steel - Satin',#961);
#961=COLOUR_RGB('Steel - Satin',0.627450980392157,0.627450980392157,0.627450980392157);
ENDSEC;
END-ISO-10303-21;
