ISO-10303-21;
HEADER;
/* Generated by software containing ST-Developer
 * from STEP Tools, Inc. (www.steptools.com) 
 */

FILE_DESCRIPTION(
/* description */ (''),
/* implementation_level */ '2;1');

FILE_NAME(
/* name */ 'card_holder_base_to_stepper.step',
/* time_stamp */ '2026-08-19T17:43:32-06:00',
/* author */ (''),
/* organization */ (''),
/* preprocessor_version */ 'ST-DEVELOPER v20.1',
/* originating_system */ 'Autodesk Translation Framework v15.8.0.0',
/* authorisation */ '');

FILE_SCHEMA (('AUTOMOTIVE_DESIGN { 1 0 10303 214 3 1 1 }'));
ENDSEC;

DATA;
#10=MECHANICAL_DESIGN_GEOMETRIC_PRESENTATION_REPRESENTATION('',(#13),#1540);
#11=SHAPE_REPRESENTATION_RELATIONSHIP('SRR','None',#1547,#12);
#12=ADVANCED_BREP_SHAPE_REPRESENTATION('',(#14),#1539);
#13=STYLED_ITEM('',(#1556),#14);
#14=MANIFOLD_SOLID_BREP('Body1',#932);
#15=CYLINDRICAL_SURFACE('',#967,3.175);
#16=CYLINDRICAL_SURFACE('',#970,5.575);
#17=CYLINDRICAL_SURFACE('',#974,3.175);
#18=CYLINDRICAL_SURFACE('',#977,5.575);
#19=CYLINDRICAL_SURFACE('',#981,3.175);
#20=CYLINDRICAL_SURFACE('',#984,5.575);
#21=CYLINDRICAL_SURFACE('',#988,3.175);
#22=CYLINDRICAL_SURFACE('',#991,5.57499999999999);
#23=CYLINDRICAL_SURFACE('',#997,1.5);
#24=CYLINDRICAL_SURFACE('',#1008,5.);
#25=CYLINDRICAL_SURFACE('',#1016,2.6);
#26=FACE_BOUND('',#131,.T.);
#27=FACE_BOUND('',#132,.T.);
#28=FACE_BOUND('',#134,.T.);
#29=FACE_BOUND('',#135,.T.);
#30=FACE_BOUND('',#139,.T.);
#31=FACE_BOUND('',#144,.T.);
#32=FACE_BOUND('',#149,.T.);
#33=FACE_BOUND('',#154,.T.);
#34=FACE_BOUND('',#166,.T.);
#35=FACE_BOUND('',#171,.T.);
#36=FACE_BOUND('',#173,.T.);
#37=FACE_BOUND('',#175,.T.);
#38=FACE_BOUND('',#181,.T.);
#39=CIRCLE('',#962,5.575);
#40=CIRCLE('',#963,5.57499999999999);
#41=CIRCLE('',#965,5.575);
#42=CIRCLE('',#966,5.575);
#43=CIRCLE('',#968,3.175);
#44=CIRCLE('',#969,3.175);
#45=CIRCLE('',#971,5.575);
#46=CIRCLE('',#975,3.175);
#47=CIRCLE('',#976,3.175);
#48=CIRCLE('',#978,5.575);
#49=CIRCLE('',#982,3.175);
#50=CIRCLE('',#983,3.175);
#51=CIRCLE('',#985,5.575);
#52=CIRCLE('',#989,3.175);
#53=CIRCLE('',#990,3.175);
#54=CIRCLE('',#992,5.57499999999999);
#55=CIRCLE('',#998,1.5);
#56=CIRCLE('',#999,1.5);
#57=CIRCLE('',#1009,5.);
#58=CIRCLE('',#1010,5.);
#59=CIRCLE('',#1014,2.6);
#60=CIRCLE('',#1017,2.6);
#61=FACE_OUTER_BOUND('',#115,.T.);
#62=FACE_OUTER_BOUND('',#116,.T.);
#63=FACE_OUTER_BOUND('',#117,.T.);
#64=FACE_OUTER_BOUND('',#118,.T.);
#65=FACE_OUTER_BOUND('',#119,.T.);
#66=FACE_OUTER_BOUND('',#120,.T.);
#67=FACE_OUTER_BOUND('',#121,.T.);
#68=FACE_OUTER_BOUND('',#122,.T.);
#69=FACE_OUTER_BOUND('',#123,.T.);
#70=FACE_OUTER_BOUND('',#124,.T.);
#71=FACE_OUTER_BOUND('',#125,.T.);
#72=FACE_OUTER_BOUND('',#126,.T.);
#73=FACE_OUTER_BOUND('',#127,.T.);
#74=FACE_OUTER_BOUND('',#128,.T.);
#75=FACE_OUTER_BOUND('',#129,.T.);
#76=FACE_OUTER_BOUND('',#130,.T.);
#77=FACE_OUTER_BOUND('',#133,.T.);
#78=FACE_OUTER_BOUND('',#136,.T.);
#79=FACE_OUTER_BOUND('',#137,.T.);
#80=FACE_OUTER_BOUND('',#138,.T.);
#81=FACE_OUTER_BOUND('',#140,.T.);
#82=FACE_OUTER_BOUND('',#141,.T.);
#83=FACE_OUTER_BOUND('',#142,.T.);
#84=FACE_OUTER_BOUND('',#143,.T.);
#85=FACE_OUTER_BOUND('',#145,.T.);
#86=FACE_OUTER_BOUND('',#146,.T.);
#87=FACE_OUTER_BOUND('',#147,.T.);
#88=FACE_OUTER_BOUND('',#148,.T.);
#89=FACE_OUTER_BOUND('',#150,.T.);
#90=FACE_OUTER_BOUND('',#151,.T.);
#91=FACE_OUTER_BOUND('',#152,.T.);
#92=FACE_OUTER_BOUND('',#153,.T.);
#93=FACE_OUTER_BOUND('',#155,.T.);
#94=FACE_OUTER_BOUND('',#156,.T.);
#95=FACE_OUTER_BOUND('',#157,.T.);
#96=FACE_OUTER_BOUND('',#158,.T.);
#97=FACE_OUTER_BOUND('',#159,.T.);
#98=FACE_OUTER_BOUND('',#160,.T.);
#99=FACE_OUTER_BOUND('',#161,.T.);
#100=FACE_OUTER_BOUND('',#162,.T.);
#101=FACE_OUTER_BOUND('',#163,.T.);
#102=FACE_OUTER_BOUND('',#164,.T.);
#103=FACE_OUTER_BOUND('',#165,.T.);
#104=FACE_OUTER_BOUND('',#167,.T.);
#105=FACE_OUTER_BOUND('',#168,.T.);
#106=FACE_OUTER_BOUND('',#169,.T.);
#107=FACE_OUTER_BOUND('',#170,.T.);
#108=FACE_OUTER_BOUND('',#172,.T.);
#109=FACE_OUTER_BOUND('',#174,.T.);
#110=FACE_OUTER_BOUND('',#176,.T.);
#111=FACE_OUTER_BOUND('',#177,.T.);
#112=FACE_OUTER_BOUND('',#178,.T.);
#113=FACE_OUTER_BOUND('',#179,.T.);
#114=FACE_OUTER_BOUND('',#180,.T.);
#115=EDGE_LOOP('',(#589,#590,#591,#592));
#116=EDGE_LOOP('',(#593,#594,#595,#596));
#117=EDGE_LOOP('',(#597,#598,#599,#600));
#118=EDGE_LOOP('',(#601,#602,#603,#604));
#119=EDGE_LOOP('',(#605,#606,#607,#608));
#120=EDGE_LOOP('',(#609,#610,#611,#612));
#121=EDGE_LOOP('',(#613,#614,#615,#616));
#122=EDGE_LOOP('',(#617,#618,#619,#620));
#123=EDGE_LOOP('',(#621,#622,#623,#624));
#124=EDGE_LOOP('',(#625,#626,#627,#628));
#125=EDGE_LOOP('',(#629,#630,#631,#632));
#126=EDGE_LOOP('',(#633,#634,#635,#636));
#127=EDGE_LOOP('',(#637,#638,#639,#640));
#128=EDGE_LOOP('',(#641,#642,#643,#644));
#129=EDGE_LOOP('',(#645,#646,#647,#648,#649,#650,#651,#652,#653,#654,#655,
#656,#657,#658,#659,#660,#661,#662,#663,#664));
#130=EDGE_LOOP('',(#665,#666,#667,#668));
#131=EDGE_LOOP('',(#669));
#132=EDGE_LOOP('',(#670));
#133=EDGE_LOOP('',(#671,#672,#673,#674));
#134=EDGE_LOOP('',(#675));
#135=EDGE_LOOP('',(#676));
#136=EDGE_LOOP('',(#677,#678,#679,#680));
#137=EDGE_LOOP('',(#681,#682,#683,#684));
#138=EDGE_LOOP('',(#685));
#139=EDGE_LOOP('',(#686));
#140=EDGE_LOOP('',(#687,#688,#689,#690));
#141=EDGE_LOOP('',(#691,#692,#693,#694));
#142=EDGE_LOOP('',(#695,#696,#697,#698));
#143=EDGE_LOOP('',(#699));
#144=EDGE_LOOP('',(#700));
#145=EDGE_LOOP('',(#701));
#146=EDGE_LOOP('',(#702,#703,#704,#705));
#147=EDGE_LOOP('',(#706,#707,#708,#709));
#148=EDGE_LOOP('',(#710));
#149=EDGE_LOOP('',(#711));
#150=EDGE_LOOP('',(#712));
#151=EDGE_LOOP('',(#713,#714,#715,#716));
#152=EDGE_LOOP('',(#717,#718,#719,#720));
#153=EDGE_LOOP('',(#721));
#154=EDGE_LOOP('',(#722));
#155=EDGE_LOOP('',(#723));
#156=EDGE_LOOP('',(#724));
#157=EDGE_LOOP('',(#725,#726,#727,#728,#729,#730,#731,#732,#733,#734,#735,
#736,#737,#738,#739,#740,#741,#742,#743,#744));
#158=EDGE_LOOP('',(#745,#746,#747,#748));
#159=EDGE_LOOP('',(#749,#750,#751,#752));
#160=EDGE_LOOP('',(#753,#754,#755,#756));
#161=EDGE_LOOP('',(#757,#758,#759,#760));
#162=EDGE_LOOP('',(#761,#762,#763,#764));
#163=EDGE_LOOP('',(#765,#766,#767,#768));
#164=EDGE_LOOP('',(#769,#770,#771,#772));
#165=EDGE_LOOP('',(#773,#774,#775,#776,#777,#778));
#166=EDGE_LOOP('',(#779));
#167=EDGE_LOOP('',(#780,#781,#782,#783));
#168=EDGE_LOOP('',(#784,#785,#786,#787));
#169=EDGE_LOOP('',(#788,#789,#790,#791));
#170=EDGE_LOOP('',(#792,#793,#794,#795));
#171=EDGE_LOOP('',(#796,#797,#798,#799,#800,#801));
#172=EDGE_LOOP('',(#802,#803,#804,#805));
#173=EDGE_LOOP('',(#806,#807));
#174=EDGE_LOOP('',(#808,#809,#810,#811));
#175=EDGE_LOOP('',(#812));
#176=EDGE_LOOP('',(#813,#814,#815,#816));
#177=EDGE_LOOP('',(#817,#818));
#178=EDGE_LOOP('',(#819,#820,#821,#822));
#179=EDGE_LOOP('',(#823,#824,#825,#826));
#180=EDGE_LOOP('',(#827,#828,#829,#830));
#181=EDGE_LOOP('',(#831,#832,#833,#834));
#182=LINE('',#1281,#283);
#183=LINE('',#1283,#284);
#184=LINE('',#1285,#285);
#185=LINE('',#1286,#286);
#186=LINE('',#1289,#287);
#187=LINE('',#1291,#288);
#188=LINE('',#1292,#289);
#189=LINE('',#1296,#290);
#190=LINE('',#1298,#291);
#191=LINE('',#1300,#292);
#192=LINE('',#1301,#293);
#193=LINE('',#1304,#294);
#194=LINE('',#1306,#295);
#195=LINE('',#1307,#296);
#196=LINE('',#1310,#297);
#197=LINE('',#1312,#298);
#198=LINE('',#1313,#299);
#199=LINE('',#1316,#300);
#200=LINE('',#1318,#301);
#201=LINE('',#1319,#302);
#202=LINE('',#1321,#303);
#203=LINE('',#1322,#304);
#204=LINE('',#1326,#305);
#205=LINE('',#1328,#306);
#206=LINE('',#1330,#307);
#207=LINE('',#1331,#308);
#208=LINE('',#1334,#309);
#209=LINE('',#1336,#310);
#210=LINE('',#1337,#311);
#211=LINE('',#1340,#312);
#212=LINE('',#1342,#313);
#213=LINE('',#1343,#314);
#214=LINE('',#1346,#315);
#215=LINE('',#1348,#316);
#216=LINE('',#1349,#317);
#217=LINE('',#1352,#318);
#218=LINE('',#1354,#319);
#219=LINE('',#1355,#320);
#220=LINE('',#1358,#321);
#221=LINE('',#1360,#322);
#222=LINE('',#1361,#323);
#223=LINE('',#1364,#324);
#224=LINE('',#1366,#325);
#225=LINE('',#1367,#326);
#226=LINE('',#1370,#327);
#227=LINE('',#1372,#328);
#228=LINE('',#1374,#329);
#229=LINE('',#1376,#330);
#230=LINE('',#1377,#331);
#231=LINE('',#1378,#332);
#232=LINE('',#1381,#333);
#233=LINE('',#1382,#334);
#234=LINE('',#1389,#335);
#235=LINE('',#1390,#336);
#236=LINE('',#1399,#337);
#237=LINE('',#1404,#338);
#238=LINE('',#1407,#339);
#239=LINE('',#1412,#340);
#240=LINE('',#1417,#341);
#241=LINE('',#1424,#342);
#242=LINE('',#1429,#343);
#243=LINE('',#1436,#344);
#244=LINE('',#1441,#345);
#245=LINE('',#1447,#346);
#246=LINE('',#1449,#347);
#247=LINE('',#1450,#348);
#248=LINE('',#1455,#349);
#249=LINE('',#1460,#350);
#250=LINE('',#1462,#351);
#251=LINE('',#1464,#352);
#252=LINE('',#1465,#353);
#253=LINE('',#1468,#354);
#254=LINE('',#1470,#355);
#255=LINE('',#1471,#356);
#256=LINE('',#1474,#357);
#257=LINE('',#1476,#358);
#258=LINE('',#1477,#359);
#259=LINE('',#1480,#360);
#260=LINE('',#1482,#361);
#261=LINE('',#1483,#362);
#262=LINE('',#1486,#363);
#263=LINE('',#1488,#364);
#264=LINE('',#1489,#365);
#265=LINE('',#1491,#366);
#266=LINE('',#1492,#367);
#267=LINE('',#1497,#368);
#268=LINE('',#1499,#369);
#269=LINE('',#1501,#370);
#270=LINE('',#1502,#371);
#271=LINE('',#1508,#372);
#272=LINE('',#1511,#373);
#273=LINE('',#1513,#374);
#274=LINE('',#1514,#375);
#275=LINE('',#1516,#376);
#276=LINE('',#1517,#377);
#277=LINE('',#1522,#378);
#278=LINE('',#1525,#379);
#279=LINE('',#1527,#380);
#280=LINE('',#1528,#381);
#281=LINE('',#1533,#382);
#282=LINE('',#1535,#383);
#283=VECTOR('',#1026,10.);
#284=VECTOR('',#1027,10.);
#285=VECTOR('',#1028,10.);
#286=VECTOR('',#1029,10.);
#287=VECTOR('',#1032,10.);
#288=VECTOR('',#1033,10.);
#289=VECTOR('',#1034,10.);
#290=VECTOR('',#1037,10.);
#291=VECTOR('',#1038,10.);
#292=VECTOR('',#1039,10.);
#293=VECTOR('',#1040,10.);
#294=VECTOR('',#1043,10.);
#295=VECTOR('',#1044,10.);
#296=VECTOR('',#1045,10.);
#297=VECTOR('',#1048,10.);
#298=VECTOR('',#1049,10.);
#299=VECTOR('',#1050,10.);
#300=VECTOR('',#1053,10.);
#301=VECTOR('',#1054,10.);
#302=VECTOR('',#1055,10.);
#303=VECTOR('',#1058,10.);
#304=VECTOR('',#1059,10.);
#305=VECTOR('',#1062,10.);
#306=VECTOR('',#1063,10.);
#307=VECTOR('',#1064,10.);
#308=VECTOR('',#1065,10.);
#309=VECTOR('',#1068,10.);
#310=VECTOR('',#1069,10.);
#311=VECTOR('',#1070,10.);
#312=VECTOR('',#1073,10.);
#313=VECTOR('',#1074,10.);
#314=VECTOR('',#1075,10.);
#315=VECTOR('',#1078,10.);
#316=VECTOR('',#1079,10.);
#317=VECTOR('',#1080,10.);
#318=VECTOR('',#1083,10.);
#319=VECTOR('',#1084,10.);
#320=VECTOR('',#1085,10.);
#321=VECTOR('',#1088,10.);
#322=VECTOR('',#1089,10.);
#323=VECTOR('',#1090,10.);
#324=VECTOR('',#1093,10.);
#325=VECTOR('',#1094,10.);
#326=VECTOR('',#1095,10.);
#327=VECTOR('',#1098,10.);
#328=VECTOR('',#1099,10.);
#329=VECTOR('',#1100,10.);
#330=VECTOR('',#1101,10.);
#331=VECTOR('',#1102,10.);
#332=VECTOR('',#1103,10.);
#333=VECTOR('',#1106,10.);
#334=VECTOR('',#1107,10.);
#335=VECTOR('',#1114,10.);
#336=VECTOR('',#1115,10.);
#337=VECTOR('',#1124,3.175);
#338=VECTOR('',#1131,5.575);
#339=VECTOR('',#1136,10.);
#340=VECTOR('',#1141,3.175);
#341=VECTOR('',#1148,5.575);
#342=VECTOR('',#1157,3.175);
#343=VECTOR('',#1164,5.575);
#344=VECTOR('',#1173,3.175);
#345=VECTOR('',#1180,5.57499999999999);
#346=VECTOR('',#1189,10.);
#347=VECTOR('',#1190,10.);
#348=VECTOR('',#1191,10.);
#349=VECTOR('',#1196,1.5);
#350=VECTOR('',#1201,10.);
#351=VECTOR('',#1202,10.);
#352=VECTOR('',#1203,10.);
#353=VECTOR('',#1204,10.);
#354=VECTOR('',#1207,10.);
#355=VECTOR('',#1208,10.);
#356=VECTOR('',#1209,10.);
#357=VECTOR('',#1212,10.);
#358=VECTOR('',#1213,10.);
#359=VECTOR('',#1214,10.);
#360=VECTOR('',#1217,10.);
#361=VECTOR('',#1218,10.);
#362=VECTOR('',#1219,10.);
#363=VECTOR('',#1222,10.);
#364=VECTOR('',#1223,10.);
#365=VECTOR('',#1224,10.);
#366=VECTOR('',#1227,10.);
#367=VECTOR('',#1228,10.);
#368=VECTOR('',#1233,10.);
#369=VECTOR('',#1234,10.);
#370=VECTOR('',#1235,10.);
#371=VECTOR('',#1236,10.);
#372=VECTOR('',#1243,10.);
#373=VECTOR('',#1246,10.);
#374=VECTOR('',#1247,10.);
#375=VECTOR('',#1248,10.);
#376=VECTOR('',#1251,10.);
#377=VECTOR('',#1252,10.);
#378=VECTOR('',#1257,10.);
#379=VECTOR('',#1260,10.);
#380=VECTOR('',#1261,10.);
#381=VECTOR('',#1262,10.);
#382=VECTOR('',#1271,10.);
#383=VECTOR('',#1274,10.);
#384=VERTEX_POINT('',#1279);
#385=VERTEX_POINT('',#1280);
#386=VERTEX_POINT('',#1282);
#387=VERTEX_POINT('',#1284);
#388=VERTEX_POINT('',#1288);
#389=VERTEX_POINT('',#1290);
#390=VERTEX_POINT('',#1294);
#391=VERTEX_POINT('',#1295);
#392=VERTEX_POINT('',#1297);
#393=VERTEX_POINT('',#1299);
#394=VERTEX_POINT('',#1303);
#395=VERTEX_POINT('',#1305);
#396=VERTEX_POINT('',#1309);
#397=VERTEX_POINT('',#1311);
#398=VERTEX_POINT('',#1315);
#399=VERTEX_POINT('',#1317);
#400=VERTEX_POINT('',#1324);
#401=VERTEX_POINT('',#1325);
#402=VERTEX_POINT('',#1327);
#403=VERTEX_POINT('',#1329);
#404=VERTEX_POINT('',#1333);
#405=VERTEX_POINT('',#1335);
#406=VERTEX_POINT('',#1339);
#407=VERTEX_POINT('',#1341);
#408=VERTEX_POINT('',#1345);
#409=VERTEX_POINT('',#1347);
#410=VERTEX_POINT('',#1351);
#411=VERTEX_POINT('',#1353);
#412=VERTEX_POINT('',#1357);
#413=VERTEX_POINT('',#1359);
#414=VERTEX_POINT('',#1363);
#415=VERTEX_POINT('',#1365);
#416=VERTEX_POINT('',#1369);
#417=VERTEX_POINT('',#1371);
#418=VERTEX_POINT('',#1373);
#419=VERTEX_POINT('',#1375);
#420=VERTEX_POINT('',#1380);
#421=VERTEX_POINT('',#1383);
#422=VERTEX_POINT('',#1385);
#423=VERTEX_POINT('',#1388);
#424=VERTEX_POINT('',#1391);
#425=VERTEX_POINT('',#1393);
#426=VERTEX_POINT('',#1396);
#427=VERTEX_POINT('',#1398);
#428=VERTEX_POINT('',#1402);
#429=VERTEX_POINT('',#1409);
#430=VERTEX_POINT('',#1411);
#431=VERTEX_POINT('',#1415);
#432=VERTEX_POINT('',#1421);
#433=VERTEX_POINT('',#1423);
#434=VERTEX_POINT('',#1427);
#435=VERTEX_POINT('',#1433);
#436=VERTEX_POINT('',#1435);
#437=VERTEX_POINT('',#1439);
#438=VERTEX_POINT('',#1446);
#439=VERTEX_POINT('',#1448);
#440=VERTEX_POINT('',#1452);
#441=VERTEX_POINT('',#1454);
#442=VERTEX_POINT('',#1458);
#443=VERTEX_POINT('',#1459);
#444=VERTEX_POINT('',#1461);
#445=VERTEX_POINT('',#1463);
#446=VERTEX_POINT('',#1467);
#447=VERTEX_POINT('',#1469);
#448=VERTEX_POINT('',#1473);
#449=VERTEX_POINT('',#1475);
#450=VERTEX_POINT('',#1479);
#451=VERTEX_POINT('',#1481);
#452=VERTEX_POINT('',#1485);
#453=VERTEX_POINT('',#1487);
#454=VERTEX_POINT('',#1495);
#455=VERTEX_POINT('',#1496);
#456=VERTEX_POINT('',#1498);
#457=VERTEX_POINT('',#1500);
#458=VERTEX_POINT('',#1504);
#459=VERTEX_POINT('',#1506);
#460=VERTEX_POINT('',#1510);
#461=VERTEX_POINT('',#1512);
#462=VERTEX_POINT('',#1519);
#463=VERTEX_POINT('',#1520);
#464=VERTEX_POINT('',#1524);
#465=VERTEX_POINT('',#1526);
#466=EDGE_CURVE('',#384,#385,#182,.T.);
#467=EDGE_CURVE('',#384,#386,#183,.T.);
#468=EDGE_CURVE('',#387,#386,#184,.T.);
#469=EDGE_CURVE('',#385,#387,#185,.T.);
#470=EDGE_CURVE('',#388,#384,#186,.T.);
#471=EDGE_CURVE('',#389,#388,#187,.T.);
#472=EDGE_CURVE('',#386,#389,#188,.T.);
#473=EDGE_CURVE('',#390,#391,#189,.T.);
#474=EDGE_CURVE('',#390,#392,#190,.T.);
#475=EDGE_CURVE('',#393,#392,#191,.T.);
#476=EDGE_CURVE('',#391,#393,#192,.T.);
#477=EDGE_CURVE('',#394,#390,#193,.T.);
#478=EDGE_CURVE('',#394,#395,#194,.T.);
#479=EDGE_CURVE('',#392,#395,#195,.T.);
#480=EDGE_CURVE('',#396,#394,#196,.T.);
#481=EDGE_CURVE('',#396,#397,#197,.T.);
#482=EDGE_CURVE('',#395,#397,#198,.T.);
#483=EDGE_CURVE('',#398,#396,#199,.T.);
#484=EDGE_CURVE('',#398,#399,#200,.T.);
#485=EDGE_CURVE('',#397,#399,#201,.T.);
#486=EDGE_CURVE('',#385,#398,#202,.T.);
#487=EDGE_CURVE('',#399,#387,#203,.T.);
#488=EDGE_CURVE('',#400,#401,#204,.T.);
#489=EDGE_CURVE('',#400,#402,#205,.T.);
#490=EDGE_CURVE('',#403,#402,#206,.T.);
#491=EDGE_CURVE('',#401,#403,#207,.T.);
#492=EDGE_CURVE('',#404,#400,#208,.T.);
#493=EDGE_CURVE('',#404,#405,#209,.T.);
#494=EDGE_CURVE('',#402,#405,#210,.T.);
#495=EDGE_CURVE('',#406,#404,#211,.T.);
#496=EDGE_CURVE('',#406,#407,#212,.T.);
#497=EDGE_CURVE('',#405,#407,#213,.T.);
#498=EDGE_CURVE('',#408,#406,#214,.T.);
#499=EDGE_CURVE('',#408,#409,#215,.T.);
#500=EDGE_CURVE('',#407,#409,#216,.T.);
#501=EDGE_CURVE('',#410,#408,#217,.T.);
#502=EDGE_CURVE('',#410,#411,#218,.T.);
#503=EDGE_CURVE('',#409,#411,#219,.T.);
#504=EDGE_CURVE('',#412,#410,#220,.T.);
#505=EDGE_CURVE('',#413,#412,#221,.T.);
#506=EDGE_CURVE('',#411,#413,#222,.T.);
#507=EDGE_CURVE('',#401,#414,#223,.T.);
#508=EDGE_CURVE('',#415,#403,#224,.T.);
#509=EDGE_CURVE('',#414,#415,#225,.T.);
#510=EDGE_CURVE('',#416,#389,#226,.T.);
#511=EDGE_CURVE('',#417,#416,#227,.T.);
#512=EDGE_CURVE('',#417,#418,#228,.T.);
#513=EDGE_CURVE('',#418,#419,#229,.T.);
#514=EDGE_CURVE('',#415,#419,#230,.T.);
#515=EDGE_CURVE('',#393,#413,#231,.T.);
#516=EDGE_CURVE('',#419,#420,#232,.T.);
#517=EDGE_CURVE('',#420,#414,#233,.T.);
#518=EDGE_CURVE('',#421,#421,#39,.T.);
#519=EDGE_CURVE('',#422,#422,#40,.T.);
#520=EDGE_CURVE('',#388,#423,#234,.T.);
#521=EDGE_CURVE('',#423,#416,#235,.T.);
#522=EDGE_CURVE('',#424,#424,#41,.T.);
#523=EDGE_CURVE('',#425,#425,#42,.T.);
#524=EDGE_CURVE('',#426,#426,#43,.T.);
#525=EDGE_CURVE('',#426,#427,#236,.T.);
#526=EDGE_CURVE('',#427,#427,#44,.T.);
#527=EDGE_CURVE('',#428,#428,#45,.T.);
#528=EDGE_CURVE('',#428,#424,#237,.T.);
#529=EDGE_CURVE('',#412,#391,#238,.T.);
#530=EDGE_CURVE('',#429,#429,#46,.T.);
#531=EDGE_CURVE('',#429,#430,#239,.T.);
#532=EDGE_CURVE('',#430,#430,#47,.T.);
#533=EDGE_CURVE('',#431,#431,#48,.T.);
#534=EDGE_CURVE('',#431,#421,#240,.T.);
#535=EDGE_CURVE('',#432,#432,#49,.T.);
#536=EDGE_CURVE('',#432,#433,#241,.T.);
#537=EDGE_CURVE('',#433,#433,#50,.T.);
#538=EDGE_CURVE('',#434,#434,#51,.T.);
#539=EDGE_CURVE('',#434,#425,#242,.T.);
#540=EDGE_CURVE('',#435,#435,#52,.T.);
#541=EDGE_CURVE('',#435,#436,#243,.T.);
#542=EDGE_CURVE('',#436,#436,#53,.T.);
#543=EDGE_CURVE('',#437,#437,#54,.T.);
#544=EDGE_CURVE('',#437,#422,#244,.T.);
#545=EDGE_CURVE('',#438,#420,#245,.T.);
#546=EDGE_CURVE('',#438,#439,#246,.T.);
#547=EDGE_CURVE('',#439,#423,#247,.T.);
#548=EDGE_CURVE('',#440,#440,#55,.T.);
#549=EDGE_CURVE('',#440,#441,#248,.T.);
#550=EDGE_CURVE('',#441,#441,#56,.T.);
#551=EDGE_CURVE('',#442,#443,#249,.T.);
#552=EDGE_CURVE('',#442,#444,#250,.T.);
#553=EDGE_CURVE('',#444,#445,#251,.T.);
#554=EDGE_CURVE('',#443,#445,#252,.T.);
#555=EDGE_CURVE('',#446,#442,#253,.T.);
#556=EDGE_CURVE('',#446,#447,#254,.T.);
#557=EDGE_CURVE('',#447,#444,#255,.T.);
#558=EDGE_CURVE('',#448,#446,#256,.T.);
#559=EDGE_CURVE('',#448,#449,#257,.T.);
#560=EDGE_CURVE('',#449,#447,#258,.T.);
#561=EDGE_CURVE('',#450,#448,#259,.T.);
#562=EDGE_CURVE('',#450,#451,#260,.T.);
#563=EDGE_CURVE('',#451,#449,#261,.T.);
#564=EDGE_CURVE('',#452,#450,#262,.T.);
#565=EDGE_CURVE('',#452,#453,#263,.T.);
#566=EDGE_CURVE('',#453,#451,#264,.T.);
#567=EDGE_CURVE('',#443,#452,#265,.T.);
#568=EDGE_CURVE('',#445,#453,#266,.T.);
#569=EDGE_CURVE('',#454,#455,#267,.T.);
#570=EDGE_CURVE('',#454,#456,#268,.T.);
#571=EDGE_CURVE('',#457,#456,#269,.T.);
#572=EDGE_CURVE('',#455,#457,#270,.T.);
#573=EDGE_CURVE('',#455,#458,#57,.T.);
#574=EDGE_CURVE('',#459,#457,#58,.T.);
#575=EDGE_CURVE('',#458,#459,#271,.T.);
#576=EDGE_CURVE('',#458,#460,#272,.T.);
#577=EDGE_CURVE('',#461,#459,#273,.T.);
#578=EDGE_CURVE('',#460,#461,#274,.T.);
#579=EDGE_CURVE('',#460,#454,#275,.T.);
#580=EDGE_CURVE('',#456,#461,#276,.T.);
#581=EDGE_CURVE('',#462,#463,#59,.T.);
#582=EDGE_CURVE('',#463,#462,#277,.T.);
#583=EDGE_CURVE('',#463,#464,#278,.T.);
#584=EDGE_CURVE('',#464,#465,#279,.T.);
#585=EDGE_CURVE('',#465,#462,#280,.T.);
#586=EDGE_CURVE('',#465,#464,#60,.T.);
#587=EDGE_CURVE('',#418,#438,#281,.T.);
#588=EDGE_CURVE('',#439,#417,#282,.T.);
#589=ORIENTED_EDGE('',*,*,#466,.F.);
#590=ORIENTED_EDGE('',*,*,#467,.T.);
#591=ORIENTED_EDGE('',*,*,#468,.F.);
#592=ORIENTED_EDGE('',*,*,#469,.F.);
#593=ORIENTED_EDGE('',*,*,#470,.F.);
#594=ORIENTED_EDGE('',*,*,#471,.F.);
#595=ORIENTED_EDGE('',*,*,#472,.F.);
#596=ORIENTED_EDGE('',*,*,#467,.F.);
#597=ORIENTED_EDGE('',*,*,#473,.F.);
#598=ORIENTED_EDGE('',*,*,#474,.T.);
#599=ORIENTED_EDGE('',*,*,#475,.F.);
#600=ORIENTED_EDGE('',*,*,#476,.F.);
#601=ORIENTED_EDGE('',*,*,#477,.F.);
#602=ORIENTED_EDGE('',*,*,#478,.T.);
#603=ORIENTED_EDGE('',*,*,#479,.F.);
#604=ORIENTED_EDGE('',*,*,#474,.F.);
#605=ORIENTED_EDGE('',*,*,#480,.F.);
#606=ORIENTED_EDGE('',*,*,#481,.T.);
#607=ORIENTED_EDGE('',*,*,#482,.F.);
#608=ORIENTED_EDGE('',*,*,#478,.F.);
#609=ORIENTED_EDGE('',*,*,#483,.F.);
#610=ORIENTED_EDGE('',*,*,#484,.T.);
#611=ORIENTED_EDGE('',*,*,#485,.F.);
#612=ORIENTED_EDGE('',*,*,#481,.F.);
#613=ORIENTED_EDGE('',*,*,#486,.F.);
#614=ORIENTED_EDGE('',*,*,#469,.T.);
#615=ORIENTED_EDGE('',*,*,#487,.F.);
#616=ORIENTED_EDGE('',*,*,#484,.F.);
#617=ORIENTED_EDGE('',*,*,#488,.F.);
#618=ORIENTED_EDGE('',*,*,#489,.T.);
#619=ORIENTED_EDGE('',*,*,#490,.F.);
#620=ORIENTED_EDGE('',*,*,#491,.F.);
#621=ORIENTED_EDGE('',*,*,#492,.F.);
#622=ORIENTED_EDGE('',*,*,#493,.T.);
#623=ORIENTED_EDGE('',*,*,#494,.F.);
#624=ORIENTED_EDGE('',*,*,#489,.F.);
#625=ORIENTED_EDGE('',*,*,#495,.F.);
#626=ORIENTED_EDGE('',*,*,#496,.T.);
#627=ORIENTED_EDGE('',*,*,#497,.F.);
#628=ORIENTED_EDGE('',*,*,#493,.F.);
#629=ORIENTED_EDGE('',*,*,#498,.F.);
#630=ORIENTED_EDGE('',*,*,#499,.T.);
#631=ORIENTED_EDGE('',*,*,#500,.F.);
#632=ORIENTED_EDGE('',*,*,#496,.F.);
#633=ORIENTED_EDGE('',*,*,#501,.F.);
#634=ORIENTED_EDGE('',*,*,#502,.T.);
#635=ORIENTED_EDGE('',*,*,#503,.F.);
#636=ORIENTED_EDGE('',*,*,#499,.F.);
#637=ORIENTED_EDGE('',*,*,#504,.F.);
#638=ORIENTED_EDGE('',*,*,#505,.F.);
#639=ORIENTED_EDGE('',*,*,#506,.F.);
#640=ORIENTED_EDGE('',*,*,#502,.F.);
#641=ORIENTED_EDGE('',*,*,#507,.F.);
#642=ORIENTED_EDGE('',*,*,#491,.T.);
#643=ORIENTED_EDGE('',*,*,#508,.F.);
#644=ORIENTED_EDGE('',*,*,#509,.F.);
#645=ORIENTED_EDGE('',*,*,#475,.T.);
#646=ORIENTED_EDGE('',*,*,#479,.T.);
#647=ORIENTED_EDGE('',*,*,#482,.T.);
#648=ORIENTED_EDGE('',*,*,#485,.T.);
#649=ORIENTED_EDGE('',*,*,#487,.T.);
#650=ORIENTED_EDGE('',*,*,#468,.T.);
#651=ORIENTED_EDGE('',*,*,#472,.T.);
#652=ORIENTED_EDGE('',*,*,#510,.F.);
#653=ORIENTED_EDGE('',*,*,#511,.F.);
#654=ORIENTED_EDGE('',*,*,#512,.T.);
#655=ORIENTED_EDGE('',*,*,#513,.T.);
#656=ORIENTED_EDGE('',*,*,#514,.F.);
#657=ORIENTED_EDGE('',*,*,#508,.T.);
#658=ORIENTED_EDGE('',*,*,#490,.T.);
#659=ORIENTED_EDGE('',*,*,#494,.T.);
#660=ORIENTED_EDGE('',*,*,#497,.T.);
#661=ORIENTED_EDGE('',*,*,#500,.T.);
#662=ORIENTED_EDGE('',*,*,#503,.T.);
#663=ORIENTED_EDGE('',*,*,#506,.T.);
#664=ORIENTED_EDGE('',*,*,#515,.F.);
#665=ORIENTED_EDGE('',*,*,#509,.T.);
#666=ORIENTED_EDGE('',*,*,#514,.T.);
#667=ORIENTED_EDGE('',*,*,#516,.T.);
#668=ORIENTED_EDGE('',*,*,#517,.T.);
#669=ORIENTED_EDGE('',*,*,#518,.T.);
#670=ORIENTED_EDGE('',*,*,#519,.T.);
#671=ORIENTED_EDGE('',*,*,#471,.T.);
#672=ORIENTED_EDGE('',*,*,#520,.T.);
#673=ORIENTED_EDGE('',*,*,#521,.T.);
#674=ORIENTED_EDGE('',*,*,#510,.T.);
#675=ORIENTED_EDGE('',*,*,#522,.T.);
#676=ORIENTED_EDGE('',*,*,#523,.T.);
#677=ORIENTED_EDGE('',*,*,#524,.F.);
#678=ORIENTED_EDGE('',*,*,#525,.T.);
#679=ORIENTED_EDGE('',*,*,#526,.F.);
#680=ORIENTED_EDGE('',*,*,#525,.F.);
#681=ORIENTED_EDGE('',*,*,#527,.F.);
#682=ORIENTED_EDGE('',*,*,#528,.T.);
#683=ORIENTED_EDGE('',*,*,#522,.F.);
#684=ORIENTED_EDGE('',*,*,#528,.F.);
#685=ORIENTED_EDGE('',*,*,#527,.T.);
#686=ORIENTED_EDGE('',*,*,#524,.T.);
#687=ORIENTED_EDGE('',*,*,#476,.T.);
#688=ORIENTED_EDGE('',*,*,#515,.T.);
#689=ORIENTED_EDGE('',*,*,#505,.T.);
#690=ORIENTED_EDGE('',*,*,#529,.T.);
#691=ORIENTED_EDGE('',*,*,#530,.F.);
#692=ORIENTED_EDGE('',*,*,#531,.T.);
#693=ORIENTED_EDGE('',*,*,#532,.F.);
#694=ORIENTED_EDGE('',*,*,#531,.F.);
#695=ORIENTED_EDGE('',*,*,#533,.F.);
#696=ORIENTED_EDGE('',*,*,#534,.T.);
#697=ORIENTED_EDGE('',*,*,#518,.F.);
#698=ORIENTED_EDGE('',*,*,#534,.F.);
#699=ORIENTED_EDGE('',*,*,#533,.T.);
#700=ORIENTED_EDGE('',*,*,#530,.T.);
#701=ORIENTED_EDGE('',*,*,#526,.T.);
#702=ORIENTED_EDGE('',*,*,#535,.F.);
#703=ORIENTED_EDGE('',*,*,#536,.T.);
#704=ORIENTED_EDGE('',*,*,#537,.F.);
#705=ORIENTED_EDGE('',*,*,#536,.F.);
#706=ORIENTED_EDGE('',*,*,#538,.F.);
#707=ORIENTED_EDGE('',*,*,#539,.T.);
#708=ORIENTED_EDGE('',*,*,#523,.F.);
#709=ORIENTED_EDGE('',*,*,#539,.F.);
#710=ORIENTED_EDGE('',*,*,#538,.T.);
#711=ORIENTED_EDGE('',*,*,#535,.T.);
#712=ORIENTED_EDGE('',*,*,#532,.T.);
#713=ORIENTED_EDGE('',*,*,#540,.F.);
#714=ORIENTED_EDGE('',*,*,#541,.T.);
#715=ORIENTED_EDGE('',*,*,#542,.F.);
#716=ORIENTED_EDGE('',*,*,#541,.F.);
#717=ORIENTED_EDGE('',*,*,#543,.F.);
#718=ORIENTED_EDGE('',*,*,#544,.T.);
#719=ORIENTED_EDGE('',*,*,#519,.F.);
#720=ORIENTED_EDGE('',*,*,#544,.F.);
#721=ORIENTED_EDGE('',*,*,#543,.T.);
#722=ORIENTED_EDGE('',*,*,#540,.T.);
#723=ORIENTED_EDGE('',*,*,#537,.T.);
#724=ORIENTED_EDGE('',*,*,#542,.T.);
#725=ORIENTED_EDGE('',*,*,#473,.T.);
#726=ORIENTED_EDGE('',*,*,#529,.F.);
#727=ORIENTED_EDGE('',*,*,#504,.T.);
#728=ORIENTED_EDGE('',*,*,#501,.T.);
#729=ORIENTED_EDGE('',*,*,#498,.T.);
#730=ORIENTED_EDGE('',*,*,#495,.T.);
#731=ORIENTED_EDGE('',*,*,#492,.T.);
#732=ORIENTED_EDGE('',*,*,#488,.T.);
#733=ORIENTED_EDGE('',*,*,#507,.T.);
#734=ORIENTED_EDGE('',*,*,#517,.F.);
#735=ORIENTED_EDGE('',*,*,#545,.F.);
#736=ORIENTED_EDGE('',*,*,#546,.T.);
#737=ORIENTED_EDGE('',*,*,#547,.T.);
#738=ORIENTED_EDGE('',*,*,#520,.F.);
#739=ORIENTED_EDGE('',*,*,#470,.T.);
#740=ORIENTED_EDGE('',*,*,#466,.T.);
#741=ORIENTED_EDGE('',*,*,#486,.T.);
#742=ORIENTED_EDGE('',*,*,#483,.T.);
#743=ORIENTED_EDGE('',*,*,#480,.T.);
#744=ORIENTED_EDGE('',*,*,#477,.T.);
#745=ORIENTED_EDGE('',*,*,#548,.F.);
#746=ORIENTED_EDGE('',*,*,#549,.T.);
#747=ORIENTED_EDGE('',*,*,#550,.F.);
#748=ORIENTED_EDGE('',*,*,#549,.F.);
#749=ORIENTED_EDGE('',*,*,#551,.F.);
#750=ORIENTED_EDGE('',*,*,#552,.T.);
#751=ORIENTED_EDGE('',*,*,#553,.T.);
#752=ORIENTED_EDGE('',*,*,#554,.F.);
#753=ORIENTED_EDGE('',*,*,#555,.F.);
#754=ORIENTED_EDGE('',*,*,#556,.T.);
#755=ORIENTED_EDGE('',*,*,#557,.T.);
#756=ORIENTED_EDGE('',*,*,#552,.F.);
#757=ORIENTED_EDGE('',*,*,#558,.F.);
#758=ORIENTED_EDGE('',*,*,#559,.T.);
#759=ORIENTED_EDGE('',*,*,#560,.T.);
#760=ORIENTED_EDGE('',*,*,#556,.F.);
#761=ORIENTED_EDGE('',*,*,#561,.F.);
#762=ORIENTED_EDGE('',*,*,#562,.T.);
#763=ORIENTED_EDGE('',*,*,#563,.T.);
#764=ORIENTED_EDGE('',*,*,#559,.F.);
#765=ORIENTED_EDGE('',*,*,#564,.F.);
#766=ORIENTED_EDGE('',*,*,#565,.T.);
#767=ORIENTED_EDGE('',*,*,#566,.T.);
#768=ORIENTED_EDGE('',*,*,#562,.F.);
#769=ORIENTED_EDGE('',*,*,#567,.F.);
#770=ORIENTED_EDGE('',*,*,#554,.T.);
#771=ORIENTED_EDGE('',*,*,#568,.T.);
#772=ORIENTED_EDGE('',*,*,#565,.F.);
#773=ORIENTED_EDGE('',*,*,#568,.F.);
#774=ORIENTED_EDGE('',*,*,#553,.F.);
#775=ORIENTED_EDGE('',*,*,#557,.F.);
#776=ORIENTED_EDGE('',*,*,#560,.F.);
#777=ORIENTED_EDGE('',*,*,#563,.F.);
#778=ORIENTED_EDGE('',*,*,#566,.F.);
#779=ORIENTED_EDGE('',*,*,#548,.T.);
#780=ORIENTED_EDGE('',*,*,#569,.F.);
#781=ORIENTED_EDGE('',*,*,#570,.T.);
#782=ORIENTED_EDGE('',*,*,#571,.F.);
#783=ORIENTED_EDGE('',*,*,#572,.F.);
#784=ORIENTED_EDGE('',*,*,#573,.F.);
#785=ORIENTED_EDGE('',*,*,#572,.T.);
#786=ORIENTED_EDGE('',*,*,#574,.F.);
#787=ORIENTED_EDGE('',*,*,#575,.F.);
#788=ORIENTED_EDGE('',*,*,#576,.F.);
#789=ORIENTED_EDGE('',*,*,#575,.T.);
#790=ORIENTED_EDGE('',*,*,#577,.F.);
#791=ORIENTED_EDGE('',*,*,#578,.F.);
#792=ORIENTED_EDGE('',*,*,#579,.F.);
#793=ORIENTED_EDGE('',*,*,#578,.T.);
#794=ORIENTED_EDGE('',*,*,#580,.F.);
#795=ORIENTED_EDGE('',*,*,#570,.F.);
#796=ORIENTED_EDGE('',*,*,#551,.T.);
#797=ORIENTED_EDGE('',*,*,#567,.T.);
#798=ORIENTED_EDGE('',*,*,#564,.T.);
#799=ORIENTED_EDGE('',*,*,#561,.T.);
#800=ORIENTED_EDGE('',*,*,#558,.T.);
#801=ORIENTED_EDGE('',*,*,#555,.T.);
#802=ORIENTED_EDGE('',*,*,#580,.T.);
#803=ORIENTED_EDGE('',*,*,#577,.T.);
#804=ORIENTED_EDGE('',*,*,#574,.T.);
#805=ORIENTED_EDGE('',*,*,#571,.T.);
#806=ORIENTED_EDGE('',*,*,#581,.T.);
#807=ORIENTED_EDGE('',*,*,#582,.T.);
#808=ORIENTED_EDGE('',*,*,#583,.T.);
#809=ORIENTED_EDGE('',*,*,#584,.T.);
#810=ORIENTED_EDGE('',*,*,#585,.T.);
#811=ORIENTED_EDGE('',*,*,#582,.F.);
#812=ORIENTED_EDGE('',*,*,#550,.T.);
#813=ORIENTED_EDGE('',*,*,#585,.F.);
#814=ORIENTED_EDGE('',*,*,#586,.T.);
#815=ORIENTED_EDGE('',*,*,#583,.F.);
#816=ORIENTED_EDGE('',*,*,#581,.F.);
#817=ORIENTED_EDGE('',*,*,#586,.F.);
#818=ORIENTED_EDGE('',*,*,#584,.F.);
#819=ORIENTED_EDGE('',*,*,#587,.T.);
#820=ORIENTED_EDGE('',*,*,#545,.T.);
#821=ORIENTED_EDGE('',*,*,#516,.F.);
#822=ORIENTED_EDGE('',*,*,#513,.F.);
#823=ORIENTED_EDGE('',*,*,#588,.T.);
#824=ORIENTED_EDGE('',*,*,#511,.T.);
#825=ORIENTED_EDGE('',*,*,#521,.F.);
#826=ORIENTED_EDGE('',*,*,#547,.F.);
#827=ORIENTED_EDGE('',*,*,#546,.F.);
#828=ORIENTED_EDGE('',*,*,#587,.F.);
#829=ORIENTED_EDGE('',*,*,#512,.F.);
#830=ORIENTED_EDGE('',*,*,#588,.F.);
#831=ORIENTED_EDGE('',*,*,#569,.T.);
#832=ORIENTED_EDGE('',*,*,#573,.T.);
#833=ORIENTED_EDGE('',*,*,#576,.T.);
#834=ORIENTED_EDGE('',*,*,#579,.T.);
#835=PLANE('',#946);
#836=PLANE('',#947);
#837=PLANE('',#948);
#838=PLANE('',#949);
#839=PLANE('',#950);
#840=PLANE('',#951);
#841=PLANE('',#952);
#842=PLANE('',#953);
#843=PLANE('',#954);
#844=PLANE('',#955);
#845=PLANE('',#956);
#846=PLANE('',#957);
#847=PLANE('',#958);
#848=PLANE('',#959);
#849=PLANE('',#960);
#850=PLANE('',#961);
#851=PLANE('',#964);
#852=PLANE('',#972);
#853=PLANE('',#973);
#854=PLANE('',#979);
#855=PLANE('',#980);
#856=PLANE('',#986);
#857=PLANE('',#987);
#858=PLANE('',#993);
#859=PLANE('',#994);
#860=PLANE('',#995);
#861=PLANE('',#996);
#862=PLANE('',#1000);
#863=PLANE('',#1001);
#864=PLANE('',#1002);
#865=PLANE('',#1003);
#866=PLANE('',#1004);
#867=PLANE('',#1005);
#868=PLANE('',#1006);
#869=PLANE('',#1007);
#870=PLANE('',#1011);
#871=PLANE('',#1012);
#872=PLANE('',#1013);
#873=PLANE('',#1015);
#874=PLANE('',#1018);
#875=PLANE('',#1019);
#876=PLANE('',#1020);
#877=PLANE('',#1021);
#878=ADVANCED_FACE('',(#61),#835,.F.);
#879=ADVANCED_FACE('',(#62),#836,.F.);
#880=ADVANCED_FACE('',(#63),#837,.F.);
#881=ADVANCED_FACE('',(#64),#838,.F.);
#882=ADVANCED_FACE('',(#65),#839,.F.);
#883=ADVANCED_FACE('',(#66),#840,.F.);
#884=ADVANCED_FACE('',(#67),#841,.F.);
#885=ADVANCED_FACE('',(#68),#842,.F.);
#886=ADVANCED_FACE('',(#69),#843,.F.);
#887=ADVANCED_FACE('',(#70),#844,.F.);
#888=ADVANCED_FACE('',(#71),#845,.F.);
#889=ADVANCED_FACE('',(#72),#846,.F.);
#890=ADVANCED_FACE('',(#73),#847,.F.);
#891=ADVANCED_FACE('',(#74),#848,.F.);
#892=ADVANCED_FACE('',(#75),#849,.T.);
#893=ADVANCED_FACE('',(#76,#26,#27),#850,.T.);
#894=ADVANCED_FACE('',(#77,#28,#29),#851,.T.);
#895=ADVANCED_FACE('',(#78),#15,.F.);
#896=ADVANCED_FACE('',(#79),#16,.T.);
#897=ADVANCED_FACE('',(#80,#30),#852,.T.);
#898=ADVANCED_FACE('',(#81),#853,.T.);
#899=ADVANCED_FACE('',(#82),#17,.F.);
#900=ADVANCED_FACE('',(#83),#18,.T.);
#901=ADVANCED_FACE('',(#84,#31),#854,.T.);
#902=ADVANCED_FACE('',(#85),#855,.T.);
#903=ADVANCED_FACE('',(#86),#19,.F.);
#904=ADVANCED_FACE('',(#87),#20,.T.);
#905=ADVANCED_FACE('',(#88,#32),#856,.T.);
#906=ADVANCED_FACE('',(#89),#857,.T.);
#907=ADVANCED_FACE('',(#90),#21,.F.);
#908=ADVANCED_FACE('',(#91),#22,.T.);
#909=ADVANCED_FACE('',(#92,#33),#858,.T.);
#910=ADVANCED_FACE('',(#93),#859,.T.);
#911=ADVANCED_FACE('',(#94),#860,.T.);
#912=ADVANCED_FACE('',(#95),#861,.T.);
#913=ADVANCED_FACE('',(#96),#23,.F.);
#914=ADVANCED_FACE('',(#97),#862,.F.);
#915=ADVANCED_FACE('',(#98),#863,.F.);
#916=ADVANCED_FACE('',(#99),#864,.F.);
#917=ADVANCED_FACE('',(#100),#865,.F.);
#918=ADVANCED_FACE('',(#101),#866,.F.);
#919=ADVANCED_FACE('',(#102),#867,.F.);
#920=ADVANCED_FACE('',(#103,#34),#868,.F.);
#921=ADVANCED_FACE('',(#104),#869,.T.);
#922=ADVANCED_FACE('',(#105),#24,.T.);
#923=ADVANCED_FACE('',(#106),#870,.T.);
#924=ADVANCED_FACE('',(#107,#35),#871,.T.);
#925=ADVANCED_FACE('',(#108,#36),#872,.T.);
#926=ADVANCED_FACE('',(#109,#37),#873,.F.);
#927=ADVANCED_FACE('',(#110),#25,.F.);
#928=ADVANCED_FACE('',(#111),#874,.T.);
#929=ADVANCED_FACE('',(#112),#875,.T.);
#930=ADVANCED_FACE('',(#113),#876,.T.);
#931=ADVANCED_FACE('',(#114,#38),#877,.F.);
#932=CLOSED_SHELL('',(#878,#879,#880,#881,#882,#883,#884,#885,#886,#887,
#888,#889,#890,#891,#892,#893,#894,#895,#896,#897,#898,#899,#900,#901,#902,
#903,#904,#905,#906,#907,#908,#909,#910,#911,#912,#913,#914,#915,#916,#917,
#918,#919,#920,#921,#922,#923,#924,#925,#926,#927,#928,#929,#930,#931));
#933=DERIVED_UNIT_ELEMENT(#935,1.);
#934=DERIVED_UNIT_ELEMENT(#1542,-3.);
#935=(
MASS_UNIT()
NAMED_UNIT(*)
SI_UNIT(.KILO.,.GRAM.)
);
#936=DERIVED_UNIT((#933,#934));
#937=MEASURE_REPRESENTATION_ITEM('density measure',
POSITIVE_RATIO_MEASURE(7850.),#936);
#938=PROPERTY_DEFINITION_REPRESENTATION(#943,#940);
#939=PROPERTY_DEFINITION_REPRESENTATION(#944,#941);
#940=REPRESENTATION('material name',(#942),#1539);
#941=REPRESENTATION('density',(#937),#1539);
#942=DESCRIPTIVE_REPRESENTATION_ITEM('Steel','Steel');
#943=PROPERTY_DEFINITION('material property','material name',#1549);
#944=PROPERTY_DEFINITION('material property','density of part',#1549);
#945=AXIS2_PLACEMENT_3D('',#1277,#1022,#1023);
#946=AXIS2_PLACEMENT_3D('',#1278,#1024,#1025);
#947=AXIS2_PLACEMENT_3D('',#1287,#1030,#1031);
#948=AXIS2_PLACEMENT_3D('',#1293,#1035,#1036);
#949=AXIS2_PLACEMENT_3D('',#1302,#1041,#1042);
#950=AXIS2_PLACEMENT_3D('',#1308,#1046,#1047);
#951=AXIS2_PLACEMENT_3D('',#1314,#1051,#1052);
#952=AXIS2_PLACEMENT_3D('',#1320,#1056,#1057);
#953=AXIS2_PLACEMENT_3D('',#1323,#1060,#1061);
#954=AXIS2_PLACEMENT_3D('',#1332,#1066,#1067);
#955=AXIS2_PLACEMENT_3D('',#1338,#1071,#1072);
#956=AXIS2_PLACEMENT_3D('',#1344,#1076,#1077);
#957=AXIS2_PLACEMENT_3D('',#1350,#1081,#1082);
#958=AXIS2_PLACEMENT_3D('',#1356,#1086,#1087);
#959=AXIS2_PLACEMENT_3D('',#1362,#1091,#1092);
#960=AXIS2_PLACEMENT_3D('',#1368,#1096,#1097);
#961=AXIS2_PLACEMENT_3D('',#1379,#1104,#1105);
#962=AXIS2_PLACEMENT_3D('',#1384,#1108,#1109);
#963=AXIS2_PLACEMENT_3D('',#1386,#1110,#1111);
#964=AXIS2_PLACEMENT_3D('',#1387,#1112,#1113);
#965=AXIS2_PLACEMENT_3D('',#1392,#1116,#1117);
#966=AXIS2_PLACEMENT_3D('',#1394,#1118,#1119);
#967=AXIS2_PLACEMENT_3D('',#1395,#1120,#1121);
#968=AXIS2_PLACEMENT_3D('',#1397,#1122,#1123);
#969=AXIS2_PLACEMENT_3D('',#1400,#1125,#1126);
#970=AXIS2_PLACEMENT_3D('',#1401,#1127,#1128);
#971=AXIS2_PLACEMENT_3D('',#1403,#1129,#1130);
#972=AXIS2_PLACEMENT_3D('',#1405,#1132,#1133);
#973=AXIS2_PLACEMENT_3D('',#1406,#1134,#1135);
#974=AXIS2_PLACEMENT_3D('',#1408,#1137,#1138);
#975=AXIS2_PLACEMENT_3D('',#1410,#1139,#1140);
#976=AXIS2_PLACEMENT_3D('',#1413,#1142,#1143);
#977=AXIS2_PLACEMENT_3D('',#1414,#1144,#1145);
#978=AXIS2_PLACEMENT_3D('',#1416,#1146,#1147);
#979=AXIS2_PLACEMENT_3D('',#1418,#1149,#1150);
#980=AXIS2_PLACEMENT_3D('',#1419,#1151,#1152);
#981=AXIS2_PLACEMENT_3D('',#1420,#1153,#1154);
#982=AXIS2_PLACEMENT_3D('',#1422,#1155,#1156);
#983=AXIS2_PLACEMENT_3D('',#1425,#1158,#1159);
#984=AXIS2_PLACEMENT_3D('',#1426,#1160,#1161);
#985=AXIS2_PLACEMENT_3D('',#1428,#1162,#1163);
#986=AXIS2_PLACEMENT_3D('',#1430,#1165,#1166);
#987=AXIS2_PLACEMENT_3D('',#1431,#1167,#1168);
#988=AXIS2_PLACEMENT_3D('',#1432,#1169,#1170);
#989=AXIS2_PLACEMENT_3D('',#1434,#1171,#1172);
#990=AXIS2_PLACEMENT_3D('',#1437,#1174,#1175);
#991=AXIS2_PLACEMENT_3D('',#1438,#1176,#1177);
#992=AXIS2_PLACEMENT_3D('',#1440,#1178,#1179);
#993=AXIS2_PLACEMENT_3D('',#1442,#1181,#1182);
#994=AXIS2_PLACEMENT_3D('',#1443,#1183,#1184);
#995=AXIS2_PLACEMENT_3D('',#1444,#1185,#1186);
#996=AXIS2_PLACEMENT_3D('',#1445,#1187,#1188);
#997=AXIS2_PLACEMENT_3D('',#1451,#1192,#1193);
#998=AXIS2_PLACEMENT_3D('',#1453,#1194,#1195);
#999=AXIS2_PLACEMENT_3D('',#1456,#1197,#1198);
#1000=AXIS2_PLACEMENT_3D('',#1457,#1199,#1200);
#1001=AXIS2_PLACEMENT_3D('',#1466,#1205,#1206);
#1002=AXIS2_PLACEMENT_3D('',#1472,#1210,#1211);
#1003=AXIS2_PLACEMENT_3D('',#1478,#1215,#1216);
#1004=AXIS2_PLACEMENT_3D('',#1484,#1220,#1221);
#1005=AXIS2_PLACEMENT_3D('',#1490,#1225,#1226);
#1006=AXIS2_PLACEMENT_3D('',#1493,#1229,#1230);
#1007=AXIS2_PLACEMENT_3D('',#1494,#1231,#1232);
#1008=AXIS2_PLACEMENT_3D('',#1503,#1237,#1238);
#1009=AXIS2_PLACEMENT_3D('',#1505,#1239,#1240);
#1010=AXIS2_PLACEMENT_3D('',#1507,#1241,#1242);
#1011=AXIS2_PLACEMENT_3D('',#1509,#1244,#1245);
#1012=AXIS2_PLACEMENT_3D('',#1515,#1249,#1250);
#1013=AXIS2_PLACEMENT_3D('',#1518,#1253,#1254);
#1014=AXIS2_PLACEMENT_3D('',#1521,#1255,#1256);
#1015=AXIS2_PLACEMENT_3D('',#1523,#1258,#1259);
#1016=AXIS2_PLACEMENT_3D('',#1529,#1263,#1264);
#1017=AXIS2_PLACEMENT_3D('',#1530,#1265,#1266);
#1018=AXIS2_PLACEMENT_3D('',#1531,#1267,#1268);
#1019=AXIS2_PLACEMENT_3D('',#1532,#1269,#1270);
#1020=AXIS2_PLACEMENT_3D('',#1534,#1272,#1273);
#1021=AXIS2_PLACEMENT_3D('',#1536,#1275,#1276);
#1022=DIRECTION('axis',(0.,0.,1.));
#1023=DIRECTION('refdir',(1.,0.,0.));
#1024=DIRECTION('center_axis',(0.,0.,1.));
#1025=DIRECTION('ref_axis',(0.,-1.,0.));
#1026=DIRECTION('',(0.,-1.,0.));
#1027=DIRECTION('',(1.,0.,0.));
#1028=DIRECTION('',(0.,1.,0.));
#1029=DIRECTION('',(1.,0.,0.));
#1030=DIRECTION('center_axis',(0.,-1.,0.));
#1031=DIRECTION('ref_axis',(0.,0.,-1.));
#1032=DIRECTION('',(0.,0.,-1.));
#1033=DIRECTION('',(-1.,0.,0.));
#1034=DIRECTION('',(0.,0.,1.));
#1035=DIRECTION('center_axis',(0.,1.,0.));
#1036=DIRECTION('ref_axis',(0.,0.,1.));
#1037=DIRECTION('',(0.,0.,1.));
#1038=DIRECTION('',(1.,0.,0.));
#1039=DIRECTION('',(0.,0.,-1.));
#1040=DIRECTION('',(1.,0.,0.));
#1041=DIRECTION('center_axis',(0.,0.,1.));
#1042=DIRECTION('ref_axis',(0.,-1.,0.));
#1043=DIRECTION('',(0.,-1.,0.));
#1044=DIRECTION('',(1.,0.,0.));
#1045=DIRECTION('',(0.,1.,0.));
#1046=DIRECTION('center_axis',(0.,1.,0.));
#1047=DIRECTION('ref_axis',(0.,0.,1.));
#1048=DIRECTION('',(0.,0.,1.));
#1049=DIRECTION('',(1.,0.,0.));
#1050=DIRECTION('',(0.,0.,-1.));
#1051=DIRECTION('center_axis',(0.,0.,-1.));
#1052=DIRECTION('ref_axis',(0.,1.,0.));
#1053=DIRECTION('',(0.,1.,0.));
#1054=DIRECTION('',(1.,0.,0.));
#1055=DIRECTION('',(0.,-1.,0.));
#1056=DIRECTION('center_axis',(0.,-1.,0.));
#1057=DIRECTION('ref_axis',(0.,0.,-1.));
#1058=DIRECTION('',(0.,0.,-1.));
#1059=DIRECTION('',(0.,0.,1.));
#1060=DIRECTION('center_axis',(0.,0.,1.));
#1061=DIRECTION('ref_axis',(0.,-1.,0.));
#1062=DIRECTION('',(0.,-1.,0.));
#1063=DIRECTION('',(1.,0.,0.));
#1064=DIRECTION('',(0.,1.,0.));
#1065=DIRECTION('',(1.,0.,0.));
#1066=DIRECTION('center_axis',(0.,1.,0.));
#1067=DIRECTION('ref_axis',(0.,0.,1.));
#1068=DIRECTION('',(0.,0.,1.));
#1069=DIRECTION('',(1.,0.,0.));
#1070=DIRECTION('',(0.,0.,-1.));
#1071=DIRECTION('center_axis',(0.,-6.27244646680879E-17,-1.));
#1072=DIRECTION('ref_axis',(0.,1.,-6.27244646680879E-17));
#1073=DIRECTION('',(0.,1.,-6.27244646680879E-17));
#1074=DIRECTION('',(1.,0.,0.));
#1075=DIRECTION('',(0.,-1.,6.27244646680879E-17));
#1076=DIRECTION('center_axis',(0.,-1.,0.));
#1077=DIRECTION('ref_axis',(0.,0.,-1.));
#1078=DIRECTION('',(0.,0.,-1.));
#1079=DIRECTION('',(1.,0.,0.));
#1080=DIRECTION('',(0.,0.,1.));
#1081=DIRECTION('center_axis',(0.,0.,1.));
#1082=DIRECTION('ref_axis',(0.,-1.,0.));
#1083=DIRECTION('',(0.,-1.,0.));
#1084=DIRECTION('',(1.,0.,0.));
#1085=DIRECTION('',(0.,1.,0.));
#1086=DIRECTION('center_axis',(0.,-1.,0.));
#1087=DIRECTION('ref_axis',(0.,0.,-1.));
#1088=DIRECTION('',(0.,0.,-1.));
#1089=DIRECTION('',(-1.,0.,0.));
#1090=DIRECTION('',(0.,0.,1.));
#1091=DIRECTION('center_axis',(0.,1.,0.));
#1092=DIRECTION('ref_axis',(0.,0.,1.));
#1093=DIRECTION('',(0.,0.,1.));
#1094=DIRECTION('',(0.,0.,-1.));
#1095=DIRECTION('',(1.,0.,0.));
#1096=DIRECTION('center_axis',(1.,0.,0.));
#1097=DIRECTION('ref_axis',(0.,1.,0.));
#1098=DIRECTION('',(0.,1.,0.));
#1099=DIRECTION('',(0.,0.,1.));
#1100=DIRECTION('',(0.,1.,0.));
#1101=DIRECTION('',(0.,0.,1.));
#1102=DIRECTION('',(0.,1.,0.));
#1103=DIRECTION('',(0.,1.,0.));
#1104=DIRECTION('center_axis',(0.,0.,1.));
#1105=DIRECTION('ref_axis',(1.,0.,0.));
#1106=DIRECTION('',(-1.,0.,0.));
#1107=DIRECTION('',(0.,-1.,0.));
#1108=DIRECTION('center_axis',(0.,0.,-1.));
#1109=DIRECTION('ref_axis',(-1.,0.,0.));
#1110=DIRECTION('center_axis',(0.,0.,-1.));
#1111=DIRECTION('ref_axis',(-1.,0.,0.));
#1112=DIRECTION('center_axis',(0.,0.,1.));
#1113=DIRECTION('ref_axis',(1.,0.,0.));
#1114=DIRECTION('',(0.,-1.,0.));
#1115=DIRECTION('',(1.,0.,0.));
#1116=DIRECTION('center_axis',(0.,0.,-1.));
#1117=DIRECTION('ref_axis',(-1.,0.,0.));
#1118=DIRECTION('center_axis',(0.,0.,-1.));
#1119=DIRECTION('ref_axis',(-1.,0.,0.));
#1120=DIRECTION('center_axis',(0.,0.,1.));
#1121=DIRECTION('ref_axis',(-1.,0.,0.));
#1122=DIRECTION('center_axis',(0.,0.,-1.));
#1123=DIRECTION('ref_axis',(-1.,0.,0.));
#1124=DIRECTION('',(0.,0.,-1.));
#1125=DIRECTION('center_axis',(0.,0.,1.));
#1126=DIRECTION('ref_axis',(-1.,0.,0.));
#1127=DIRECTION('center_axis',(0.,0.,1.));
#1128=DIRECTION('ref_axis',(-1.,0.,0.));
#1129=DIRECTION('center_axis',(0.,0.,1.));
#1130=DIRECTION('ref_axis',(-1.,0.,0.));
#1131=DIRECTION('',(0.,0.,-1.));
#1132=DIRECTION('center_axis',(0.,0.,1.));
#1133=DIRECTION('ref_axis',(-1.,0.,0.));
#1134=DIRECTION('center_axis',(0.,0.,1.));
#1135=DIRECTION('ref_axis',(1.,0.,0.));
#1136=DIRECTION('',(0.,-1.,0.));
#1137=DIRECTION('center_axis',(0.,0.,1.));
#1138=DIRECTION('ref_axis',(-1.,0.,0.));
#1139=DIRECTION('center_axis',(0.,0.,-1.));
#1140=DIRECTION('ref_axis',(-1.,0.,0.));
#1141=DIRECTION('',(0.,0.,-1.));
#1142=DIRECTION('center_axis',(0.,0.,1.));
#1143=DIRECTION('ref_axis',(-1.,0.,0.));
#1144=DIRECTION('center_axis',(0.,0.,1.));
#1145=DIRECTION('ref_axis',(-1.,0.,0.));
#1146=DIRECTION('center_axis',(0.,0.,1.));
#1147=DIRECTION('ref_axis',(-1.,0.,0.));
#1148=DIRECTION('',(0.,0.,-1.));
#1149=DIRECTION('center_axis',(0.,0.,1.));
#1150=DIRECTION('ref_axis',(-1.,0.,0.));
#1151=DIRECTION('center_axis',(0.,0.,1.));
#1152=DIRECTION('ref_axis',(1.,0.,0.));
#1153=DIRECTION('center_axis',(0.,0.,1.));
#1154=DIRECTION('ref_axis',(-1.,0.,0.));
#1155=DIRECTION('center_axis',(0.,0.,-1.));
#1156=DIRECTION('ref_axis',(-1.,0.,0.));
#1157=DIRECTION('',(0.,0.,-1.));
#1158=DIRECTION('center_axis',(0.,0.,1.));
#1159=DIRECTION('ref_axis',(-1.,0.,0.));
#1160=DIRECTION('center_axis',(0.,0.,1.));
#1161=DIRECTION('ref_axis',(-1.,0.,0.));
#1162=DIRECTION('center_axis',(0.,0.,1.));
#1163=DIRECTION('ref_axis',(-1.,0.,0.));
#1164=DIRECTION('',(0.,0.,-1.));
#1165=DIRECTION('center_axis',(0.,0.,1.));
#1166=DIRECTION('ref_axis',(-1.,0.,0.));
#1167=DIRECTION('center_axis',(0.,0.,1.));
#1168=DIRECTION('ref_axis',(1.,0.,0.));
#1169=DIRECTION('center_axis',(0.,0.,1.));
#1170=DIRECTION('ref_axis',(-1.,0.,0.));
#1171=DIRECTION('center_axis',(0.,0.,-1.));
#1172=DIRECTION('ref_axis',(-1.,0.,0.));
#1173=DIRECTION('',(0.,0.,-1.));
#1174=DIRECTION('center_axis',(0.,0.,1.));
#1175=DIRECTION('ref_axis',(-1.,0.,0.));
#1176=DIRECTION('center_axis',(0.,0.,1.));
#1177=DIRECTION('ref_axis',(-1.,0.,0.));
#1178=DIRECTION('center_axis',(0.,0.,1.));
#1179=DIRECTION('ref_axis',(-1.,0.,0.));
#1180=DIRECTION('',(0.,0.,-1.));
#1181=DIRECTION('center_axis',(0.,0.,1.));
#1182=DIRECTION('ref_axis',(-1.,0.,0.));
#1183=DIRECTION('center_axis',(0.,0.,1.));
#1184=DIRECTION('ref_axis',(1.,0.,0.));
#1185=DIRECTION('center_axis',(0.,0.,1.));
#1186=DIRECTION('ref_axis',(1.,0.,0.));
#1187=DIRECTION('center_axis',(-1.,0.,0.));
#1188=DIRECTION('ref_axis',(0.,-1.,0.));
#1189=DIRECTION('',(0.,0.,1.));
#1190=DIRECTION('',(0.,-1.,0.));
#1191=DIRECTION('',(0.,0.,1.));
#1192=DIRECTION('center_axis',(1.,0.,0.));
#1193=DIRECTION('ref_axis',(0.,-1.,0.));
#1194=DIRECTION('center_axis',(1.,0.,0.));
#1195=DIRECTION('ref_axis',(0.,-1.,0.));
#1196=DIRECTION('',(1.,0.,0.));
#1197=DIRECTION('center_axis',(-1.,0.,0.));
#1198=DIRECTION('ref_axis',(0.,-1.,0.));
#1199=DIRECTION('center_axis',(0.,-0.861269931914563,-0.508147719054099));
#1200=DIRECTION('ref_axis',(0.,0.508147719054099,-0.861269931914563));
#1201=DIRECTION('',(0.,0.508147719054099,-0.861269931914563));
#1202=DIRECTION('',(1.,0.,0.));
#1203=DIRECTION('',(0.,0.508147719054099,-0.861269931914563));
#1204=DIRECTION('',(1.,0.,0.));
#1205=DIRECTION('center_axis',(0.,-0.870703799533249,0.491807781026656));
#1206=DIRECTION('ref_axis',(0.,-0.491807781026656,-0.870703799533249));
#1207=DIRECTION('',(0.,-0.491807781026656,-0.870703799533249));
#1208=DIRECTION('',(1.,0.,0.));
#1209=DIRECTION('',(0.,-0.491807781026656,-0.870703799533249));
#1210=DIRECTION('center_axis',(0.,-0.00943386761868578,0.999955500080755));
#1211=DIRECTION('ref_axis',(0.,-0.999955500080755,-0.00943386761868578));
#1212=DIRECTION('',(0.,-0.999955500080755,-0.00943386761868578));
#1213=DIRECTION('',(1.,0.,0.));
#1214=DIRECTION('',(0.,-0.999955500080755,-0.00943386761868578));
#1215=DIRECTION('center_axis',(0.,0.861269931914563,0.508147719054099));
#1216=DIRECTION('ref_axis',(0.,-0.508147719054099,0.861269931914563));
#1217=DIRECTION('',(0.,-0.508147719054099,0.861269931914563));
#1218=DIRECTION('',(1.,0.,0.));
#1219=DIRECTION('',(0.,-0.508147719054099,0.861269931914563));
#1220=DIRECTION('center_axis',(0.,0.870703799533249,-0.491807781026656));
#1221=DIRECTION('ref_axis',(0.,0.491807781026656,0.870703799533249));
#1222=DIRECTION('',(0.,0.491807781026656,0.870703799533249));
#1223=DIRECTION('',(1.,0.,0.));
#1224=DIRECTION('',(0.,0.491807781026656,0.870703799533249));
#1225=DIRECTION('center_axis',(0.,0.00943386761868578,-0.999955500080755));
#1226=DIRECTION('ref_axis',(0.,0.999955500080755,0.00943386761868578));
#1227=DIRECTION('',(0.,0.999955500080755,0.00943386761868578));
#1228=DIRECTION('',(0.,0.999955500080755,0.00943386761868578));
#1229=DIRECTION('center_axis',(1.,0.,0.));
#1230=DIRECTION('ref_axis',(0.,0.,-1.));
#1231=DIRECTION('center_axis',(0.,-1.,0.));
#1232=DIRECTION('ref_axis',(-1.,0.,0.));
#1233=DIRECTION('',(1.,0.,0.));
#1234=DIRECTION('',(0.,0.,-1.));
#1235=DIRECTION('',(-1.,0.,0.));
#1236=DIRECTION('',(0.,0.,-1.));
#1237=DIRECTION('center_axis',(0.,0.,-1.));
#1238=DIRECTION('ref_axis',(0.,1.,0.));
#1239=DIRECTION('center_axis',(0.,0.,1.));
#1240=DIRECTION('ref_axis',(0.,1.,0.));
#1241=DIRECTION('center_axis',(0.,0.,-1.));
#1242=DIRECTION('ref_axis',(0.,1.,0.));
#1243=DIRECTION('',(0.,0.,-1.));
#1244=DIRECTION('center_axis',(0.,1.,0.));
#1245=DIRECTION('ref_axis',(1.,0.,0.));
#1246=DIRECTION('',(-1.,0.,0.));
#1247=DIRECTION('',(1.,0.,0.));
#1248=DIRECTION('',(0.,0.,-1.));
#1249=DIRECTION('center_axis',(-1.,0.,0.));
#1250=DIRECTION('ref_axis',(0.,1.,0.));
#1251=DIRECTION('',(0.,-1.,0.));
#1252=DIRECTION('',(0.,1.,0.));
#1253=DIRECTION('center_axis',(0.,0.,-1.));
#1254=DIRECTION('ref_axis',(1.,0.,0.));
#1255=DIRECTION('center_axis',(0.,0.,1.));
#1256=DIRECTION('ref_axis',(-0.807692307692308,0.589604219875226,0.));
#1257=DIRECTION('',(0.,-1.,0.));
#1258=DIRECTION('center_axis',(-1.,0.,0.));
#1259=DIRECTION('ref_axis',(0.,-1.,0.));
#1260=DIRECTION('',(0.,0.,1.));
#1261=DIRECTION('',(0.,-1.,0.));
#1262=DIRECTION('',(0.,0.,-1.));
#1263=DIRECTION('center_axis',(0.,0.,1.));
#1264=DIRECTION('ref_axis',(1.,1.06752213906265E-16,0.));
#1265=DIRECTION('center_axis',(0.,0.,1.));
#1266=DIRECTION('ref_axis',(-0.807692307692308,0.589604219875226,0.));
#1267=DIRECTION('center_axis',(0.,0.,-1.));
#1268=DIRECTION('ref_axis',(1.,0.,0.));
#1269=DIRECTION('center_axis',(0.,1.,0.));
#1270=DIRECTION('ref_axis',(-1.,0.,0.));
#1271=DIRECTION('',(-1.,0.,0.));
#1272=DIRECTION('center_axis',(0.,-1.,0.));
#1273=DIRECTION('ref_axis',(1.,0.,0.));
#1274=DIRECTION('',(1.,0.,0.));
#1275=DIRECTION('center_axis',(0.,0.,1.));
#1276=DIRECTION('ref_axis',(1.,0.,0.));
#1277=CARTESIAN_POINT('',(0.,0.,0.));
#1278=CARTESIAN_POINT('Origin',(0.,30.75,7.5));
#1279=CARTESIAN_POINT('',(0.,30.75,7.5));
#1280=CARTESIAN_POINT('',(0.,25.75,7.5));
#1281=CARTESIAN_POINT('',(0.,62.775,7.5));
#1282=CARTESIAN_POINT('',(69.3,30.75,7.5));
#1283=CARTESIAN_POINT('',(0.,30.75,7.5));
#1284=CARTESIAN_POINT('',(69.3,25.75,7.5));
#1285=CARTESIAN_POINT('',(69.3,15.375,7.5));
#1286=CARTESIAN_POINT('',(0.,25.75,7.5));
#1287=CARTESIAN_POINT('Origin',(0.,30.75,10.));
#1288=CARTESIAN_POINT('',(0.,30.75,10.));
#1289=CARTESIAN_POINT('',(0.,30.75,5.));
#1290=CARTESIAN_POINT('',(69.3,30.75,10.));
#1291=CARTESIAN_POINT('',(17.325,30.75,10.));
#1292=CARTESIAN_POINT('',(69.3,30.75,5.));
#1293=CARTESIAN_POINT('Origin',(0.,38.45,7.5));
#1294=CARTESIAN_POINT('',(0.,38.45,7.5));
#1295=CARTESIAN_POINT('',(0.,38.45,10.));
#1296=CARTESIAN_POINT('',(0.,38.45,3.75));
#1297=CARTESIAN_POINT('',(69.3,38.45,7.5));
#1298=CARTESIAN_POINT('',(0.,38.45,7.5));
#1299=CARTESIAN_POINT('',(69.3,38.45,10.));
#1300=CARTESIAN_POINT('',(69.3,38.45,3.75));
#1301=CARTESIAN_POINT('',(17.325,38.45,10.));
#1302=CARTESIAN_POINT('Origin',(0.,43.45,7.5));
#1303=CARTESIAN_POINT('',(0.,43.45,7.5));
#1304=CARTESIAN_POINT('',(0.,69.125,7.5));
#1305=CARTESIAN_POINT('',(69.3,43.45,7.5));
#1306=CARTESIAN_POINT('',(0.,43.45,7.5));
#1307=CARTESIAN_POINT('',(69.3,21.725,7.5));
#1308=CARTESIAN_POINT('Origin',(0.,43.45,4.8));
#1309=CARTESIAN_POINT('',(0.,43.45,4.8));
#1310=CARTESIAN_POINT('',(0.,43.45,2.4));
#1311=CARTESIAN_POINT('',(69.3,43.45,4.8));
#1312=CARTESIAN_POINT('',(0.,43.45,4.8));
#1313=CARTESIAN_POINT('',(69.3,43.45,2.4));
#1314=CARTESIAN_POINT('Origin',(0.,25.75,4.8));
#1315=CARTESIAN_POINT('',(0.,25.75,4.8));
#1316=CARTESIAN_POINT('',(0.,60.275,4.8));
#1317=CARTESIAN_POINT('',(69.3,25.75,4.8));
#1318=CARTESIAN_POINT('',(0.,25.75,4.8));
#1319=CARTESIAN_POINT('',(69.3,12.875,4.8));
#1320=CARTESIAN_POINT('Origin',(0.,25.75,7.5));
#1321=CARTESIAN_POINT('',(0.,25.75,3.75));
#1322=CARTESIAN_POINT('',(69.3,25.75,3.75));
#1323=CARTESIAN_POINT('Origin',(0.,69.05,7.5));
#1324=CARTESIAN_POINT('',(0.,69.05,7.5));
#1325=CARTESIAN_POINT('',(0.,64.05,7.5));
#1326=CARTESIAN_POINT('',(0.,81.925,7.5));
#1327=CARTESIAN_POINT('',(69.3,69.05,7.5));
#1328=CARTESIAN_POINT('',(0.,69.05,7.5));
#1329=CARTESIAN_POINT('',(69.3,64.05,7.5));
#1330=CARTESIAN_POINT('',(69.3,34.525,7.5));
#1331=CARTESIAN_POINT('',(0.,64.05,7.5));
#1332=CARTESIAN_POINT('Origin',(0.,69.05,4.8));
#1333=CARTESIAN_POINT('',(0.,69.05,4.8));
#1334=CARTESIAN_POINT('',(0.,69.05,2.4));
#1335=CARTESIAN_POINT('',(69.3,69.05,4.8));
#1336=CARTESIAN_POINT('',(0.,69.05,4.8));
#1337=CARTESIAN_POINT('',(69.3,69.05,2.4));
#1338=CARTESIAN_POINT('Origin',(0.,51.35,4.8));
#1339=CARTESIAN_POINT('',(0.,51.35,4.8));
#1340=CARTESIAN_POINT('',(0.,73.075,4.8));
#1341=CARTESIAN_POINT('',(69.3,51.35,4.8));
#1342=CARTESIAN_POINT('',(0.,51.35,4.8));
#1343=CARTESIAN_POINT('',(69.3,25.675,4.8));
#1344=CARTESIAN_POINT('Origin',(0.,51.35,7.5));
#1345=CARTESIAN_POINT('',(0.,51.35,7.5));
#1346=CARTESIAN_POINT('',(0.,51.35,3.75));
#1347=CARTESIAN_POINT('',(69.3,51.35,7.5));
#1348=CARTESIAN_POINT('',(0.,51.35,7.5));
#1349=CARTESIAN_POINT('',(69.3,51.35,3.75));
#1350=CARTESIAN_POINT('Origin',(0.,56.35,7.5));
#1351=CARTESIAN_POINT('',(0.,56.35,7.5));
#1352=CARTESIAN_POINT('',(0.,75.575,7.5));
#1353=CARTESIAN_POINT('',(69.3,56.35,7.5));
#1354=CARTESIAN_POINT('',(0.,56.35,7.5));
#1355=CARTESIAN_POINT('',(69.3,28.175,7.5));
#1356=CARTESIAN_POINT('Origin',(0.,56.35,10.));
#1357=CARTESIAN_POINT('',(0.,56.35,10.));
#1358=CARTESIAN_POINT('',(0.,56.35,5.));
#1359=CARTESIAN_POINT('',(69.3,56.35,10.));
#1360=CARTESIAN_POINT('',(17.325,56.35,10.));
#1361=CARTESIAN_POINT('',(69.3,56.35,5.));
#1362=CARTESIAN_POINT('Origin',(0.,64.05,7.5));
#1363=CARTESIAN_POINT('',(0.,64.05,10.));
#1364=CARTESIAN_POINT('',(0.,64.05,3.75));
#1365=CARTESIAN_POINT('',(69.3,64.05,10.));
#1366=CARTESIAN_POINT('',(69.3,64.05,3.75));
#1367=CARTESIAN_POINT('',(17.325,64.05,10.));
#1368=CARTESIAN_POINT('Origin',(69.3,0.,0.));
#1369=CARTESIAN_POINT('',(69.3,0.,10.));
#1370=CARTESIAN_POINT('',(69.3,0.,10.));
#1371=CARTESIAN_POINT('',(69.3,0.,0.));
#1372=CARTESIAN_POINT('',(69.3,0.,0.));
#1373=CARTESIAN_POINT('',(69.3,94.8,0.));
#1374=CARTESIAN_POINT('',(69.3,0.,0.));
#1375=CARTESIAN_POINT('',(69.3,94.8,10.));
#1376=CARTESIAN_POINT('',(69.3,94.8,0.));
#1377=CARTESIAN_POINT('',(69.3,0.,10.));
#1378=CARTESIAN_POINT('',(69.3,0.,10.));
#1379=CARTESIAN_POINT('Origin',(34.65,47.4,10.));
#1380=CARTESIAN_POINT('',(0.,94.8,10.));
#1381=CARTESIAN_POINT('',(69.3,94.8,10.));
#1382=CARTESIAN_POINT('',(0.,94.8,10.));
#1383=CARTESIAN_POINT('',(15.975,82.,10.));
#1384=CARTESIAN_POINT('Origin',(10.4,82.,10.));
#1385=CARTESIAN_POINT('',(64.475,82.,10.));
#1386=CARTESIAN_POINT('Origin',(58.9,82.,10.));
#1387=CARTESIAN_POINT('Origin',(34.65,47.4,10.));
#1388=CARTESIAN_POINT('',(0.,0.,10.));
#1389=CARTESIAN_POINT('',(0.,94.8,10.));
#1390=CARTESIAN_POINT('',(0.,0.,10.));
#1391=CARTESIAN_POINT('',(15.975,12.8,10.));
#1392=CARTESIAN_POINT('Origin',(10.4,12.8,10.));
#1393=CARTESIAN_POINT('',(64.475,12.8,10.));
#1394=CARTESIAN_POINT('Origin',(58.9,12.8,10.));
#1395=CARTESIAN_POINT('Origin',(10.4,12.8,10.));
#1396=CARTESIAN_POINT('',(13.575,12.8,16.35));
#1397=CARTESIAN_POINT('Origin',(10.4,12.8,16.35));
#1398=CARTESIAN_POINT('',(13.575,12.8,10.));
#1399=CARTESIAN_POINT('',(13.575,12.8,10.));
#1400=CARTESIAN_POINT('Origin',(10.4,12.8,10.));
#1401=CARTESIAN_POINT('Origin',(10.4,12.8,10.));
#1402=CARTESIAN_POINT('',(15.975,12.8,16.35));
#1403=CARTESIAN_POINT('Origin',(10.4,12.8,16.35));
#1404=CARTESIAN_POINT('',(15.975,12.8,10.));
#1405=CARTESIAN_POINT('Origin',(10.4,12.8,16.35));
#1406=CARTESIAN_POINT('Origin',(34.65,47.4,10.));
#1407=CARTESIAN_POINT('',(0.,94.8,10.));
#1408=CARTESIAN_POINT('Origin',(10.4,82.,10.));
#1409=CARTESIAN_POINT('',(13.575,82.,16.35));
#1410=CARTESIAN_POINT('Origin',(10.4,82.,16.35));
#1411=CARTESIAN_POINT('',(13.575,82.,10.));
#1412=CARTESIAN_POINT('',(13.575,82.,10.));
#1413=CARTESIAN_POINT('Origin',(10.4,82.,10.));
#1414=CARTESIAN_POINT('Origin',(10.4,82.,10.));
#1415=CARTESIAN_POINT('',(15.975,82.,16.35));
#1416=CARTESIAN_POINT('Origin',(10.4,82.,16.35));
#1417=CARTESIAN_POINT('',(15.975,82.,10.));
#1418=CARTESIAN_POINT('Origin',(10.4,82.,16.35));
#1419=CARTESIAN_POINT('Origin',(34.65,47.4,10.));
#1420=CARTESIAN_POINT('Origin',(58.9,12.8,10.));
#1421=CARTESIAN_POINT('',(62.075,12.8,16.35));
#1422=CARTESIAN_POINT('Origin',(58.9,12.8,16.35));
#1423=CARTESIAN_POINT('',(62.075,12.8,10.));
#1424=CARTESIAN_POINT('',(62.075,12.8,10.));
#1425=CARTESIAN_POINT('Origin',(58.9,12.8,10.));
#1426=CARTESIAN_POINT('Origin',(58.9,12.8,10.));
#1427=CARTESIAN_POINT('',(64.475,12.8,16.35));
#1428=CARTESIAN_POINT('Origin',(58.9,12.8,16.35));
#1429=CARTESIAN_POINT('',(64.475,12.8,10.));
#1430=CARTESIAN_POINT('Origin',(58.9,12.8,16.35));
#1431=CARTESIAN_POINT('Origin',(34.65,47.4,10.));
#1432=CARTESIAN_POINT('Origin',(58.9,82.,10.));
#1433=CARTESIAN_POINT('',(62.075,82.,16.35));
#1434=CARTESIAN_POINT('Origin',(58.9,82.,16.35));
#1435=CARTESIAN_POINT('',(62.075,82.,10.));
#1436=CARTESIAN_POINT('',(62.075,82.,10.));
#1437=CARTESIAN_POINT('Origin',(58.9,82.,10.));
#1438=CARTESIAN_POINT('Origin',(58.9,82.,10.));
#1439=CARTESIAN_POINT('',(64.475,82.,16.35));
#1440=CARTESIAN_POINT('Origin',(58.9,82.,16.35));
#1441=CARTESIAN_POINT('',(64.475,82.,10.));
#1442=CARTESIAN_POINT('Origin',(58.9,82.,16.35));
#1443=CARTESIAN_POINT('Origin',(34.65,47.4,10.));
#1444=CARTESIAN_POINT('Origin',(34.65,47.4,10.));
#1445=CARTESIAN_POINT('Origin',(0.,94.8,0.));
#1446=CARTESIAN_POINT('',(0.,94.8,0.));
#1447=CARTESIAN_POINT('',(0.,94.8,0.));
#1448=CARTESIAN_POINT('',(0.,0.,0.));
#1449=CARTESIAN_POINT('',(0.,94.8,0.));
#1450=CARTESIAN_POINT('',(0.,0.,0.));
#1451=CARTESIAN_POINT('Origin',(31.15,47.4,-7.00000000000001));
#1452=CARTESIAN_POINT('',(31.15,48.9,-7.00000000000001));
#1453=CARTESIAN_POINT('Origin',(31.15,47.4,-7.00000000000001));
#1454=CARTESIAN_POINT('',(32.55,48.9,-7.00000000000001));
#1455=CARTESIAN_POINT('',(31.15,48.9,-7.00000000000001));
#1456=CARTESIAN_POINT('Origin',(32.55,47.4,-7.00000000000001));
#1457=CARTESIAN_POINT('Origin',(28.55,44.1092499102492,-7.03104588225215));
#1458=CARTESIAN_POINT('',(28.55,44.1092499102492,-7.03104588225215));
#1459=CARTESIAN_POINT('',(28.55,45.7815114778378,-9.86539611635623));
#1460=CARTESIAN_POINT('',(28.55,42.3499968113237,-4.0492519276271));
#1461=CARTESIAN_POINT('',(31.15,44.1092499102492,-7.03104588225215));
#1462=CARTESIAN_POINT('',(28.55,44.1092499102492,-7.03104588225215));
#1463=CARTESIAN_POINT('',(31.15,45.7815114778378,-9.86539611635623));
#1464=CARTESIAN_POINT('',(31.15,45.7815114778378,-9.86539611635623));
#1465=CARTESIAN_POINT('',(28.55,45.7815114778378,-9.86539611635623));
#1466=CARTESIAN_POINT('Origin',(28.55,45.7277384324113,-4.16564976589592));
#1467=CARTESIAN_POINT('',(28.55,45.7277384324113,-4.16564976589592));
#1468=CARTESIAN_POINT('',(28.55,46.2171952307046,-3.29910818110907));
#1469=CARTESIAN_POINT('',(31.15,45.7277384324113,-4.16564976589592));
#1470=CARTESIAN_POINT('',(28.55,45.7277384324113,-4.16564976589592));
#1471=CARTESIAN_POINT('',(31.15,44.1092499102492,-7.03104588225215));
#1472=CARTESIAN_POINT('Origin',(28.55,49.0184885221622,-4.13460388364378));
#1473=CARTESIAN_POINT('',(28.55,49.0184885221622,-4.13460388364378));
#1474=CARTESIAN_POINT('',(28.55,45.7290405617133,-4.1656374812338));
#1475=CARTESIAN_POINT('',(31.15,49.0184885221622,-4.13460388364378));
#1476=CARTESIAN_POINT('',(28.55,49.0184885221622,-4.13460388364378));
#1477=CARTESIAN_POINT('',(31.15,45.7277384324113,-4.16564976589592));
#1478=CARTESIAN_POINT('Origin',(28.55,50.6907500897508,-6.96895411774786));
#1479=CARTESIAN_POINT('',(28.55,50.6907500897508,-6.96895411774786));
#1480=CARTESIAN_POINT('',(28.55,48.095366207031,-2.56998504607077));
#1481=CARTESIAN_POINT('',(31.15,50.6907500897508,-6.96895411774786));
#1482=CARTESIAN_POINT('',(28.55,50.6907500897508,-6.96895411774786));
#1483=CARTESIAN_POINT('',(31.15,49.0184885221622,-4.13460388364378));
#1484=CARTESIAN_POINT('Origin',(28.55,49.0722615675887,-9.83435023410409));
#1485=CARTESIAN_POINT('',(28.55,49.0722615675887,-9.83435023410409));
#1486=CARTESIAN_POINT('',(28.55,50.3709626269631,-7.53511059113912));
#1487=CARTESIAN_POINT('',(31.15,49.0722615675887,-9.83435023410409));
#1488=CARTESIAN_POINT('',(28.55,49.0722615675887,-9.83435023410409));
#1489=CARTESIAN_POINT('',(31.15,50.6907500897508,-6.96895411774786));
#1490=CARTESIAN_POINT('Origin',(28.55,45.7815114778378,-9.86539611635623));
#1491=CARTESIAN_POINT('',(28.55,44.1374385622644,-9.88090677282017));
#1492=CARTESIAN_POINT('',(31.15,49.0722615675887,-9.83435023410409));
#1493=CARTESIAN_POINT('Origin',(31.15,47.4,-7.00000000000001));
#1494=CARTESIAN_POINT('Origin',(34.65,42.4,0.));
#1495=CARTESIAN_POINT('',(28.55,42.4,0.));
#1496=CARTESIAN_POINT('',(34.65,42.4,0.));
#1497=CARTESIAN_POINT('',(34.65,42.4,0.));
#1498=CARTESIAN_POINT('',(28.55,42.4,-12.));
#1499=CARTESIAN_POINT('',(28.55,42.4,0.));
#1500=CARTESIAN_POINT('',(34.65,42.4,-12.));
#1501=CARTESIAN_POINT('',(34.65,42.4,-12.));
#1502=CARTESIAN_POINT('',(34.65,42.4,0.));
#1503=CARTESIAN_POINT('Origin',(34.65,47.4,0.));
#1504=CARTESIAN_POINT('',(34.65,52.4,0.));
#1505=CARTESIAN_POINT('Origin',(34.65,47.4,0.));
#1506=CARTESIAN_POINT('',(34.65,52.4,-12.));
#1507=CARTESIAN_POINT('Origin',(34.65,47.4,-12.));
#1508=CARTESIAN_POINT('',(34.65,52.4,0.));
#1509=CARTESIAN_POINT('Origin',(28.55,52.4,0.));
#1510=CARTESIAN_POINT('',(28.55,52.4,0.));
#1511=CARTESIAN_POINT('',(31.6,52.4,0.));
#1512=CARTESIAN_POINT('',(28.55,52.4,-12.));
#1513=CARTESIAN_POINT('',(28.55,52.4,-12.));
#1514=CARTESIAN_POINT('',(28.55,52.4,0.));
#1515=CARTESIAN_POINT('Origin',(28.55,42.4,0.));
#1516=CARTESIAN_POINT('',(28.55,44.9,0.));
#1517=CARTESIAN_POINT('',(28.55,42.4,-12.));
#1518=CARTESIAN_POINT('Origin',(34.1,47.4,-12.));
#1519=CARTESIAN_POINT('',(32.55,45.8670290283244,-12.));
#1520=CARTESIAN_POINT('',(32.55,48.9329709716756,-12.));
#1521=CARTESIAN_POINT('Origin',(34.65,47.4,-12.));
#1522=CARTESIAN_POINT('',(32.55,48.9329709716756,-12.));
#1523=CARTESIAN_POINT('Origin',(32.55,48.9329709716756,0.));
#1524=CARTESIAN_POINT('',(32.55,48.9329709716756,3.));
#1525=CARTESIAN_POINT('',(32.55,48.9329709716756,0.));
#1526=CARTESIAN_POINT('',(32.55,45.8670290283244,3.));
#1527=CARTESIAN_POINT('',(32.55,48.9329709716756,3.));
#1528=CARTESIAN_POINT('',(32.55,45.8670290283244,0.));
#1529=CARTESIAN_POINT('Origin',(34.65,47.4,0.));
#1530=CARTESIAN_POINT('Origin',(34.65,47.4,3.));
#1531=CARTESIAN_POINT('Origin',(34.9,47.4,3.));
#1532=CARTESIAN_POINT('Origin',(69.3,94.8,0.));
#1533=CARTESIAN_POINT('',(69.3,94.8,0.));
#1534=CARTESIAN_POINT('Origin',(0.,0.,0.));
#1535=CARTESIAN_POINT('',(0.,0.,0.));
#1536=CARTESIAN_POINT('Origin',(34.65,47.4,0.));
#1537=UNCERTAINTY_MEASURE_WITH_UNIT(LENGTH_MEASURE(0.01),#1541,
'DISTANCE_ACCURACY_VALUE',
'Maximum model space distance between geometric entities at asserted c
onnectivities');
#1538=UNCERTAINTY_MEASURE_WITH_UNIT(LENGTH_MEASURE(0.01),#1541,
'DISTANCE_ACCURACY_VALUE',
'Maximum model space distance between geometric entities at asserted c
onnectivities');
#1539=(
GEOMETRIC_REPRESENTATION_CONTEXT(3)
GLOBAL_UNCERTAINTY_ASSIGNED_CONTEXT((#1537))
GLOBAL_UNIT_ASSIGNED_CONTEXT((#1541,#1543,#1544))
REPRESENTATION_CONTEXT('','3D')
);
#1540=(
GEOMETRIC_REPRESENTATION_CONTEXT(3)
GLOBAL_UNCERTAINTY_ASSIGNED_CONTEXT((#1538))
GLOBAL_UNIT_ASSIGNED_CONTEXT((#1541,#1543,#1544))
REPRESENTATION_CONTEXT('','3D')
);
#1541=(
LENGTH_UNIT()
NAMED_UNIT(*)
SI_UNIT(.MILLI.,.METRE.)
);
#1542=(
LENGTH_UNIT()
NAMED_UNIT(*)
SI_UNIT($,.METRE.)
);
#1543=(
NAMED_UNIT(*)
PLANE_ANGLE_UNIT()
SI_UNIT($,.RADIAN.)
);
#1544=(
NAMED_UNIT(*)
SI_UNIT($,.STERADIAN.)
SOLID_ANGLE_UNIT()
);
#1545=SHAPE_DEFINITION_REPRESENTATION(#1546,#1547);
#1546=PRODUCT_DEFINITION_SHAPE('',$,#1549);
#1547=SHAPE_REPRESENTATION('',(#945),#1539);
#1548=PRODUCT_DEFINITION_CONTEXT('part definition',#1553,'design');
#1549=PRODUCT_DEFINITION('2026-07-31-14-30-07-139',
'connection base to stepper',#1550,#1548);
#1550=PRODUCT_DEFINITION_FORMATION('',$,#1555);
#1551=PRODUCT_RELATED_PRODUCT_CATEGORY('connection base to stepper',
'connection base to stepper',(#1555));
#1552=APPLICATION_PROTOCOL_DEFINITION('international standard',
'automotive_design',2009,#1553);
#1553=APPLICATION_CONTEXT(
'Core Data for Automotive Mechanical Design Process');
#1554=PRODUCT_CONTEXT('part definition',#1553,'mechanical');
#1555=PRODUCT('2026-07-31-14-30-07-139','connection base to stepper',$,
(#1554));
#1556=PRESENTATION_STYLE_ASSIGNMENT((#1557));
#1557=SURFACE_STYLE_USAGE(.BOTH.,#1558);
#1558=SURFACE_SIDE_STYLE('',(#1559));
#1559=SURFACE_STYLE_FILL_AREA(#1560);
#1560=FILL_AREA_STYLE('Steel - Satin',(#1561));
#1561=FILL_AREA_STYLE_COLOUR('Steel - Satin',#1562);
#1562=COLOUR_RGB('Steel - Satin',0.627450980392157,0.627450980392157,0.627450980392157);
ENDSEC;
END-ISO-10303-21;
