ISO-10303-21;
HEADER;
/* Generated by software containing ST-Developer
 * from STEP Tools, Inc. (www.steptools.com) 
 */

FILE_DESCRIPTION(
/* description */ (''),
/* implementation_level */ '2;1');

FILE_NAME(
/* name */ 'left_wall.step',
/* time_stamp */ '2026-08-19T17:42:10-06:00',
/* author */ (''),
/* organization */ (''),
/* preprocessor_version */ 'ST-DEVELOPER v20.1',
/* originating_system */ 'Autodesk Translation Framework v15.8.0.0',
/* authorisation */ '');

FILE_SCHEMA (('AUTOMOTIVE_DESIGN { 1 0 10303 214 3 1 1 }'));
ENDSEC;

DATA;
#10=MECHANICAL_DESIGN_GEOMETRIC_PRESENTATION_REPRESENTATION('',(#13),#589);
#11=SHAPE_REPRESENTATION_RELATIONSHIP('SRR','None',#596,#12);
#12=ADVANCED_BREP_SHAPE_REPRESENTATION('',(#14),#588);
#13=STYLED_ITEM('',(#605),#14);
#14=MANIFOLD_SOLID_BREP('Body3',#365);
#15=FACE_BOUND('',#49,.T.);
#16=FACE_OUTER_BOUND('',#35,.T.);
#17=FACE_OUTER_BOUND('',#36,.T.);
#18=FACE_OUTER_BOUND('',#37,.T.);
#19=FACE_OUTER_BOUND('',#38,.T.);
#20=FACE_OUTER_BOUND('',#39,.T.);
#21=FACE_OUTER_BOUND('',#40,.T.);
#22=FACE_OUTER_BOUND('',#41,.T.);
#23=FACE_OUTER_BOUND('',#42,.T.);
#24=FACE_OUTER_BOUND('',#43,.T.);
#25=FACE_OUTER_BOUND('',#44,.T.);
#26=FACE_OUTER_BOUND('',#45,.T.);
#27=FACE_OUTER_BOUND('',#46,.T.);
#28=FACE_OUTER_BOUND('',#47,.T.);
#29=FACE_OUTER_BOUND('',#48,.T.);
#30=FACE_OUTER_BOUND('',#50,.T.);
#31=FACE_OUTER_BOUND('',#51,.T.);
#32=FACE_OUTER_BOUND('',#52,.T.);
#33=FACE_OUTER_BOUND('',#53,.T.);
#34=FACE_OUTER_BOUND('',#54,.T.);
#35=EDGE_LOOP('',(#231,#232,#233,#234));
#36=EDGE_LOOP('',(#235,#236,#237,#238));
#37=EDGE_LOOP('',(#239,#240,#241,#242));
#38=EDGE_LOOP('',(#243,#244,#245,#246));
#39=EDGE_LOOP('',(#247,#248,#249,#250));
#40=EDGE_LOOP('',(#251,#252,#253,#254));
#41=EDGE_LOOP('',(#255,#256,#257,#258));
#42=EDGE_LOOP('',(#259,#260,#261,#262));
#43=EDGE_LOOP('',(#263,#264,#265,#266));
#44=EDGE_LOOP('',(#267,#268,#269,#270));
#45=EDGE_LOOP('',(#271,#272,#273,#274));
#46=EDGE_LOOP('',(#275,#276,#277,#278));
#47=EDGE_LOOP('',(#279,#280,#281,#282));
#48=EDGE_LOOP('',(#283,#284,#285,#286,#287,#288,#289,#290,#291,#292,#293,
#294));
#49=EDGE_LOOP('',(#295,#296,#297,#298));
#50=EDGE_LOOP('',(#299,#300,#301,#302));
#51=EDGE_LOOP('',(#303,#304,#305,#306));
#52=EDGE_LOOP('',(#307,#308,#309,#310));
#53=EDGE_LOOP('',(#311,#312,#313,#314,#315,#316,#317,#318,#319,#320,#321,
#322));
#54=EDGE_LOOP('',(#323,#324,#325,#326));
#55=LINE('',#490,#103);
#56=LINE('',#492,#104);
#57=LINE('',#494,#105);
#58=LINE('',#495,#106);
#59=LINE('',#498,#107);
#60=LINE('',#500,#108);
#61=LINE('',#501,#109);
#62=LINE('',#504,#110);
#63=LINE('',#506,#111);
#64=LINE('',#507,#112);
#65=LINE('',#509,#113);
#66=LINE('',#510,#114);
#67=LINE('',#515,#115);
#68=LINE('',#517,#116);
#69=LINE('',#519,#117);
#70=LINE('',#520,#118);
#71=LINE('',#523,#119);
#72=LINE('',#525,#120);
#73=LINE('',#526,#121);
#74=LINE('',#529,#122);
#75=LINE('',#531,#123);
#76=LINE('',#532,#124);
#77=LINE('',#534,#125);
#78=LINE('',#538,#126);
#79=LINE('',#540,#127);
#80=LINE('',#542,#128);
#81=LINE('',#543,#129);
#82=LINE('',#546,#130);
#83=LINE('',#548,#131);
#84=LINE('',#549,#132);
#85=LINE('',#552,#133);
#86=LINE('',#554,#134);
#87=LINE('',#555,#135);
#88=LINE('',#557,#136);
#89=LINE('',#560,#137);
#90=LINE('',#562,#138);
#91=LINE('',#564,#139);
#92=LINE('',#566,#140);
#93=LINE('',#567,#141);
#94=LINE('',#568,#142);
#95=LINE('',#571,#143);
#96=LINE('',#573,#144);
#97=LINE('',#574,#145);
#98=LINE('',#577,#146);
#99=LINE('',#579,#147);
#100=LINE('',#580,#148);
#101=LINE('',#582,#149);
#102=LINE('',#583,#150);
#103=VECTOR('',#402,10.);
#104=VECTOR('',#403,10.);
#105=VECTOR('',#404,10.);
#106=VECTOR('',#405,10.);
#107=VECTOR('',#408,10.);
#108=VECTOR('',#409,10.);
#109=VECTOR('',#410,10.);
#110=VECTOR('',#413,10.);
#111=VECTOR('',#414,10.);
#112=VECTOR('',#415,10.);
#113=VECTOR('',#418,10.);
#114=VECTOR('',#419,10.);
#115=VECTOR('',#424,10.);
#116=VECTOR('',#425,10.);
#117=VECTOR('',#426,10.);
#118=VECTOR('',#427,10.);
#119=VECTOR('',#430,10.);
#120=VECTOR('',#431,10.);
#121=VECTOR('',#432,10.);
#122=VECTOR('',#435,10.);
#123=VECTOR('',#436,10.);
#124=VECTOR('',#437,10.);
#125=VECTOR('',#440,10.);
#126=VECTOR('',#443,10.);
#127=VECTOR('',#444,10.);
#128=VECTOR('',#445,10.);
#129=VECTOR('',#446,10.);
#130=VECTOR('',#449,10.);
#131=VECTOR('',#450,10.);
#132=VECTOR('',#451,10.);
#133=VECTOR('',#454,10.);
#134=VECTOR('',#455,10.);
#135=VECTOR('',#456,10.);
#136=VECTOR('',#459,10.);
#137=VECTOR('',#462,10.);
#138=VECTOR('',#463,10.);
#139=VECTOR('',#464,10.);
#140=VECTOR('',#465,10.);
#141=VECTOR('',#466,10.);
#142=VECTOR('',#467,10.);
#143=VECTOR('',#470,10.);
#144=VECTOR('',#471,10.);
#145=VECTOR('',#472,10.);
#146=VECTOR('',#475,10.);
#147=VECTOR('',#476,10.);
#148=VECTOR('',#477,10.);
#149=VECTOR('',#480,10.);
#150=VECTOR('',#481,10.);
#151=VERTEX_POINT('',#488);
#152=VERTEX_POINT('',#489);
#153=VERTEX_POINT('',#491);
#154=VERTEX_POINT('',#493);
#155=VERTEX_POINT('',#497);
#156=VERTEX_POINT('',#499);
#157=VERTEX_POINT('',#503);
#158=VERTEX_POINT('',#505);
#159=VERTEX_POINT('',#513);
#160=VERTEX_POINT('',#514);
#161=VERTEX_POINT('',#516);
#162=VERTEX_POINT('',#518);
#163=VERTEX_POINT('',#522);
#164=VERTEX_POINT('',#524);
#165=VERTEX_POINT('',#528);
#166=VERTEX_POINT('',#530);
#167=VERTEX_POINT('',#536);
#168=VERTEX_POINT('',#537);
#169=VERTEX_POINT('',#539);
#170=VERTEX_POINT('',#541);
#171=VERTEX_POINT('',#545);
#172=VERTEX_POINT('',#547);
#173=VERTEX_POINT('',#551);
#174=VERTEX_POINT('',#553);
#175=VERTEX_POINT('',#559);
#176=VERTEX_POINT('',#561);
#177=VERTEX_POINT('',#563);
#178=VERTEX_POINT('',#565);
#179=VERTEX_POINT('',#570);
#180=VERTEX_POINT('',#572);
#181=VERTEX_POINT('',#576);
#182=VERTEX_POINT('',#578);
#183=EDGE_CURVE('',#151,#152,#55,.T.);
#184=EDGE_CURVE('',#151,#153,#56,.T.);
#185=EDGE_CURVE('',#153,#154,#57,.T.);
#186=EDGE_CURVE('',#152,#154,#58,.T.);
#187=EDGE_CURVE('',#155,#151,#59,.T.);
#188=EDGE_CURVE('',#155,#156,#60,.T.);
#189=EDGE_CURVE('',#156,#153,#61,.T.);
#190=EDGE_CURVE('',#157,#155,#62,.T.);
#191=EDGE_CURVE('',#157,#158,#63,.T.);
#192=EDGE_CURVE('',#158,#156,#64,.T.);
#193=EDGE_CURVE('',#152,#157,#65,.T.);
#194=EDGE_CURVE('',#154,#158,#66,.T.);
#195=EDGE_CURVE('',#159,#160,#67,.T.);
#196=EDGE_CURVE('',#159,#161,#68,.T.);
#197=EDGE_CURVE('',#161,#162,#69,.T.);
#198=EDGE_CURVE('',#160,#162,#70,.T.);
#199=EDGE_CURVE('',#163,#159,#71,.T.);
#200=EDGE_CURVE('',#163,#164,#72,.T.);
#201=EDGE_CURVE('',#164,#161,#73,.T.);
#202=EDGE_CURVE('',#165,#163,#74,.T.);
#203=EDGE_CURVE('',#166,#165,#75,.T.);
#204=EDGE_CURVE('',#166,#164,#76,.T.);
#205=EDGE_CURVE('',#162,#166,#77,.T.);
#206=EDGE_CURVE('',#167,#168,#78,.T.);
#207=EDGE_CURVE('',#167,#169,#79,.T.);
#208=EDGE_CURVE('',#169,#170,#80,.T.);
#209=EDGE_CURVE('',#168,#170,#81,.T.);
#210=EDGE_CURVE('',#171,#167,#82,.T.);
#211=EDGE_CURVE('',#172,#171,#83,.T.);
#212=EDGE_CURVE('',#172,#169,#84,.T.);
#213=EDGE_CURVE('',#168,#173,#85,.T.);
#214=EDGE_CURVE('',#170,#174,#86,.T.);
#215=EDGE_CURVE('',#173,#174,#87,.T.);
#216=EDGE_CURVE('',#174,#172,#88,.T.);
#217=EDGE_CURVE('',#175,#160,#89,.T.);
#218=EDGE_CURVE('',#176,#175,#90,.T.);
#219=EDGE_CURVE('',#176,#177,#91,.T.);
#220=EDGE_CURVE('',#177,#178,#92,.T.);
#221=EDGE_CURVE('',#171,#178,#93,.T.);
#222=EDGE_CURVE('',#165,#173,#94,.T.);
#223=EDGE_CURVE('',#177,#179,#95,.T.);
#224=EDGE_CURVE('',#179,#180,#96,.T.);
#225=EDGE_CURVE('',#178,#180,#97,.T.);
#226=EDGE_CURVE('',#181,#176,#98,.T.);
#227=EDGE_CURVE('',#182,#175,#99,.T.);
#228=EDGE_CURVE('',#181,#182,#100,.T.);
#229=EDGE_CURVE('',#179,#181,#101,.T.);
#230=EDGE_CURVE('',#180,#182,#102,.T.);
#231=ORIENTED_EDGE('',*,*,#183,.F.);
#232=ORIENTED_EDGE('',*,*,#184,.T.);
#233=ORIENTED_EDGE('',*,*,#185,.T.);
#234=ORIENTED_EDGE('',*,*,#186,.F.);
#235=ORIENTED_EDGE('',*,*,#187,.F.);
#236=ORIENTED_EDGE('',*,*,#188,.T.);
#237=ORIENTED_EDGE('',*,*,#189,.T.);
#238=ORIENTED_EDGE('',*,*,#184,.F.);
#239=ORIENTED_EDGE('',*,*,#190,.F.);
#240=ORIENTED_EDGE('',*,*,#191,.T.);
#241=ORIENTED_EDGE('',*,*,#192,.T.);
#242=ORIENTED_EDGE('',*,*,#188,.F.);
#243=ORIENTED_EDGE('',*,*,#193,.F.);
#244=ORIENTED_EDGE('',*,*,#186,.T.);
#245=ORIENTED_EDGE('',*,*,#194,.T.);
#246=ORIENTED_EDGE('',*,*,#191,.F.);
#247=ORIENTED_EDGE('',*,*,#194,.F.);
#248=ORIENTED_EDGE('',*,*,#185,.F.);
#249=ORIENTED_EDGE('',*,*,#189,.F.);
#250=ORIENTED_EDGE('',*,*,#192,.F.);
#251=ORIENTED_EDGE('',*,*,#195,.F.);
#252=ORIENTED_EDGE('',*,*,#196,.T.);
#253=ORIENTED_EDGE('',*,*,#197,.T.);
#254=ORIENTED_EDGE('',*,*,#198,.F.);
#255=ORIENTED_EDGE('',*,*,#199,.F.);
#256=ORIENTED_EDGE('',*,*,#200,.T.);
#257=ORIENTED_EDGE('',*,*,#201,.T.);
#258=ORIENTED_EDGE('',*,*,#196,.F.);
#259=ORIENTED_EDGE('',*,*,#202,.F.);
#260=ORIENTED_EDGE('',*,*,#203,.F.);
#261=ORIENTED_EDGE('',*,*,#204,.T.);
#262=ORIENTED_EDGE('',*,*,#200,.F.);
#263=ORIENTED_EDGE('',*,*,#205,.F.);
#264=ORIENTED_EDGE('',*,*,#197,.F.);
#265=ORIENTED_EDGE('',*,*,#201,.F.);
#266=ORIENTED_EDGE('',*,*,#204,.F.);
#267=ORIENTED_EDGE('',*,*,#206,.F.);
#268=ORIENTED_EDGE('',*,*,#207,.T.);
#269=ORIENTED_EDGE('',*,*,#208,.T.);
#270=ORIENTED_EDGE('',*,*,#209,.F.);
#271=ORIENTED_EDGE('',*,*,#210,.F.);
#272=ORIENTED_EDGE('',*,*,#211,.F.);
#273=ORIENTED_EDGE('',*,*,#212,.T.);
#274=ORIENTED_EDGE('',*,*,#207,.F.);
#275=ORIENTED_EDGE('',*,*,#213,.F.);
#276=ORIENTED_EDGE('',*,*,#209,.T.);
#277=ORIENTED_EDGE('',*,*,#214,.T.);
#278=ORIENTED_EDGE('',*,*,#215,.F.);
#279=ORIENTED_EDGE('',*,*,#214,.F.);
#280=ORIENTED_EDGE('',*,*,#208,.F.);
#281=ORIENTED_EDGE('',*,*,#212,.F.);
#282=ORIENTED_EDGE('',*,*,#216,.F.);
#283=ORIENTED_EDGE('',*,*,#202,.T.);
#284=ORIENTED_EDGE('',*,*,#199,.T.);
#285=ORIENTED_EDGE('',*,*,#195,.T.);
#286=ORIENTED_EDGE('',*,*,#217,.F.);
#287=ORIENTED_EDGE('',*,*,#218,.F.);
#288=ORIENTED_EDGE('',*,*,#219,.T.);
#289=ORIENTED_EDGE('',*,*,#220,.T.);
#290=ORIENTED_EDGE('',*,*,#221,.F.);
#291=ORIENTED_EDGE('',*,*,#210,.T.);
#292=ORIENTED_EDGE('',*,*,#206,.T.);
#293=ORIENTED_EDGE('',*,*,#213,.T.);
#294=ORIENTED_EDGE('',*,*,#222,.F.);
#295=ORIENTED_EDGE('',*,*,#183,.T.);
#296=ORIENTED_EDGE('',*,*,#193,.T.);
#297=ORIENTED_EDGE('',*,*,#190,.T.);
#298=ORIENTED_EDGE('',*,*,#187,.T.);
#299=ORIENTED_EDGE('',*,*,#223,.T.);
#300=ORIENTED_EDGE('',*,*,#224,.T.);
#301=ORIENTED_EDGE('',*,*,#225,.F.);
#302=ORIENTED_EDGE('',*,*,#220,.F.);
#303=ORIENTED_EDGE('',*,*,#226,.T.);
#304=ORIENTED_EDGE('',*,*,#218,.T.);
#305=ORIENTED_EDGE('',*,*,#227,.F.);
#306=ORIENTED_EDGE('',*,*,#228,.F.);
#307=ORIENTED_EDGE('',*,*,#229,.T.);
#308=ORIENTED_EDGE('',*,*,#228,.T.);
#309=ORIENTED_EDGE('',*,*,#230,.F.);
#310=ORIENTED_EDGE('',*,*,#224,.F.);
#311=ORIENTED_EDGE('',*,*,#203,.T.);
#312=ORIENTED_EDGE('',*,*,#222,.T.);
#313=ORIENTED_EDGE('',*,*,#215,.T.);
#314=ORIENTED_EDGE('',*,*,#216,.T.);
#315=ORIENTED_EDGE('',*,*,#211,.T.);
#316=ORIENTED_EDGE('',*,*,#221,.T.);
#317=ORIENTED_EDGE('',*,*,#225,.T.);
#318=ORIENTED_EDGE('',*,*,#230,.T.);
#319=ORIENTED_EDGE('',*,*,#227,.T.);
#320=ORIENTED_EDGE('',*,*,#217,.T.);
#321=ORIENTED_EDGE('',*,*,#198,.T.);
#322=ORIENTED_EDGE('',*,*,#205,.T.);
#323=ORIENTED_EDGE('',*,*,#229,.F.);
#324=ORIENTED_EDGE('',*,*,#223,.F.);
#325=ORIENTED_EDGE('',*,*,#219,.F.);
#326=ORIENTED_EDGE('',*,*,#226,.F.);
#327=PLANE('',#379);
#328=PLANE('',#380);
#329=PLANE('',#381);
#330=PLANE('',#382);
#331=PLANE('',#383);
#332=PLANE('',#384);
#333=PLANE('',#385);
#334=PLANE('',#386);
#335=PLANE('',#387);
#336=PLANE('',#388);
#337=PLANE('',#389);
#338=PLANE('',#390);
#339=PLANE('',#391);
#340=PLANE('',#392);
#341=PLANE('',#393);
#342=PLANE('',#394);
#343=PLANE('',#395);
#344=PLANE('',#396);
#345=PLANE('',#397);
#346=ADVANCED_FACE('',(#16),#327,.F.);
#347=ADVANCED_FACE('',(#17),#328,.F.);
#348=ADVANCED_FACE('',(#18),#329,.F.);
#349=ADVANCED_FACE('',(#19),#330,.F.);
#350=ADVANCED_FACE('',(#20),#331,.F.);
#351=ADVANCED_FACE('',(#21),#332,.F.);
#352=ADVANCED_FACE('',(#22),#333,.F.);
#353=ADVANCED_FACE('',(#23),#334,.F.);
#354=ADVANCED_FACE('',(#24),#335,.F.);
#355=ADVANCED_FACE('',(#25),#336,.F.);
#356=ADVANCED_FACE('',(#26),#337,.F.);
#357=ADVANCED_FACE('',(#27),#338,.F.);
#358=ADVANCED_FACE('',(#28),#339,.F.);
#359=ADVANCED_FACE('',(#29,#15),#340,.T.);
#360=ADVANCED_FACE('',(#30),#341,.T.);
#361=ADVANCED_FACE('',(#31),#342,.T.);
#362=ADVANCED_FACE('',(#32),#343,.T.);
#363=ADVANCED_FACE('',(#33),#344,.T.);
#364=ADVANCED_FACE('',(#34),#345,.F.);
#365=CLOSED_SHELL('',(#346,#347,#348,#349,#350,#351,#352,#353,#354,#355,
#356,#357,#358,#359,#360,#361,#362,#363,#364));
#366=DERIVED_UNIT_ELEMENT(#368,1.);
#367=DERIVED_UNIT_ELEMENT(#591,-3.);
#368=(
MASS_UNIT()
NAMED_UNIT(*)
SI_UNIT(.KILO.,.GRAM.)
);
#369=DERIVED_UNIT((#366,#367));
#370=MEASURE_REPRESENTATION_ITEM('density measure',
POSITIVE_RATIO_MEASURE(7850.),#369);
#371=PROPERTY_DEFINITION_REPRESENTATION(#376,#373);
#372=PROPERTY_DEFINITION_REPRESENTATION(#377,#374);
#373=REPRESENTATION('material name',(#375),#588);
#374=REPRESENTATION('density',(#370),#588);
#375=DESCRIPTIVE_REPRESENTATION_ITEM('Steel','Steel');
#376=PROPERTY_DEFINITION('material property','material name',#598);
#377=PROPERTY_DEFINITION('material property','density of part',#598);
#378=AXIS2_PLACEMENT_3D('',#486,#398,#399);
#379=AXIS2_PLACEMENT_3D('',#487,#400,#401);
#380=AXIS2_PLACEMENT_3D('',#496,#406,#407);
#381=AXIS2_PLACEMENT_3D('',#502,#411,#412);
#382=AXIS2_PLACEMENT_3D('',#508,#416,#417);
#383=AXIS2_PLACEMENT_3D('',#511,#420,#421);
#384=AXIS2_PLACEMENT_3D('',#512,#422,#423);
#385=AXIS2_PLACEMENT_3D('',#521,#428,#429);
#386=AXIS2_PLACEMENT_3D('',#527,#433,#434);
#387=AXIS2_PLACEMENT_3D('',#533,#438,#439);
#388=AXIS2_PLACEMENT_3D('',#535,#441,#442);
#389=AXIS2_PLACEMENT_3D('',#544,#447,#448);
#390=AXIS2_PLACEMENT_3D('',#550,#452,#453);
#391=AXIS2_PLACEMENT_3D('',#556,#457,#458);
#392=AXIS2_PLACEMENT_3D('',#558,#460,#461);
#393=AXIS2_PLACEMENT_3D('',#569,#468,#469);
#394=AXIS2_PLACEMENT_3D('',#575,#473,#474);
#395=AXIS2_PLACEMENT_3D('',#581,#478,#479);
#396=AXIS2_PLACEMENT_3D('',#584,#482,#483);
#397=AXIS2_PLACEMENT_3D('',#585,#484,#485);
#398=DIRECTION('axis',(0.,0.,1.));
#399=DIRECTION('refdir',(1.,0.,0.));
#400=DIRECTION('center_axis',(0.,1.,0.));
#401=DIRECTION('ref_axis',(0.,0.,-1.));
#402=DIRECTION('',(0.,0.,-1.));
#403=DIRECTION('',(-1.,0.,0.));
#404=DIRECTION('',(0.,0.,-1.));
#405=DIRECTION('',(-1.,0.,0.));
#406=DIRECTION('center_axis',(0.,0.,1.));
#407=DIRECTION('ref_axis',(0.,1.,0.));
#408=DIRECTION('',(0.,1.,0.));
#409=DIRECTION('',(-1.,0.,0.));
#410=DIRECTION('',(0.,1.,0.));
#411=DIRECTION('center_axis',(0.,-1.,0.));
#412=DIRECTION('ref_axis',(0.,0.,1.));
#413=DIRECTION('',(0.,0.,1.));
#414=DIRECTION('',(-1.,0.,0.));
#415=DIRECTION('',(0.,0.,1.));
#416=DIRECTION('center_axis',(0.,0.,-1.));
#417=DIRECTION('ref_axis',(0.,-1.,0.));
#418=DIRECTION('',(0.,-1.,0.));
#419=DIRECTION('',(0.,-1.,0.));
#420=DIRECTION('center_axis',(-1.,0.,0.));
#421=DIRECTION('ref_axis',(0.,0.,1.));
#422=DIRECTION('center_axis',(0.,-1.,0.));
#423=DIRECTION('ref_axis',(0.,0.,1.));
#424=DIRECTION('',(0.,0.,1.));
#425=DIRECTION('',(-1.,0.,0.));
#426=DIRECTION('',(0.,0.,1.));
#427=DIRECTION('',(-1.,0.,0.));
#428=DIRECTION('center_axis',(0.,0.,-1.));
#429=DIRECTION('ref_axis',(0.,-1.,0.));
#430=DIRECTION('',(0.,-1.,0.));
#431=DIRECTION('',(-1.,0.,0.));
#432=DIRECTION('',(0.,-1.,0.));
#433=DIRECTION('center_axis',(0.,1.,0.));
#434=DIRECTION('ref_axis',(0.,0.,-1.));
#435=DIRECTION('',(0.,0.,-1.));
#436=DIRECTION('',(1.,0.,0.));
#437=DIRECTION('',(0.,0.,-1.));
#438=DIRECTION('center_axis',(-1.,0.,0.));
#439=DIRECTION('ref_axis',(0.,0.,1.));
#440=DIRECTION('',(0.,1.,0.));
#441=DIRECTION('center_axis',(0.,0.,-1.));
#442=DIRECTION('ref_axis',(0.,-1.,0.));
#443=DIRECTION('',(0.,-1.,0.));
#444=DIRECTION('',(-1.,0.,0.));
#445=DIRECTION('',(0.,-1.,0.));
#446=DIRECTION('',(-1.,0.,0.));
#447=DIRECTION('center_axis',(0.,1.,0.));
#448=DIRECTION('ref_axis',(0.,0.,-1.));
#449=DIRECTION('',(0.,0.,-1.));
#450=DIRECTION('',(1.,0.,0.));
#451=DIRECTION('',(0.,0.,-1.));
#452=DIRECTION('center_axis',(0.,-1.,0.));
#453=DIRECTION('ref_axis',(0.,0.,1.));
#454=DIRECTION('',(0.,0.,1.));
#455=DIRECTION('',(0.,0.,1.));
#456=DIRECTION('',(-1.,0.,0.));
#457=DIRECTION('center_axis',(-1.,0.,0.));
#458=DIRECTION('ref_axis',(0.,0.,1.));
#459=DIRECTION('',(0.,1.,0.));
#460=DIRECTION('center_axis',(1.,0.,0.));
#461=DIRECTION('ref_axis',(0.,1.,0.));
#462=DIRECTION('',(0.,1.,0.));
#463=DIRECTION('',(0.,0.,1.));
#464=DIRECTION('',(0.,1.,0.));
#465=DIRECTION('',(0.,0.,1.));
#466=DIRECTION('',(0.,1.,0.));
#467=DIRECTION('',(0.,1.,0.));
#468=DIRECTION('center_axis',(0.,1.,0.));
#469=DIRECTION('ref_axis',(-1.,0.,0.));
#470=DIRECTION('',(-1.,0.,0.));
#471=DIRECTION('',(0.,0.,1.));
#472=DIRECTION('',(-1.,0.,0.));
#473=DIRECTION('center_axis',(0.,-1.,0.));
#474=DIRECTION('ref_axis',(1.,0.,0.));
#475=DIRECTION('',(1.,0.,0.));
#476=DIRECTION('',(1.,0.,0.));
#477=DIRECTION('',(0.,0.,1.));
#478=DIRECTION('center_axis',(-1.,0.,0.));
#479=DIRECTION('ref_axis',(0.,-1.,0.));
#480=DIRECTION('',(0.,-1.,0.));
#481=DIRECTION('',(0.,-1.,0.));
#482=DIRECTION('center_axis',(0.,0.,1.));
#483=DIRECTION('ref_axis',(1.,0.,0.));
#484=DIRECTION('center_axis',(0.,0.,1.));
#485=DIRECTION('ref_axis',(1.,0.,0.));
#486=CARTESIAN_POINT('',(0.,0.,0.));
#487=CARTESIAN_POINT('Origin',(4.4,92.5,5.00000007450581));
#488=CARTESIAN_POINT('',(4.4,92.5,5.00000007450581));
#489=CARTESIAN_POINT('',(4.4,92.5,2.4));
#490=CARTESIAN_POINT('',(4.4,92.5,2.5000000372529));
#491=CARTESIAN_POINT('',(1.8,92.5,5.00000007450581));
#492=CARTESIAN_POINT('',(4.4,92.5,5.00000007450581));
#493=CARTESIAN_POINT('',(1.8,92.5,2.4));
#494=CARTESIAN_POINT('',(1.8,92.5,2.4));
#495=CARTESIAN_POINT('',(4.4,92.5,2.4));
#496=CARTESIAN_POINT('Origin',(4.4,7.10000000000001,5.00000007450581));
#497=CARTESIAN_POINT('',(4.4,7.10000000000001,5.00000007450581));
#498=CARTESIAN_POINT('',(4.4,3.55,5.00000007450581));
#499=CARTESIAN_POINT('',(1.8,7.10000000000001,5.00000007450581));
#500=CARTESIAN_POINT('',(4.4,7.10000000000001,5.00000007450581));
#501=CARTESIAN_POINT('',(1.8,92.5,5.00000007450581));
#502=CARTESIAN_POINT('Origin',(4.4,7.1,2.4));
#503=CARTESIAN_POINT('',(4.4,7.1,2.4));
#504=CARTESIAN_POINT('',(4.4,7.1,1.2));
#505=CARTESIAN_POINT('',(1.8,7.1,2.4));
#506=CARTESIAN_POINT('',(4.4,7.1,2.4));
#507=CARTESIAN_POINT('',(1.8,7.1,2.4));
#508=CARTESIAN_POINT('Origin',(4.4,92.5,2.4));
#509=CARTESIAN_POINT('',(4.4,46.25,2.4));
#510=CARTESIAN_POINT('',(1.8,7.1,2.4));
#511=CARTESIAN_POINT('Origin',(1.8,49.8,3.7000000372529));
#512=CARTESIAN_POINT('Origin',(4.4,2.4,5.39999999999999));
#513=CARTESIAN_POINT('',(4.4,2.4,5.39999999999999));
#514=CARTESIAN_POINT('',(4.4,2.4,55.));
#515=CARTESIAN_POINT('',(4.4,2.4,2.7));
#516=CARTESIAN_POINT('',(2.4,2.4,5.39999999999999));
#517=CARTESIAN_POINT('',(4.4,2.4,5.39999999999999));
#518=CARTESIAN_POINT('',(2.4,2.4,55.));
#519=CARTESIAN_POINT('',(2.4,2.4,55.));
#520=CARTESIAN_POINT('',(3.3,2.4,55.));
#521=CARTESIAN_POINT('Origin',(4.4,5.,5.39999999999999));
#522=CARTESIAN_POINT('',(4.4,5.,5.39999999999999));
#523=CARTESIAN_POINT('',(4.4,2.5,5.39999999999999));
#524=CARTESIAN_POINT('',(2.4,5.,5.39999999999999));
#525=CARTESIAN_POINT('',(4.4,5.,5.39999999999999));
#526=CARTESIAN_POINT('',(2.4,2.4,5.39999999999999));
#527=CARTESIAN_POINT('Origin',(4.4,5.,55.));
#528=CARTESIAN_POINT('',(4.4,5.,55.));
#529=CARTESIAN_POINT('',(4.4,5.,27.5));
#530=CARTESIAN_POINT('',(2.4,5.,55.));
#531=CARTESIAN_POINT('',(3.3,5.,55.));
#532=CARTESIAN_POINT('',(2.4,5.,5.39999999999999));
#533=CARTESIAN_POINT('Origin',(2.4,3.7,30.2));
#534=CARTESIAN_POINT('',(2.4,26.75,55.));
#535=CARTESIAN_POINT('Origin',(4.4,97.2,5.));
#536=CARTESIAN_POINT('',(4.4,97.2,5.));
#537=CARTESIAN_POINT('',(4.4,94.6,5.));
#538=CARTESIAN_POINT('',(4.4,48.6,5.));
#539=CARTESIAN_POINT('',(2.4,97.2,5.));
#540=CARTESIAN_POINT('',(4.4,97.2,5.));
#541=CARTESIAN_POINT('',(2.4,94.6,5.));
#542=CARTESIAN_POINT('',(2.4,97.2,5.));
#543=CARTESIAN_POINT('',(4.4,94.6,5.));
#544=CARTESIAN_POINT('Origin',(4.4,97.2,55.));
#545=CARTESIAN_POINT('',(4.4,97.2,55.));
#546=CARTESIAN_POINT('',(4.4,97.2,27.5));
#547=CARTESIAN_POINT('',(2.4,97.2,55.));
#548=CARTESIAN_POINT('',(3.3,97.2,55.));
#549=CARTESIAN_POINT('',(2.4,97.2,55.));
#550=CARTESIAN_POINT('Origin',(4.4,94.6,5.));
#551=CARTESIAN_POINT('',(4.4,94.6,55.));
#552=CARTESIAN_POINT('',(4.4,94.6,2.5));
#553=CARTESIAN_POINT('',(2.4,94.6,55.));
#554=CARTESIAN_POINT('',(2.4,94.6,5.));
#555=CARTESIAN_POINT('',(3.3,94.6,55.));
#556=CARTESIAN_POINT('Origin',(2.4,95.9,30.));
#557=CARTESIAN_POINT('',(2.4,72.85,55.));
#558=CARTESIAN_POINT('Origin',(4.4,0.,0.));
#559=CARTESIAN_POINT('',(4.4,0.,55.));
#560=CARTESIAN_POINT('',(4.4,0.,55.));
#561=CARTESIAN_POINT('',(4.4,0.,0.));
#562=CARTESIAN_POINT('',(4.4,0.,0.));
#563=CARTESIAN_POINT('',(4.4,99.6,0.));
#564=CARTESIAN_POINT('',(4.4,0.,0.));
#565=CARTESIAN_POINT('',(4.4,99.6,55.));
#566=CARTESIAN_POINT('',(4.4,99.6,0.));
#567=CARTESIAN_POINT('',(4.4,0.,55.));
#568=CARTESIAN_POINT('',(4.4,0.,55.));
#569=CARTESIAN_POINT('Origin',(4.4,99.6,0.));
#570=CARTESIAN_POINT('',(0.,99.6,0.));
#571=CARTESIAN_POINT('',(4.4,99.6,0.));
#572=CARTESIAN_POINT('',(0.,99.6,55.));
#573=CARTESIAN_POINT('',(0.,99.6,0.));
#574=CARTESIAN_POINT('',(4.4,99.6,55.));
#575=CARTESIAN_POINT('Origin',(0.,0.,0.));
#576=CARTESIAN_POINT('',(0.,0.,0.));
#577=CARTESIAN_POINT('',(0.,0.,0.));
#578=CARTESIAN_POINT('',(0.,0.,55.));
#579=CARTESIAN_POINT('',(0.,0.,55.));
#580=CARTESIAN_POINT('',(0.,0.,0.));
#581=CARTESIAN_POINT('Origin',(0.,99.6,0.));
#582=CARTESIAN_POINT('',(0.,99.6,0.));
#583=CARTESIAN_POINT('',(0.,99.6,55.));
#584=CARTESIAN_POINT('Origin',(2.2,49.8,55.));
#585=CARTESIAN_POINT('Origin',(2.2,49.8,0.));
#586=UNCERTAINTY_MEASURE_WITH_UNIT(LENGTH_MEASURE(0.01),#590,
'DISTANCE_ACCURACY_VALUE',
'Maximum model space distance between geometric entities at asserted c
onnectivities');
#587=UNCERTAINTY_MEASURE_WITH_UNIT(LENGTH_MEASURE(0.01),#590,
'DISTANCE_ACCURACY_VALUE',
'Maximum model space distance between geometric entities at asserted c
onnectivities');
#588=(
GEOMETRIC_REPRESENTATION_CONTEXT(3)
GLOBAL_UNCERTAINTY_ASSIGNED_CONTEXT((#586))
GLOBAL_UNIT_ASSIGNED_CONTEXT((#590,#592,#593))
REPRESENTATION_CONTEXT('','3D')
);
#589=(
GEOMETRIC_REPRESENTATION_CONTEXT(3)
GLOBAL_UNCERTAINTY_ASSIGNED_CONTEXT((#587))
GLOBAL_UNIT_ASSIGNED_CONTEXT((#590,#592,#593))
REPRESENTATION_CONTEXT('','3D')
);
#590=(
LENGTH_UNIT()
NAMED_UNIT(*)
SI_UNIT(.MILLI.,.METRE.)
);
#591=(
LENGTH_UNIT()
NAMED_UNIT(*)
SI_UNIT($,.METRE.)
);
#592=(
NAMED_UNIT(*)
PLANE_ANGLE_UNIT()
SI_UNIT($,.RADIAN.)
);
#593=(
NAMED_UNIT(*)
SI_UNIT($,.STERADIAN.)
SOLID_ANGLE_UNIT()
);
#594=SHAPE_DEFINITION_REPRESENTATION(#595,#596);
#595=PRODUCT_DEFINITION_SHAPE('',$,#598);
#596=SHAPE_REPRESENTATION('',(#378),#588);
#597=PRODUCT_DEFINITION_CONTEXT('part definition',#602,'design');
#598=PRODUCT_DEFINITION('2026-07-08-16-30-32-006','Left wall',#599,#597);
#599=PRODUCT_DEFINITION_FORMATION('',$,#604);
#600=PRODUCT_RELATED_PRODUCT_CATEGORY('Left wall','Left wall',(#604));
#601=APPLICATION_PROTOCOL_DEFINITION('international standard',
'automotive_design',2009,#602);
#602=APPLICATION_CONTEXT(
'Core Data for Automotive Mechanical Design Process');
#603=PRODUCT_CONTEXT('part definition',#602,'mechanical');
#604=PRODUCT('2026-07-08-16-30-32-006','Left wall',$,(#603));
#605=PRESENTATION_STYLE_ASSIGNMENT((#606));
#606=SURFACE_STYLE_USAGE(.BOTH.,#607);
#607=SURFACE_SIDE_STYLE('',(#608));
#608=SURFACE_STYLE_FILL_AREA(#609);
#609=FILL_AREA_STYLE('Steel - Satin',(#610));
#610=FILL_AREA_STYLE_COLOUR('Steel - Satin',#611);
#611=COLOUR_RGB('Steel - Satin',0.627450980392157,0.627450980392157,0.627450980392157);
ENDSEC;
END-ISO-10303-21;
