ISO-10303-21;
HEADER;
/* Generated by software containing ST-Developer
 * from STEP Tools, Inc. (www.steptools.com) 
 */

FILE_DESCRIPTION(
/* description */ (''),
/* implementation_level */ '2;1');

FILE_NAME(
/* name */ 'servo_bracket.step',
/* time_stamp */ '2026-08-19T17:41:45-06:00',
/* author */ (''),
/* organization */ (''),
/* preprocessor_version */ 'ST-DEVELOPER v20.1',
/* originating_system */ 'Autodesk Translation Framework v15.8.0.0',
/* authorisation */ '');

FILE_SCHEMA (('AUTOMOTIVE_DESIGN { 1 0 10303 214 3 1 1 }'));
ENDSEC;

DATA;
#10=MECHANICAL_DESIGN_GEOMETRIC_PRESENTATION_REPRESENTATION('',(#13),#1409);
#11=SHAPE_REPRESENTATION_RELATIONSHIP('SRR','None',#1416,#12);
#12=ADVANCED_BREP_SHAPE_REPRESENTATION('',(#14),#1408);
#13=STYLED_ITEM('',(#1425),#14);
#14=MANIFOLD_SOLID_BREP('Body1',#881);
#15=CYLINDRICAL_SURFACE('',#914,1.5);
#16=CYLINDRICAL_SURFACE('',#916,1.5);
#17=CYLINDRICAL_SURFACE('',#941,1.1);
#18=CYLINDRICAL_SURFACE('',#942,1.1);
#19=FACE_BOUND('',#83,.T.);
#20=FACE_BOUND('',#85,.T.);
#21=FACE_BOUND('',#86,.T.);
#22=FACE_BOUND('',#87,.T.);
#23=FACE_BOUND('',#98,.T.);
#24=FACE_BOUND('',#110,.T.);
#25=FACE_BOUND('',#118,.T.);
#26=FACE_BOUND('',#121,.T.);
#27=FACE_BOUND('',#122,.T.);
#28=FACE_BOUND('',#127,.T.);
#29=FACE_BOUND('',#128,.T.);
#30=CIRCLE('',#897,1.5);
#31=CIRCLE('',#899,1.1);
#32=CIRCLE('',#900,1.1);
#33=CIRCLE('',#911,1.5);
#34=CIRCLE('',#915,1.5);
#35=CIRCLE('',#917,1.5);
#36=CIRCLE('',#934,1.1);
#37=CIRCLE('',#935,1.1);
#38=FACE_OUTER_BOUND('',#81,.T.);
#39=FACE_OUTER_BOUND('',#82,.T.);
#40=FACE_OUTER_BOUND('',#84,.T.);
#41=FACE_OUTER_BOUND('',#88,.T.);
#42=FACE_OUTER_BOUND('',#89,.T.);
#43=FACE_OUTER_BOUND('',#90,.T.);
#44=FACE_OUTER_BOUND('',#91,.T.);
#45=FACE_OUTER_BOUND('',#92,.T.);
#46=FACE_OUTER_BOUND('',#93,.T.);
#47=FACE_OUTER_BOUND('',#94,.T.);
#48=FACE_OUTER_BOUND('',#95,.T.);
#49=FACE_OUTER_BOUND('',#96,.T.);
#50=FACE_OUTER_BOUND('',#97,.T.);
#51=FACE_OUTER_BOUND('',#99,.T.);
#52=FACE_OUTER_BOUND('',#100,.T.);
#53=FACE_OUTER_BOUND('',#101,.T.);
#54=FACE_OUTER_BOUND('',#102,.T.);
#55=FACE_OUTER_BOUND('',#103,.T.);
#56=FACE_OUTER_BOUND('',#104,.T.);
#57=FACE_OUTER_BOUND('',#105,.T.);
#58=FACE_OUTER_BOUND('',#106,.T.);
#59=FACE_OUTER_BOUND('',#107,.T.);
#60=FACE_OUTER_BOUND('',#108,.T.);
#61=FACE_OUTER_BOUND('',#109,.T.);
#62=FACE_OUTER_BOUND('',#111,.T.);
#63=FACE_OUTER_BOUND('',#112,.T.);
#64=FACE_OUTER_BOUND('',#113,.T.);
#65=FACE_OUTER_BOUND('',#114,.T.);
#66=FACE_OUTER_BOUND('',#115,.T.);
#67=FACE_OUTER_BOUND('',#116,.T.);
#68=FACE_OUTER_BOUND('',#117,.T.);
#69=FACE_OUTER_BOUND('',#119,.T.);
#70=FACE_OUTER_BOUND('',#120,.T.);
#71=FACE_OUTER_BOUND('',#123,.T.);
#72=FACE_OUTER_BOUND('',#124,.T.);
#73=FACE_OUTER_BOUND('',#125,.T.);
#74=FACE_OUTER_BOUND('',#126,.T.);
#75=FACE_OUTER_BOUND('',#129,.T.);
#76=FACE_OUTER_BOUND('',#130,.T.);
#77=FACE_OUTER_BOUND('',#131,.T.);
#78=FACE_OUTER_BOUND('',#132,.T.);
#79=FACE_OUTER_BOUND('',#133,.T.);
#80=FACE_OUTER_BOUND('',#134,.T.);
#81=EDGE_LOOP('',(#559,#560,#561,#562));
#82=EDGE_LOOP('',(#563,#564,#565,#566));
#83=EDGE_LOOP('',(#567));
#84=EDGE_LOOP('',(#568,#569,#570,#571,#572,#573,#574,#575,#576,#577,#578,
#579,#580,#581,#582,#583));
#85=EDGE_LOOP('',(#584,#585,#586,#587));
#86=EDGE_LOOP('',(#588));
#87=EDGE_LOOP('',(#589));
#88=EDGE_LOOP('',(#590,#591,#592,#593));
#89=EDGE_LOOP('',(#594,#595,#596,#597,#598,#599,#600,#601));
#90=EDGE_LOOP('',(#602,#603,#604,#605));
#91=EDGE_LOOP('',(#606,#607,#608,#609));
#92=EDGE_LOOP('',(#610,#611,#612,#613));
#93=EDGE_LOOP('',(#614,#615,#616,#617));
#94=EDGE_LOOP('',(#618,#619,#620,#621,#622,#623,#624,#625));
#95=EDGE_LOOP('',(#626,#627,#628,#629));
#96=EDGE_LOOP('',(#630,#631,#632,#633));
#97=EDGE_LOOP('',(#634,#635,#636,#637));
#98=EDGE_LOOP('',(#638));
#99=EDGE_LOOP('',(#639,#640,#641,#642));
#100=EDGE_LOOP('',(#643,#644,#645,#646));
#101=EDGE_LOOP('',(#647,#648,#649,#650));
#102=EDGE_LOOP('',(#651,#652,#653,#654));
#103=EDGE_LOOP('',(#655,#656,#657,#658));
#104=EDGE_LOOP('',(#659,#660,#661,#662));
#105=EDGE_LOOP('',(#663,#664,#665,#666));
#106=EDGE_LOOP('',(#667,#668,#669,#670));
#107=EDGE_LOOP('',(#671,#672,#673,#674));
#108=EDGE_LOOP('',(#675,#676,#677,#678));
#109=EDGE_LOOP('',(#679,#680,#681,#682,#683,#684));
#110=EDGE_LOOP('',(#685));
#111=EDGE_LOOP('',(#686,#687,#688,#689));
#112=EDGE_LOOP('',(#690,#691,#692,#693));
#113=EDGE_LOOP('',(#694,#695,#696,#697));
#114=EDGE_LOOP('',(#698,#699,#700,#701));
#115=EDGE_LOOP('',(#702,#703,#704,#705));
#116=EDGE_LOOP('',(#706,#707,#708,#709));
#117=EDGE_LOOP('',(#710,#711,#712,#713,#714,#715));
#118=EDGE_LOOP('',(#716));
#119=EDGE_LOOP('',(#717,#718,#719,#720,#721,#722));
#120=EDGE_LOOP('',(#723,#724,#725,#726,#727,#728,#729,#730));
#121=EDGE_LOOP('',(#731));
#122=EDGE_LOOP('',(#732));
#123=EDGE_LOOP('',(#733,#734,#735,#736,#737,#738));
#124=EDGE_LOOP('',(#739,#740,#741,#742));
#125=EDGE_LOOP('',(#743,#744,#745,#746));
#126=EDGE_LOOP('',(#747,#748,#749,#750,#751,#752,#753,#754,#755,#756,#757,
#758));
#127=EDGE_LOOP('',(#759,#760,#761,#762,#763,#764));
#128=EDGE_LOOP('',(#765,#766,#767,#768,#769,#770));
#129=EDGE_LOOP('',(#771,#772,#773,#774));
#130=EDGE_LOOP('',(#775,#776,#777,#778));
#131=EDGE_LOOP('',(#779,#780,#781,#782));
#132=EDGE_LOOP('',(#783,#784,#785,#786,#787,#788));
#133=EDGE_LOOP('',(#789,#790,#791,#792,#793,#794));
#134=EDGE_LOOP('',(#795,#796,#797,#798));
#135=LINE('',#1166,#247);
#136=LINE('',#1168,#248);
#137=LINE('',#1170,#249);
#138=LINE('',#1171,#250);
#139=LINE('',#1174,#251);
#140=LINE('',#1176,#252);
#141=LINE('',#1177,#253);
#142=LINE('',#1182,#254);
#143=LINE('',#1184,#255);
#144=LINE('',#1186,#256);
#145=LINE('',#1188,#257);
#146=LINE('',#1190,#258);
#147=LINE('',#1192,#259);
#148=LINE('',#1194,#260);
#149=LINE('',#1196,#261);
#150=LINE('',#1198,#262);
#151=LINE('',#1200,#263);
#152=LINE('',#1202,#264);
#153=LINE('',#1204,#265);
#154=LINE('',#1206,#266);
#155=LINE('',#1207,#267);
#156=LINE('',#1210,#268);
#157=LINE('',#1212,#269);
#158=LINE('',#1214,#270);
#159=LINE('',#1215,#271);
#160=LINE('',#1223,#272);
#161=LINE('',#1224,#273);
#162=LINE('',#1225,#274);
#163=LINE('',#1228,#275);
#164=LINE('',#1230,#276);
#165=LINE('',#1232,#277);
#166=LINE('',#1234,#278);
#167=LINE('',#1236,#279);
#168=LINE('',#1238,#280);
#169=LINE('',#1239,#281);
#170=LINE('',#1241,#282);
#171=LINE('',#1243,#283);
#172=LINE('',#1244,#284);
#173=LINE('',#1246,#285);
#174=LINE('',#1249,#286);
#175=LINE('',#1250,#287);
#176=LINE('',#1253,#288);
#177=LINE('',#1255,#289);
#178=LINE('',#1257,#290);
#179=LINE('',#1259,#291);
#180=LINE('',#1260,#292);
#181=LINE('',#1262,#293);
#182=LINE('',#1264,#294);
#183=LINE('',#1271,#295);
#184=LINE('',#1272,#296);
#185=LINE('',#1273,#297);
#186=LINE('',#1276,#298);
#187=LINE('',#1278,#299);
#188=LINE('',#1279,#300);
#189=LINE('',#1283,#301);
#190=LINE('',#1287,#302);
#191=LINE('',#1291,#303);
#192=LINE('',#1293,#304);
#193=LINE('',#1295,#305);
#194=LINE('',#1296,#306);
#195=LINE('',#1299,#307);
#196=LINE('',#1301,#308);
#197=LINE('',#1302,#309);
#198=LINE('',#1305,#310);
#199=LINE('',#1307,#311);
#200=LINE('',#1308,#312);
#201=LINE('',#1311,#313);
#202=LINE('',#1313,#314);
#203=LINE('',#1314,#315);
#204=LINE('',#1317,#316);
#205=LINE('',#1319,#317);
#206=LINE('',#1320,#318);
#207=LINE('',#1322,#319);
#208=LINE('',#1323,#320);
#209=LINE('',#1328,#321);
#210=LINE('',#1330,#322);
#211=LINE('',#1332,#323);
#212=LINE('',#1333,#324);
#213=LINE('',#1336,#325);
#214=LINE('',#1338,#326);
#215=LINE('',#1339,#327);
#216=LINE('',#1342,#328);
#217=LINE('',#1344,#329);
#218=LINE('',#1345,#330);
#219=LINE('',#1348,#331);
#220=LINE('',#1350,#332);
#221=LINE('',#1351,#333);
#222=LINE('',#1354,#334);
#223=LINE('',#1356,#335);
#224=LINE('',#1357,#336);
#225=LINE('',#1359,#337);
#226=LINE('',#1360,#338);
#227=LINE('',#1363,#339);
#228=LINE('',#1367,#340);
#229=LINE('',#1369,#341);
#230=LINE('',#1371,#342);
#231=LINE('',#1373,#343);
#232=LINE('',#1375,#344);
#233=LINE('',#1377,#345);
#234=LINE('',#1379,#346);
#235=LINE('',#1380,#347);
#236=LINE('',#1386,#348);
#237=LINE('',#1388,#349);
#238=LINE('',#1389,#350);
#239=LINE('',#1391,#351);
#240=LINE('',#1393,#352);
#241=LINE('',#1394,#353);
#242=LINE('',#1395,#354);
#243=LINE('',#1398,#355);
#244=LINE('',#1400,#356);
#245=LINE('',#1402,#357);
#246=LINE('',#1404,#358);
#247=VECTOR('',#950,10.);
#248=VECTOR('',#951,10.);
#249=VECTOR('',#952,10.);
#250=VECTOR('',#953,10.);
#251=VECTOR('',#956,10.);
#252=VECTOR('',#957,10.);
#253=VECTOR('',#958,10.);
#254=VECTOR('',#963,10.);
#255=VECTOR('',#964,10.);
#256=VECTOR('',#965,10.);
#257=VECTOR('',#966,10.);
#258=VECTOR('',#967,10.);
#259=VECTOR('',#968,10.);
#260=VECTOR('',#969,10.);
#261=VECTOR('',#970,10.);
#262=VECTOR('',#971,10.);
#263=VECTOR('',#972,10.);
#264=VECTOR('',#973,10.);
#265=VECTOR('',#974,10.);
#266=VECTOR('',#975,10.);
#267=VECTOR('',#976,10.);
#268=VECTOR('',#977,10.);
#269=VECTOR('',#978,10.);
#270=VECTOR('',#979,10.);
#271=VECTOR('',#980,10.);
#272=VECTOR('',#987,10.);
#273=VECTOR('',#988,10.);
#274=VECTOR('',#989,10.);
#275=VECTOR('',#992,10.);
#276=VECTOR('',#993,10.);
#277=VECTOR('',#994,10.);
#278=VECTOR('',#995,10.);
#279=VECTOR('',#996,10.);
#280=VECTOR('',#997,10.);
#281=VECTOR('',#998,10.);
#282=VECTOR('',#1001,10.);
#283=VECTOR('',#1004,10.);
#284=VECTOR('',#1005,10.);
#285=VECTOR('',#1008,10.);
#286=VECTOR('',#1011,10.);
#287=VECTOR('',#1012,10.);
#288=VECTOR('',#1015,10.);
#289=VECTOR('',#1016,10.);
#290=VECTOR('',#1017,10.);
#291=VECTOR('',#1018,10.);
#292=VECTOR('',#1019,10.);
#293=VECTOR('',#1022,10.);
#294=VECTOR('',#1025,10.);
#295=VECTOR('',#1032,10.);
#296=VECTOR('',#1033,10.);
#297=VECTOR('',#1034,10.);
#298=VECTOR('',#1037,10.);
#299=VECTOR('',#1038,10.);
#300=VECTOR('',#1039,10.);
#301=VECTOR('',#1044,1.5);
#302=VECTOR('',#1049,1.5);
#303=VECTOR('',#1052,10.);
#304=VECTOR('',#1053,10.);
#305=VECTOR('',#1054,10.);
#306=VECTOR('',#1055,10.);
#307=VECTOR('',#1058,10.);
#308=VECTOR('',#1059,10.);
#309=VECTOR('',#1060,10.);
#310=VECTOR('',#1063,10.);
#311=VECTOR('',#1064,10.);
#312=VECTOR('',#1065,10.);
#313=VECTOR('',#1068,10.);
#314=VECTOR('',#1069,10.);
#315=VECTOR('',#1070,10.);
#316=VECTOR('',#1073,10.);
#317=VECTOR('',#1074,10.);
#318=VECTOR('',#1075,10.);
#319=VECTOR('',#1078,10.);
#320=VECTOR('',#1079,10.);
#321=VECTOR('',#1084,10.);
#322=VECTOR('',#1085,10.);
#323=VECTOR('',#1086,10.);
#324=VECTOR('',#1087,10.);
#325=VECTOR('',#1090,10.);
#326=VECTOR('',#1091,10.);
#327=VECTOR('',#1092,10.);
#328=VECTOR('',#1095,10.);
#329=VECTOR('',#1096,10.);
#330=VECTOR('',#1097,10.);
#331=VECTOR('',#1100,10.);
#332=VECTOR('',#1101,10.);
#333=VECTOR('',#1102,10.);
#334=VECTOR('',#1105,10.);
#335=VECTOR('',#1106,10.);
#336=VECTOR('',#1107,10.);
#337=VECTOR('',#1110,10.);
#338=VECTOR('',#1111,10.);
#339=VECTOR('',#1116,10.);
#340=VECTOR('',#1119,10.);
#341=VECTOR('',#1120,10.);
#342=VECTOR('',#1121,10.);
#343=VECTOR('',#1122,10.);
#344=VECTOR('',#1123,10.);
#345=VECTOR('',#1124,10.);
#346=VECTOR('',#1125,10.);
#347=VECTOR('',#1126,10.);
#348=VECTOR('',#1133,10.);
#349=VECTOR('',#1136,10.);
#350=VECTOR('',#1137,10.);
#351=VECTOR('',#1140,10.);
#352=VECTOR('',#1143,10.);
#353=VECTOR('',#1144,10.);
#354=VECTOR('',#1145,10.);
#355=VECTOR('',#1150,1.1);
#356=VECTOR('',#1153,1.1);
#357=VECTOR('',#1156,10.);
#358=VECTOR('',#1159,10.);
#359=VERTEX_POINT('',#1164);
#360=VERTEX_POINT('',#1165);
#361=VERTEX_POINT('',#1167);
#362=VERTEX_POINT('',#1169);
#363=VERTEX_POINT('',#1173);
#364=VERTEX_POINT('',#1175);
#365=VERTEX_POINT('',#1178);
#366=VERTEX_POINT('',#1181);
#367=VERTEX_POINT('',#1183);
#368=VERTEX_POINT('',#1185);
#369=VERTEX_POINT('',#1187);
#370=VERTEX_POINT('',#1189);
#371=VERTEX_POINT('',#1191);
#372=VERTEX_POINT('',#1193);
#373=VERTEX_POINT('',#1195);
#374=VERTEX_POINT('',#1197);
#375=VERTEX_POINT('',#1199);
#376=VERTEX_POINT('',#1201);
#377=VERTEX_POINT('',#1203);
#378=VERTEX_POINT('',#1205);
#379=VERTEX_POINT('',#1208);
#380=VERTEX_POINT('',#1209);
#381=VERTEX_POINT('',#1211);
#382=VERTEX_POINT('',#1213);
#383=VERTEX_POINT('',#1216);
#384=VERTEX_POINT('',#1218);
#385=VERTEX_POINT('',#1221);
#386=VERTEX_POINT('',#1222);
#387=VERTEX_POINT('',#1227);
#388=VERTEX_POINT('',#1229);
#389=VERTEX_POINT('',#1231);
#390=VERTEX_POINT('',#1233);
#391=VERTEX_POINT('',#1235);
#392=VERTEX_POINT('',#1237);
#393=VERTEX_POINT('',#1248);
#394=VERTEX_POINT('',#1252);
#395=VERTEX_POINT('',#1254);
#396=VERTEX_POINT('',#1256);
#397=VERTEX_POINT('',#1258);
#398=VERTEX_POINT('',#1266);
#399=VERTEX_POINT('',#1269);
#400=VERTEX_POINT('',#1270);
#401=VERTEX_POINT('',#1275);
#402=VERTEX_POINT('',#1277);
#403=VERTEX_POINT('',#1281);
#404=VERTEX_POINT('',#1285);
#405=VERTEX_POINT('',#1289);
#406=VERTEX_POINT('',#1290);
#407=VERTEX_POINT('',#1292);
#408=VERTEX_POINT('',#1294);
#409=VERTEX_POINT('',#1298);
#410=VERTEX_POINT('',#1300);
#411=VERTEX_POINT('',#1304);
#412=VERTEX_POINT('',#1306);
#413=VERTEX_POINT('',#1310);
#414=VERTEX_POINT('',#1312);
#415=VERTEX_POINT('',#1316);
#416=VERTEX_POINT('',#1318);
#417=VERTEX_POINT('',#1326);
#418=VERTEX_POINT('',#1327);
#419=VERTEX_POINT('',#1329);
#420=VERTEX_POINT('',#1331);
#421=VERTEX_POINT('',#1335);
#422=VERTEX_POINT('',#1337);
#423=VERTEX_POINT('',#1341);
#424=VERTEX_POINT('',#1343);
#425=VERTEX_POINT('',#1347);
#426=VERTEX_POINT('',#1349);
#427=VERTEX_POINT('',#1353);
#428=VERTEX_POINT('',#1355);
#429=VERTEX_POINT('',#1365);
#430=VERTEX_POINT('',#1366);
#431=VERTEX_POINT('',#1368);
#432=VERTEX_POINT('',#1370);
#433=VERTEX_POINT('',#1372);
#434=VERTEX_POINT('',#1374);
#435=VERTEX_POINT('',#1376);
#436=VERTEX_POINT('',#1378);
#437=VERTEX_POINT('',#1381);
#438=VERTEX_POINT('',#1383);
#439=EDGE_CURVE('',#359,#360,#135,.T.);
#440=EDGE_CURVE('',#361,#359,#136,.T.);
#441=EDGE_CURVE('',#362,#361,#137,.T.);
#442=EDGE_CURVE('',#360,#362,#138,.T.);
#443=EDGE_CURVE('',#363,#359,#139,.T.);
#444=EDGE_CURVE('',#363,#364,#140,.T.);
#445=EDGE_CURVE('',#361,#364,#141,.T.);
#446=EDGE_CURVE('',#365,#365,#30,.T.);
#447=EDGE_CURVE('',#366,#360,#142,.T.);
#448=EDGE_CURVE('',#366,#367,#143,.T.);
#449=EDGE_CURVE('',#368,#367,#144,.T.);
#450=EDGE_CURVE('',#368,#369,#145,.T.);
#451=EDGE_CURVE('',#369,#370,#146,.T.);
#452=EDGE_CURVE('',#370,#371,#147,.T.);
#453=EDGE_CURVE('',#371,#372,#148,.T.);
#454=EDGE_CURVE('',#372,#373,#149,.T.);
#455=EDGE_CURVE('',#374,#373,#150,.T.);
#456=EDGE_CURVE('',#374,#375,#151,.T.);
#457=EDGE_CURVE('',#375,#376,#152,.T.);
#458=EDGE_CURVE('',#376,#377,#153,.T.);
#459=EDGE_CURVE('',#377,#378,#154,.T.);
#460=EDGE_CURVE('',#378,#363,#155,.T.);
#461=EDGE_CURVE('',#379,#380,#156,.T.);
#462=EDGE_CURVE('',#380,#381,#157,.T.);
#463=EDGE_CURVE('',#381,#382,#158,.T.);
#464=EDGE_CURVE('',#382,#379,#159,.T.);
#465=EDGE_CURVE('',#383,#383,#31,.T.);
#466=EDGE_CURVE('',#384,#384,#32,.T.);
#467=EDGE_CURVE('',#385,#386,#160,.T.);
#468=EDGE_CURVE('',#371,#385,#161,.T.);
#469=EDGE_CURVE('',#386,#370,#162,.T.);
#470=EDGE_CURVE('',#387,#386,#163,.T.);
#471=EDGE_CURVE('',#388,#387,#164,.T.);
#472=EDGE_CURVE('',#388,#389,#165,.T.);
#473=EDGE_CURVE('',#389,#390,#166,.T.);
#474=EDGE_CURVE('',#390,#391,#167,.T.);
#475=EDGE_CURVE('',#391,#392,#168,.T.);
#476=EDGE_CURVE('',#392,#385,#169,.T.);
#477=EDGE_CURVE('',#387,#369,#170,.T.);
#478=EDGE_CURVE('',#392,#372,#171,.T.);
#479=EDGE_CURVE('',#373,#391,#172,.T.);
#480=EDGE_CURVE('',#374,#390,#173,.T.);
#481=EDGE_CURVE('',#364,#393,#174,.T.);
#482=EDGE_CURVE('',#393,#378,#175,.T.);
#483=EDGE_CURVE('',#394,#393,#176,.T.);
#484=EDGE_CURVE('',#395,#394,#177,.T.);
#485=EDGE_CURVE('',#395,#396,#178,.T.);
#486=EDGE_CURVE('',#396,#397,#179,.T.);
#487=EDGE_CURVE('',#397,#362,#180,.T.);
#488=EDGE_CURVE('',#394,#377,#181,.T.);
#489=EDGE_CURVE('',#366,#397,#182,.T.);
#490=EDGE_CURVE('',#398,#398,#33,.T.);
#491=EDGE_CURVE('',#399,#400,#183,.T.);
#492=EDGE_CURVE('',#399,#376,#184,.T.);
#493=EDGE_CURVE('',#400,#375,#185,.T.);
#494=EDGE_CURVE('',#400,#401,#186,.T.);
#495=EDGE_CURVE('',#401,#402,#187,.T.);
#496=EDGE_CURVE('',#402,#399,#188,.T.);
#497=EDGE_CURVE('',#403,#403,#34,.T.);
#498=EDGE_CURVE('',#403,#398,#189,.T.);
#499=EDGE_CURVE('',#404,#404,#35,.T.);
#500=EDGE_CURVE('',#404,#365,#190,.T.);
#501=EDGE_CURVE('',#405,#406,#191,.T.);
#502=EDGE_CURVE('',#405,#407,#192,.T.);
#503=EDGE_CURVE('',#407,#408,#193,.T.);
#504=EDGE_CURVE('',#406,#408,#194,.T.);
#505=EDGE_CURVE('',#409,#405,#195,.T.);
#506=EDGE_CURVE('',#409,#410,#196,.T.);
#507=EDGE_CURVE('',#410,#407,#197,.T.);
#508=EDGE_CURVE('',#411,#409,#198,.T.);
#509=EDGE_CURVE('',#411,#412,#199,.T.);
#510=EDGE_CURVE('',#412,#410,#200,.T.);
#511=EDGE_CURVE('',#413,#411,#201,.T.);
#512=EDGE_CURVE('',#413,#414,#202,.T.);
#513=EDGE_CURVE('',#414,#412,#203,.T.);
#514=EDGE_CURVE('',#415,#413,#204,.T.);
#515=EDGE_CURVE('',#415,#416,#205,.T.);
#516=EDGE_CURVE('',#416,#414,#206,.T.);
#517=EDGE_CURVE('',#406,#415,#207,.T.);
#518=EDGE_CURVE('',#408,#416,#208,.T.);
#519=EDGE_CURVE('',#417,#418,#209,.T.);
#520=EDGE_CURVE('',#417,#419,#210,.T.);
#521=EDGE_CURVE('',#419,#420,#211,.T.);
#522=EDGE_CURVE('',#418,#420,#212,.T.);
#523=EDGE_CURVE('',#421,#417,#213,.T.);
#524=EDGE_CURVE('',#421,#422,#214,.T.);
#525=EDGE_CURVE('',#422,#419,#215,.T.);
#526=EDGE_CURVE('',#423,#421,#216,.T.);
#527=EDGE_CURVE('',#423,#424,#217,.T.);
#528=EDGE_CURVE('',#424,#422,#218,.T.);
#529=EDGE_CURVE('',#425,#423,#219,.T.);
#530=EDGE_CURVE('',#425,#426,#220,.T.);
#531=EDGE_CURVE('',#426,#424,#221,.T.);
#532=EDGE_CURVE('',#427,#425,#222,.T.);
#533=EDGE_CURVE('',#427,#428,#223,.T.);
#534=EDGE_CURVE('',#428,#426,#224,.T.);
#535=EDGE_CURVE('',#418,#427,#225,.T.);
#536=EDGE_CURVE('',#420,#428,#226,.T.);
#537=EDGE_CURVE('',#401,#389,#227,.T.);
#538=EDGE_CURVE('',#429,#430,#228,.T.);
#539=EDGE_CURVE('',#430,#431,#229,.T.);
#540=EDGE_CURVE('',#432,#431,#230,.T.);
#541=EDGE_CURVE('',#433,#432,#231,.T.);
#542=EDGE_CURVE('',#433,#434,#232,.T.);
#543=EDGE_CURVE('',#434,#435,#233,.T.);
#544=EDGE_CURVE('',#435,#436,#234,.T.);
#545=EDGE_CURVE('',#436,#429,#235,.T.);
#546=EDGE_CURVE('',#437,#437,#36,.T.);
#547=EDGE_CURVE('',#438,#438,#37,.T.);
#548=EDGE_CURVE('',#402,#395,#236,.T.);
#549=EDGE_CURVE('',#435,#380,#237,.T.);
#550=EDGE_CURVE('',#436,#379,#238,.T.);
#551=EDGE_CURVE('',#434,#381,#239,.T.);
#552=EDGE_CURVE('',#429,#382,#240,.T.);
#553=EDGE_CURVE('',#433,#396,#241,.T.);
#554=EDGE_CURVE('',#430,#388,#242,.T.);
#555=EDGE_CURVE('',#437,#383,#243,.T.);
#556=EDGE_CURVE('',#438,#384,#244,.T.);
#557=EDGE_CURVE('',#431,#368,#245,.T.);
#558=EDGE_CURVE('',#367,#432,#246,.T.);
#559=ORIENTED_EDGE('',*,*,#439,.F.);
#560=ORIENTED_EDGE('',*,*,#440,.F.);
#561=ORIENTED_EDGE('',*,*,#441,.F.);
#562=ORIENTED_EDGE('',*,*,#442,.F.);
#563=ORIENTED_EDGE('',*,*,#440,.T.);
#564=ORIENTED_EDGE('',*,*,#443,.F.);
#565=ORIENTED_EDGE('',*,*,#444,.T.);
#566=ORIENTED_EDGE('',*,*,#445,.F.);
#567=ORIENTED_EDGE('',*,*,#446,.T.);
#568=ORIENTED_EDGE('',*,*,#439,.T.);
#569=ORIENTED_EDGE('',*,*,#447,.F.);
#570=ORIENTED_EDGE('',*,*,#448,.T.);
#571=ORIENTED_EDGE('',*,*,#449,.F.);
#572=ORIENTED_EDGE('',*,*,#450,.T.);
#573=ORIENTED_EDGE('',*,*,#451,.T.);
#574=ORIENTED_EDGE('',*,*,#452,.T.);
#575=ORIENTED_EDGE('',*,*,#453,.T.);
#576=ORIENTED_EDGE('',*,*,#454,.T.);
#577=ORIENTED_EDGE('',*,*,#455,.F.);
#578=ORIENTED_EDGE('',*,*,#456,.T.);
#579=ORIENTED_EDGE('',*,*,#457,.T.);
#580=ORIENTED_EDGE('',*,*,#458,.T.);
#581=ORIENTED_EDGE('',*,*,#459,.T.);
#582=ORIENTED_EDGE('',*,*,#460,.T.);
#583=ORIENTED_EDGE('',*,*,#443,.T.);
#584=ORIENTED_EDGE('',*,*,#461,.T.);
#585=ORIENTED_EDGE('',*,*,#462,.T.);
#586=ORIENTED_EDGE('',*,*,#463,.T.);
#587=ORIENTED_EDGE('',*,*,#464,.T.);
#588=ORIENTED_EDGE('',*,*,#465,.T.);
#589=ORIENTED_EDGE('',*,*,#466,.T.);
#590=ORIENTED_EDGE('',*,*,#467,.F.);
#591=ORIENTED_EDGE('',*,*,#468,.F.);
#592=ORIENTED_EDGE('',*,*,#452,.F.);
#593=ORIENTED_EDGE('',*,*,#469,.F.);
#594=ORIENTED_EDGE('',*,*,#467,.T.);
#595=ORIENTED_EDGE('',*,*,#470,.F.);
#596=ORIENTED_EDGE('',*,*,#471,.F.);
#597=ORIENTED_EDGE('',*,*,#472,.T.);
#598=ORIENTED_EDGE('',*,*,#473,.T.);
#599=ORIENTED_EDGE('',*,*,#474,.T.);
#600=ORIENTED_EDGE('',*,*,#475,.T.);
#601=ORIENTED_EDGE('',*,*,#476,.T.);
#602=ORIENTED_EDGE('',*,*,#469,.T.);
#603=ORIENTED_EDGE('',*,*,#451,.F.);
#604=ORIENTED_EDGE('',*,*,#477,.F.);
#605=ORIENTED_EDGE('',*,*,#470,.T.);
#606=ORIENTED_EDGE('',*,*,#478,.F.);
#607=ORIENTED_EDGE('',*,*,#475,.F.);
#608=ORIENTED_EDGE('',*,*,#479,.F.);
#609=ORIENTED_EDGE('',*,*,#454,.F.);
#610=ORIENTED_EDGE('',*,*,#479,.T.);
#611=ORIENTED_EDGE('',*,*,#474,.F.);
#612=ORIENTED_EDGE('',*,*,#480,.F.);
#613=ORIENTED_EDGE('',*,*,#455,.T.);
#614=ORIENTED_EDGE('',*,*,#481,.F.);
#615=ORIENTED_EDGE('',*,*,#444,.F.);
#616=ORIENTED_EDGE('',*,*,#460,.F.);
#617=ORIENTED_EDGE('',*,*,#482,.F.);
#618=ORIENTED_EDGE('',*,*,#441,.T.);
#619=ORIENTED_EDGE('',*,*,#445,.T.);
#620=ORIENTED_EDGE('',*,*,#481,.T.);
#621=ORIENTED_EDGE('',*,*,#483,.F.);
#622=ORIENTED_EDGE('',*,*,#484,.F.);
#623=ORIENTED_EDGE('',*,*,#485,.T.);
#624=ORIENTED_EDGE('',*,*,#486,.T.);
#625=ORIENTED_EDGE('',*,*,#487,.T.);
#626=ORIENTED_EDGE('',*,*,#482,.T.);
#627=ORIENTED_EDGE('',*,*,#459,.F.);
#628=ORIENTED_EDGE('',*,*,#488,.F.);
#629=ORIENTED_EDGE('',*,*,#483,.T.);
#630=ORIENTED_EDGE('',*,*,#442,.T.);
#631=ORIENTED_EDGE('',*,*,#487,.F.);
#632=ORIENTED_EDGE('',*,*,#489,.F.);
#633=ORIENTED_EDGE('',*,*,#447,.T.);
#634=ORIENTED_EDGE('',*,*,#468,.T.);
#635=ORIENTED_EDGE('',*,*,#476,.F.);
#636=ORIENTED_EDGE('',*,*,#478,.T.);
#637=ORIENTED_EDGE('',*,*,#453,.F.);
#638=ORIENTED_EDGE('',*,*,#490,.T.);
#639=ORIENTED_EDGE('',*,*,#491,.F.);
#640=ORIENTED_EDGE('',*,*,#492,.T.);
#641=ORIENTED_EDGE('',*,*,#457,.F.);
#642=ORIENTED_EDGE('',*,*,#493,.F.);
#643=ORIENTED_EDGE('',*,*,#491,.T.);
#644=ORIENTED_EDGE('',*,*,#494,.T.);
#645=ORIENTED_EDGE('',*,*,#495,.T.);
#646=ORIENTED_EDGE('',*,*,#496,.T.);
#647=ORIENTED_EDGE('',*,*,#497,.F.);
#648=ORIENTED_EDGE('',*,*,#498,.T.);
#649=ORIENTED_EDGE('',*,*,#490,.F.);
#650=ORIENTED_EDGE('',*,*,#498,.F.);
#651=ORIENTED_EDGE('',*,*,#499,.F.);
#652=ORIENTED_EDGE('',*,*,#500,.T.);
#653=ORIENTED_EDGE('',*,*,#446,.F.);
#654=ORIENTED_EDGE('',*,*,#500,.F.);
#655=ORIENTED_EDGE('',*,*,#501,.F.);
#656=ORIENTED_EDGE('',*,*,#502,.T.);
#657=ORIENTED_EDGE('',*,*,#503,.T.);
#658=ORIENTED_EDGE('',*,*,#504,.F.);
#659=ORIENTED_EDGE('',*,*,#505,.F.);
#660=ORIENTED_EDGE('',*,*,#506,.T.);
#661=ORIENTED_EDGE('',*,*,#507,.T.);
#662=ORIENTED_EDGE('',*,*,#502,.F.);
#663=ORIENTED_EDGE('',*,*,#508,.F.);
#664=ORIENTED_EDGE('',*,*,#509,.T.);
#665=ORIENTED_EDGE('',*,*,#510,.T.);
#666=ORIENTED_EDGE('',*,*,#506,.F.);
#667=ORIENTED_EDGE('',*,*,#511,.F.);
#668=ORIENTED_EDGE('',*,*,#512,.T.);
#669=ORIENTED_EDGE('',*,*,#513,.T.);
#670=ORIENTED_EDGE('',*,*,#509,.F.);
#671=ORIENTED_EDGE('',*,*,#514,.F.);
#672=ORIENTED_EDGE('',*,*,#515,.T.);
#673=ORIENTED_EDGE('',*,*,#516,.T.);
#674=ORIENTED_EDGE('',*,*,#512,.F.);
#675=ORIENTED_EDGE('',*,*,#517,.F.);
#676=ORIENTED_EDGE('',*,*,#504,.T.);
#677=ORIENTED_EDGE('',*,*,#518,.T.);
#678=ORIENTED_EDGE('',*,*,#515,.F.);
#679=ORIENTED_EDGE('',*,*,#518,.F.);
#680=ORIENTED_EDGE('',*,*,#503,.F.);
#681=ORIENTED_EDGE('',*,*,#507,.F.);
#682=ORIENTED_EDGE('',*,*,#510,.F.);
#683=ORIENTED_EDGE('',*,*,#513,.F.);
#684=ORIENTED_EDGE('',*,*,#516,.F.);
#685=ORIENTED_EDGE('',*,*,#499,.T.);
#686=ORIENTED_EDGE('',*,*,#519,.F.);
#687=ORIENTED_EDGE('',*,*,#520,.T.);
#688=ORIENTED_EDGE('',*,*,#521,.T.);
#689=ORIENTED_EDGE('',*,*,#522,.F.);
#690=ORIENTED_EDGE('',*,*,#523,.F.);
#691=ORIENTED_EDGE('',*,*,#524,.T.);
#692=ORIENTED_EDGE('',*,*,#525,.T.);
#693=ORIENTED_EDGE('',*,*,#520,.F.);
#694=ORIENTED_EDGE('',*,*,#526,.F.);
#695=ORIENTED_EDGE('',*,*,#527,.T.);
#696=ORIENTED_EDGE('',*,*,#528,.T.);
#697=ORIENTED_EDGE('',*,*,#524,.F.);
#698=ORIENTED_EDGE('',*,*,#529,.F.);
#699=ORIENTED_EDGE('',*,*,#530,.T.);
#700=ORIENTED_EDGE('',*,*,#531,.T.);
#701=ORIENTED_EDGE('',*,*,#527,.F.);
#702=ORIENTED_EDGE('',*,*,#532,.F.);
#703=ORIENTED_EDGE('',*,*,#533,.T.);
#704=ORIENTED_EDGE('',*,*,#534,.T.);
#705=ORIENTED_EDGE('',*,*,#530,.F.);
#706=ORIENTED_EDGE('',*,*,#535,.F.);
#707=ORIENTED_EDGE('',*,*,#522,.T.);
#708=ORIENTED_EDGE('',*,*,#536,.T.);
#709=ORIENTED_EDGE('',*,*,#533,.F.);
#710=ORIENTED_EDGE('',*,*,#536,.F.);
#711=ORIENTED_EDGE('',*,*,#521,.F.);
#712=ORIENTED_EDGE('',*,*,#525,.F.);
#713=ORIENTED_EDGE('',*,*,#528,.F.);
#714=ORIENTED_EDGE('',*,*,#531,.F.);
#715=ORIENTED_EDGE('',*,*,#534,.F.);
#716=ORIENTED_EDGE('',*,*,#497,.T.);
#717=ORIENTED_EDGE('',*,*,#480,.T.);
#718=ORIENTED_EDGE('',*,*,#473,.F.);
#719=ORIENTED_EDGE('',*,*,#537,.F.);
#720=ORIENTED_EDGE('',*,*,#494,.F.);
#721=ORIENTED_EDGE('',*,*,#493,.T.);
#722=ORIENTED_EDGE('',*,*,#456,.F.);
#723=ORIENTED_EDGE('',*,*,#538,.T.);
#724=ORIENTED_EDGE('',*,*,#539,.T.);
#725=ORIENTED_EDGE('',*,*,#540,.F.);
#726=ORIENTED_EDGE('',*,*,#541,.F.);
#727=ORIENTED_EDGE('',*,*,#542,.T.);
#728=ORIENTED_EDGE('',*,*,#543,.T.);
#729=ORIENTED_EDGE('',*,*,#544,.T.);
#730=ORIENTED_EDGE('',*,*,#545,.T.);
#731=ORIENTED_EDGE('',*,*,#546,.T.);
#732=ORIENTED_EDGE('',*,*,#547,.T.);
#733=ORIENTED_EDGE('',*,*,#488,.T.);
#734=ORIENTED_EDGE('',*,*,#458,.F.);
#735=ORIENTED_EDGE('',*,*,#492,.F.);
#736=ORIENTED_EDGE('',*,*,#496,.F.);
#737=ORIENTED_EDGE('',*,*,#548,.T.);
#738=ORIENTED_EDGE('',*,*,#484,.T.);
#739=ORIENTED_EDGE('',*,*,#544,.F.);
#740=ORIENTED_EDGE('',*,*,#549,.T.);
#741=ORIENTED_EDGE('',*,*,#461,.F.);
#742=ORIENTED_EDGE('',*,*,#550,.F.);
#743=ORIENTED_EDGE('',*,*,#543,.F.);
#744=ORIENTED_EDGE('',*,*,#551,.T.);
#745=ORIENTED_EDGE('',*,*,#462,.F.);
#746=ORIENTED_EDGE('',*,*,#549,.F.);
#747=ORIENTED_EDGE('',*,*,#552,.T.);
#748=ORIENTED_EDGE('',*,*,#463,.F.);
#749=ORIENTED_EDGE('',*,*,#551,.F.);
#750=ORIENTED_EDGE('',*,*,#542,.F.);
#751=ORIENTED_EDGE('',*,*,#553,.T.);
#752=ORIENTED_EDGE('',*,*,#485,.F.);
#753=ORIENTED_EDGE('',*,*,#548,.F.);
#754=ORIENTED_EDGE('',*,*,#495,.F.);
#755=ORIENTED_EDGE('',*,*,#537,.T.);
#756=ORIENTED_EDGE('',*,*,#472,.F.);
#757=ORIENTED_EDGE('',*,*,#554,.F.);
#758=ORIENTED_EDGE('',*,*,#538,.F.);
#759=ORIENTED_EDGE('',*,*,#501,.T.);
#760=ORIENTED_EDGE('',*,*,#517,.T.);
#761=ORIENTED_EDGE('',*,*,#514,.T.);
#762=ORIENTED_EDGE('',*,*,#511,.T.);
#763=ORIENTED_EDGE('',*,*,#508,.T.);
#764=ORIENTED_EDGE('',*,*,#505,.T.);
#765=ORIENTED_EDGE('',*,*,#519,.T.);
#766=ORIENTED_EDGE('',*,*,#535,.T.);
#767=ORIENTED_EDGE('',*,*,#532,.T.);
#768=ORIENTED_EDGE('',*,*,#529,.T.);
#769=ORIENTED_EDGE('',*,*,#526,.T.);
#770=ORIENTED_EDGE('',*,*,#523,.T.);
#771=ORIENTED_EDGE('',*,*,#545,.F.);
#772=ORIENTED_EDGE('',*,*,#550,.T.);
#773=ORIENTED_EDGE('',*,*,#464,.F.);
#774=ORIENTED_EDGE('',*,*,#552,.F.);
#775=ORIENTED_EDGE('',*,*,#546,.F.);
#776=ORIENTED_EDGE('',*,*,#555,.T.);
#777=ORIENTED_EDGE('',*,*,#465,.F.);
#778=ORIENTED_EDGE('',*,*,#555,.F.);
#779=ORIENTED_EDGE('',*,*,#547,.F.);
#780=ORIENTED_EDGE('',*,*,#556,.T.);
#781=ORIENTED_EDGE('',*,*,#466,.F.);
#782=ORIENTED_EDGE('',*,*,#556,.F.);
#783=ORIENTED_EDGE('',*,*,#477,.T.);
#784=ORIENTED_EDGE('',*,*,#450,.F.);
#785=ORIENTED_EDGE('',*,*,#557,.F.);
#786=ORIENTED_EDGE('',*,*,#539,.F.);
#787=ORIENTED_EDGE('',*,*,#554,.T.);
#788=ORIENTED_EDGE('',*,*,#471,.T.);
#789=ORIENTED_EDGE('',*,*,#489,.T.);
#790=ORIENTED_EDGE('',*,*,#486,.F.);
#791=ORIENTED_EDGE('',*,*,#553,.F.);
#792=ORIENTED_EDGE('',*,*,#541,.T.);
#793=ORIENTED_EDGE('',*,*,#558,.F.);
#794=ORIENTED_EDGE('',*,*,#448,.F.);
#795=ORIENTED_EDGE('',*,*,#449,.T.);
#796=ORIENTED_EDGE('',*,*,#558,.T.);
#797=ORIENTED_EDGE('',*,*,#540,.T.);
#798=ORIENTED_EDGE('',*,*,#557,.T.);
#799=PLANE('',#895);
#800=PLANE('',#896);
#801=PLANE('',#898);
#802=PLANE('',#901);
#803=PLANE('',#902);
#804=PLANE('',#903);
#805=PLANE('',#904);
#806=PLANE('',#905);
#807=PLANE('',#906);
#808=PLANE('',#907);
#809=PLANE('',#908);
#810=PLANE('',#909);
#811=PLANE('',#910);
#812=PLANE('',#912);
#813=PLANE('',#913);
#814=PLANE('',#918);
#815=PLANE('',#919);
#816=PLANE('',#920);
#817=PLANE('',#921);
#818=PLANE('',#922);
#819=PLANE('',#923);
#820=PLANE('',#924);
#821=PLANE('',#925);
#822=PLANE('',#926);
#823=PLANE('',#927);
#824=PLANE('',#928);
#825=PLANE('',#929);
#826=PLANE('',#930);
#827=PLANE('',#931);
#828=PLANE('',#932);
#829=PLANE('',#933);
#830=PLANE('',#936);
#831=PLANE('',#937);
#832=PLANE('',#938);
#833=PLANE('',#939);
#834=PLANE('',#940);
#835=PLANE('',#943);
#836=PLANE('',#944);
#837=PLANE('',#945);
#838=ADVANCED_FACE('',(#38),#799,.F.);
#839=ADVANCED_FACE('',(#39,#19),#800,.F.);
#840=ADVANCED_FACE('',(#40,#20,#21,#22),#801,.T.);
#841=ADVANCED_FACE('',(#41),#802,.F.);
#842=ADVANCED_FACE('',(#42),#803,.T.);
#843=ADVANCED_FACE('',(#43),#804,.T.);
#844=ADVANCED_FACE('',(#44),#805,.F.);
#845=ADVANCED_FACE('',(#45),#806,.T.);
#846=ADVANCED_FACE('',(#46),#807,.F.);
#847=ADVANCED_FACE('',(#47),#808,.T.);
#848=ADVANCED_FACE('',(#48),#809,.T.);
#849=ADVANCED_FACE('',(#49),#810,.T.);
#850=ADVANCED_FACE('',(#50,#23),#811,.F.);
#851=ADVANCED_FACE('',(#51),#812,.F.);
#852=ADVANCED_FACE('',(#52),#813,.T.);
#853=ADVANCED_FACE('',(#53),#15,.F.);
#854=ADVANCED_FACE('',(#54),#16,.F.);
#855=ADVANCED_FACE('',(#55),#814,.F.);
#856=ADVANCED_FACE('',(#56),#815,.F.);
#857=ADVANCED_FACE('',(#57),#816,.F.);
#858=ADVANCED_FACE('',(#58),#817,.F.);
#859=ADVANCED_FACE('',(#59),#818,.F.);
#860=ADVANCED_FACE('',(#60),#819,.F.);
#861=ADVANCED_FACE('',(#61,#24),#820,.F.);
#862=ADVANCED_FACE('',(#62),#821,.F.);
#863=ADVANCED_FACE('',(#63),#822,.F.);
#864=ADVANCED_FACE('',(#64),#823,.F.);
#865=ADVANCED_FACE('',(#65),#824,.F.);
#866=ADVANCED_FACE('',(#66),#825,.F.);
#867=ADVANCED_FACE('',(#67),#826,.F.);
#868=ADVANCED_FACE('',(#68,#25),#827,.F.);
#869=ADVANCED_FACE('',(#69),#828,.T.);
#870=ADVANCED_FACE('',(#70,#26,#27),#829,.T.);
#871=ADVANCED_FACE('',(#71),#830,.T.);
#872=ADVANCED_FACE('',(#72),#831,.F.);
#873=ADVANCED_FACE('',(#73),#832,.F.);
#874=ADVANCED_FACE('',(#74,#28,#29),#833,.F.);
#875=ADVANCED_FACE('',(#75),#834,.F.);
#876=ADVANCED_FACE('',(#76),#17,.F.);
#877=ADVANCED_FACE('',(#77),#18,.F.);
#878=ADVANCED_FACE('',(#78),#835,.T.);
#879=ADVANCED_FACE('',(#79),#836,.T.);
#880=ADVANCED_FACE('',(#80),#837,.T.);
#881=CLOSED_SHELL('',(#838,#839,#840,#841,#842,#843,#844,#845,#846,#847,
#848,#849,#850,#851,#852,#853,#854,#855,#856,#857,#858,#859,#860,#861,#862,
#863,#864,#865,#866,#867,#868,#869,#870,#871,#872,#873,#874,#875,#876,#877,
#878,#879,#880));
#882=DERIVED_UNIT_ELEMENT(#884,1.);
#883=DERIVED_UNIT_ELEMENT(#1411,-3.);
#884=(
MASS_UNIT()
NAMED_UNIT(*)
SI_UNIT(.KILO.,.GRAM.)
);
#885=DERIVED_UNIT((#882,#883));
#886=MEASURE_REPRESENTATION_ITEM('density measure',
POSITIVE_RATIO_MEASURE(7850.),#885);
#887=PROPERTY_DEFINITION_REPRESENTATION(#892,#889);
#888=PROPERTY_DEFINITION_REPRESENTATION(#893,#890);
#889=REPRESENTATION('material name',(#891),#1408);
#890=REPRESENTATION('density',(#886),#1408);
#891=DESCRIPTIVE_REPRESENTATION_ITEM('Steel','Steel');
#892=PROPERTY_DEFINITION('material property','material name',#1418);
#893=PROPERTY_DEFINITION('material property','density of part',#1418);
#894=AXIS2_PLACEMENT_3D('',#1162,#946,#947);
#895=AXIS2_PLACEMENT_3D('',#1163,#948,#949);
#896=AXIS2_PLACEMENT_3D('',#1172,#954,#955);
#897=AXIS2_PLACEMENT_3D('',#1179,#959,#960);
#898=AXIS2_PLACEMENT_3D('',#1180,#961,#962);
#899=AXIS2_PLACEMENT_3D('',#1217,#981,#982);
#900=AXIS2_PLACEMENT_3D('',#1219,#983,#984);
#901=AXIS2_PLACEMENT_3D('',#1220,#985,#986);
#902=AXIS2_PLACEMENT_3D('',#1226,#990,#991);
#903=AXIS2_PLACEMENT_3D('',#1240,#999,#1000);
#904=AXIS2_PLACEMENT_3D('',#1242,#1002,#1003);
#905=AXIS2_PLACEMENT_3D('',#1245,#1006,#1007);
#906=AXIS2_PLACEMENT_3D('',#1247,#1009,#1010);
#907=AXIS2_PLACEMENT_3D('',#1251,#1013,#1014);
#908=AXIS2_PLACEMENT_3D('',#1261,#1020,#1021);
#909=AXIS2_PLACEMENT_3D('',#1263,#1023,#1024);
#910=AXIS2_PLACEMENT_3D('',#1265,#1026,#1027);
#911=AXIS2_PLACEMENT_3D('',#1267,#1028,#1029);
#912=AXIS2_PLACEMENT_3D('',#1268,#1030,#1031);
#913=AXIS2_PLACEMENT_3D('',#1274,#1035,#1036);
#914=AXIS2_PLACEMENT_3D('',#1280,#1040,#1041);
#915=AXIS2_PLACEMENT_3D('',#1282,#1042,#1043);
#916=AXIS2_PLACEMENT_3D('',#1284,#1045,#1046);
#917=AXIS2_PLACEMENT_3D('',#1286,#1047,#1048);
#918=AXIS2_PLACEMENT_3D('',#1288,#1050,#1051);
#919=AXIS2_PLACEMENT_3D('',#1297,#1056,#1057);
#920=AXIS2_PLACEMENT_3D('',#1303,#1061,#1062);
#921=AXIS2_PLACEMENT_3D('',#1309,#1066,#1067);
#922=AXIS2_PLACEMENT_3D('',#1315,#1071,#1072);
#923=AXIS2_PLACEMENT_3D('',#1321,#1076,#1077);
#924=AXIS2_PLACEMENT_3D('',#1324,#1080,#1081);
#925=AXIS2_PLACEMENT_3D('',#1325,#1082,#1083);
#926=AXIS2_PLACEMENT_3D('',#1334,#1088,#1089);
#927=AXIS2_PLACEMENT_3D('',#1340,#1093,#1094);
#928=AXIS2_PLACEMENT_3D('',#1346,#1098,#1099);
#929=AXIS2_PLACEMENT_3D('',#1352,#1103,#1104);
#930=AXIS2_PLACEMENT_3D('',#1358,#1108,#1109);
#931=AXIS2_PLACEMENT_3D('',#1361,#1112,#1113);
#932=AXIS2_PLACEMENT_3D('',#1362,#1114,#1115);
#933=AXIS2_PLACEMENT_3D('',#1364,#1117,#1118);
#934=AXIS2_PLACEMENT_3D('',#1382,#1127,#1128);
#935=AXIS2_PLACEMENT_3D('',#1384,#1129,#1130);
#936=AXIS2_PLACEMENT_3D('',#1385,#1131,#1132);
#937=AXIS2_PLACEMENT_3D('',#1387,#1134,#1135);
#938=AXIS2_PLACEMENT_3D('',#1390,#1138,#1139);
#939=AXIS2_PLACEMENT_3D('',#1392,#1141,#1142);
#940=AXIS2_PLACEMENT_3D('',#1396,#1146,#1147);
#941=AXIS2_PLACEMENT_3D('',#1397,#1148,#1149);
#942=AXIS2_PLACEMENT_3D('',#1399,#1151,#1152);
#943=AXIS2_PLACEMENT_3D('',#1401,#1154,#1155);
#944=AXIS2_PLACEMENT_3D('',#1403,#1157,#1158);
#945=AXIS2_PLACEMENT_3D('',#1405,#1160,#1161);
#946=DIRECTION('axis',(0.,0.,1.));
#947=DIRECTION('refdir',(1.,0.,0.));
#948=DIRECTION('center_axis',(0.,1.,0.));
#949=DIRECTION('ref_axis',(0.,0.,1.));
#950=DIRECTION('',(0.,0.,1.));
#951=DIRECTION('',(-1.,0.,0.));
#952=DIRECTION('',(0.,0.,-1.));
#953=DIRECTION('',(1.,0.,0.));
#954=DIRECTION('center_axis',(0.,0.,1.));
#955=DIRECTION('ref_axis',(1.,0.,0.));
#956=DIRECTION('',(0.,-1.,0.));
#957=DIRECTION('',(1.,0.,0.));
#958=DIRECTION('',(0.,1.,0.));
#959=DIRECTION('center_axis',(0.,0.,1.));
#960=DIRECTION('ref_axis',(-1.,0.,0.));
#961=DIRECTION('center_axis',(-1.,1.6291854514454E-33,0.));
#962=DIRECTION('ref_axis',(-1.6291854514454E-33,-1.,0.));
#963=DIRECTION('',(0.,-1.,0.));
#964=DIRECTION('',(0.,0.,1.));
#965=DIRECTION('',(-1.6291854514454E-33,-1.,0.));
#966=DIRECTION('',(0.,0.,-1.));
#967=DIRECTION('',(0.,1.,0.));
#968=DIRECTION('',(0.,0.,-1.));
#969=DIRECTION('',(0.,-1.,0.));
#970=DIRECTION('',(0.,0.,1.));
#971=DIRECTION('',(0.,-1.,0.));
#972=DIRECTION('',(0.,0.,1.));
#973=DIRECTION('',(-1.6291854514454E-33,-1.,0.));
#974=DIRECTION('',(0.,0.,-1.));
#975=DIRECTION('',(0.,1.,0.));
#976=DIRECTION('',(0.,0.,-1.));
#977=DIRECTION('',(-1.6291854514454E-33,-1.,0.));
#978=DIRECTION('',(0.,0.,-1.));
#979=DIRECTION('',(1.6291854514454E-33,1.,0.));
#980=DIRECTION('',(0.,0.,1.));
#981=DIRECTION('center_axis',(1.,-1.6291854514454E-33,0.));
#982=DIRECTION('ref_axis',(0.,1.,0.));
#983=DIRECTION('center_axis',(1.,-1.6291854514454E-33,0.));
#984=DIRECTION('ref_axis',(0.,1.,0.));
#985=DIRECTION('center_axis',(0.,-1.,0.));
#986=DIRECTION('ref_axis',(0.,0.,-1.));
#987=DIRECTION('',(0.,0.,1.));
#988=DIRECTION('',(1.,0.,0.));
#989=DIRECTION('',(-1.,0.,0.));
#990=DIRECTION('center_axis',(1.,0.,0.));
#991=DIRECTION('ref_axis',(0.,0.,-1.));
#992=DIRECTION('',(0.,1.,0.));
#993=DIRECTION('',(0.,0.,-1.));
#994=DIRECTION('',(0.,-1.,0.));
#995=DIRECTION('',(0.,0.,-1.));
#996=DIRECTION('',(0.,-1.,0.));
#997=DIRECTION('',(0.,0.,-1.));
#998=DIRECTION('',(0.,1.,0.));
#999=DIRECTION('center_axis',(0.,0.,1.));
#1000=DIRECTION('ref_axis',(1.,0.,0.));
#1001=DIRECTION('',(-1.,0.,0.));
#1002=DIRECTION('center_axis',(0.,1.,0.));
#1003=DIRECTION('ref_axis',(0.,0.,1.));
#1004=DIRECTION('',(-1.,0.,0.));
#1005=DIRECTION('',(1.,0.,0.));
#1006=DIRECTION('center_axis',(0.,0.,1.));
#1007=DIRECTION('ref_axis',(-1.,0.,0.));
#1008=DIRECTION('',(1.,0.,0.));
#1009=DIRECTION('center_axis',(0.,-1.,0.));
#1010=DIRECTION('ref_axis',(0.,0.,-1.));
#1011=DIRECTION('',(0.,0.,1.));
#1012=DIRECTION('',(-1.,0.,0.));
#1013=DIRECTION('center_axis',(1.,0.,0.));
#1014=DIRECTION('ref_axis',(0.,0.,-1.));
#1015=DIRECTION('',(0.,1.,0.));
#1016=DIRECTION('',(0.,0.,-1.));
#1017=DIRECTION('',(0.,-1.,0.));
#1018=DIRECTION('',(0.,0.,-1.));
#1019=DIRECTION('',(0.,-1.,0.));
#1020=DIRECTION('center_axis',(0.,0.,1.));
#1021=DIRECTION('ref_axis',(1.,0.,0.));
#1022=DIRECTION('',(-1.,0.,0.));
#1023=DIRECTION('center_axis',(0.,0.,1.));
#1024=DIRECTION('ref_axis',(-1.,0.,0.));
#1025=DIRECTION('',(1.,0.,0.));
#1026=DIRECTION('center_axis',(0.,0.,1.));
#1027=DIRECTION('ref_axis',(1.,0.,0.));
#1028=DIRECTION('center_axis',(0.,0.,1.));
#1029=DIRECTION('ref_axis',(-1.,0.,0.));
#1030=DIRECTION('center_axis',(0.,0.,1.));
#1031=DIRECTION('ref_axis',(0.,1.,0.));
#1032=DIRECTION('',(0.,1.,0.));
#1033=DIRECTION('',(-1.,0.,0.));
#1034=DIRECTION('',(-1.,0.,0.));
#1035=DIRECTION('center_axis',(1.,0.,0.));
#1036=DIRECTION('ref_axis',(0.,1.,0.));
#1037=DIRECTION('',(0.,0.,1.));
#1038=DIRECTION('',(0.,-1.,0.));
#1039=DIRECTION('',(0.,0.,-1.));
#1040=DIRECTION('center_axis',(0.,0.,-1.));
#1041=DIRECTION('ref_axis',(-1.,0.,0.));
#1042=DIRECTION('center_axis',(0.,0.,-1.));
#1043=DIRECTION('ref_axis',(-1.,0.,0.));
#1044=DIRECTION('',(0.,0.,-1.));
#1045=DIRECTION('center_axis',(0.,0.,-1.));
#1046=DIRECTION('ref_axis',(-1.,0.,0.));
#1047=DIRECTION('center_axis',(0.,0.,-1.));
#1048=DIRECTION('ref_axis',(-1.,0.,0.));
#1049=DIRECTION('',(0.,0.,-1.));
#1050=DIRECTION('center_axis',(-0.5,-0.866025403784439,0.));
#1051=DIRECTION('ref_axis',(-0.866025403784439,0.5,0.));
#1052=DIRECTION('',(-0.866025403784439,0.5,0.));
#1053=DIRECTION('',(0.,0.,-1.));
#1054=DIRECTION('',(-0.866025403784439,0.5,0.));
#1055=DIRECTION('',(0.,0.,-1.));
#1056=DIRECTION('center_axis',(0.5,-0.866025403784439,0.));
#1057=DIRECTION('ref_axis',(-0.866025403784439,-0.5,0.));
#1058=DIRECTION('',(-0.866025403784439,-0.5,0.));
#1059=DIRECTION('',(0.,0.,-1.));
#1060=DIRECTION('',(-0.866025403784439,-0.5,0.));
#1061=DIRECTION('center_axis',(1.,0.,0.));
#1062=DIRECTION('ref_axis',(0.,-1.,0.));
#1063=DIRECTION('',(0.,-1.,0.));
#1064=DIRECTION('',(0.,0.,-1.));
#1065=DIRECTION('',(0.,-1.,0.));
#1066=DIRECTION('center_axis',(0.500000000000001,0.866025403784438,0.));
#1067=DIRECTION('ref_axis',(0.866025403784438,-0.500000000000001,0.));
#1068=DIRECTION('',(0.866025403784438,-0.500000000000001,0.));
#1069=DIRECTION('',(0.,0.,-1.));
#1070=DIRECTION('',(0.866025403784438,-0.500000000000001,0.));
#1071=DIRECTION('center_axis',(-0.499999999999999,0.866025403784439,0.));
#1072=DIRECTION('ref_axis',(0.866025403784439,0.499999999999999,0.));
#1073=DIRECTION('',(0.866025403784439,0.499999999999999,0.));
#1074=DIRECTION('',(0.,0.,-1.));
#1075=DIRECTION('',(0.866025403784439,0.499999999999999,0.));
#1076=DIRECTION('center_axis',(-1.,3.33847688608257E-16,0.));
#1077=DIRECTION('ref_axis',(3.33847688608257E-16,1.,0.));
#1078=DIRECTION('',(3.33847688608257E-16,1.,0.));
#1079=DIRECTION('',(3.33847688608257E-16,1.,0.));
#1080=DIRECTION('center_axis',(0.,0.,-1.));
#1081=DIRECTION('ref_axis',(-1.,0.,0.));
#1082=DIRECTION('center_axis',(-0.5,-0.866025403784439,0.));
#1083=DIRECTION('ref_axis',(-0.866025403784439,0.5,0.));
#1084=DIRECTION('',(-0.866025403784439,0.5,0.));
#1085=DIRECTION('',(0.,0.,-1.));
#1086=DIRECTION('',(-0.866025403784439,0.5,0.));
#1087=DIRECTION('',(0.,0.,-1.));
#1088=DIRECTION('center_axis',(0.5,-0.866025403784439,0.));
#1089=DIRECTION('ref_axis',(-0.866025403784439,-0.5,0.));
#1090=DIRECTION('',(-0.866025403784439,-0.5,0.));
#1091=DIRECTION('',(0.,0.,-1.));
#1092=DIRECTION('',(-0.866025403784439,-0.5,0.));
#1093=DIRECTION('center_axis',(1.,0.,0.));
#1094=DIRECTION('ref_axis',(0.,-1.,0.));
#1095=DIRECTION('',(0.,-1.,0.));
#1096=DIRECTION('',(0.,0.,-1.));
#1097=DIRECTION('',(0.,-1.,0.));
#1098=DIRECTION('center_axis',(0.5,0.866025403784439,0.));
#1099=DIRECTION('ref_axis',(0.866025403784439,-0.5,0.));
#1100=DIRECTION('',(0.866025403784439,-0.5,0.));
#1101=DIRECTION('',(0.,0.,-1.));
#1102=DIRECTION('',(0.866025403784439,-0.5,0.));
#1103=DIRECTION('center_axis',(-0.5,0.866025403784439,0.));
#1104=DIRECTION('ref_axis',(0.866025403784439,0.5,0.));
#1105=DIRECTION('',(0.866025403784439,0.5,0.));
#1106=DIRECTION('',(0.,0.,-1.));
#1107=DIRECTION('',(0.866025403784439,0.5,0.));
#1108=DIRECTION('center_axis',(-1.,3.34428293284098E-16,0.));
#1109=DIRECTION('ref_axis',(3.34428293284098E-16,1.,0.));
#1110=DIRECTION('',(3.34428293284098E-16,1.,0.));
#1111=DIRECTION('',(3.34428293284098E-16,1.,0.));
#1112=DIRECTION('center_axis',(0.,0.,-1.));
#1113=DIRECTION('ref_axis',(-1.,0.,0.));
#1114=DIRECTION('center_axis',(0.,-1.,0.));
#1115=DIRECTION('ref_axis',(0.,0.,-1.));
#1116=DIRECTION('',(1.,0.,0.));
#1117=DIRECTION('center_axis',(1.,0.,0.));
#1118=DIRECTION('ref_axis',(0.,1.,0.));
#1119=DIRECTION('',(0.,1.,0.));
#1120=DIRECTION('',(0.,0.,1.));
#1121=DIRECTION('',(0.,1.,0.));
#1122=DIRECTION('',(0.,0.,1.));
#1123=DIRECTION('',(0.,1.,0.));
#1124=DIRECTION('',(0.,0.,1.));
#1125=DIRECTION('',(0.,1.,0.));
#1126=DIRECTION('',(0.,0.,-1.));
#1127=DIRECTION('center_axis',(-1.,0.,0.));
#1128=DIRECTION('ref_axis',(0.,1.,0.));
#1129=DIRECTION('center_axis',(-1.,0.,0.));
#1130=DIRECTION('ref_axis',(0.,1.,0.));
#1131=DIRECTION('center_axis',(0.,1.,0.));
#1132=DIRECTION('ref_axis',(0.,0.,1.));
#1133=DIRECTION('',(1.,0.,0.));
#1134=DIRECTION('center_axis',(0.,0.,1.));
#1135=DIRECTION('ref_axis',(0.,1.,0.));
#1136=DIRECTION('',(-1.,0.,0.));
#1137=DIRECTION('',(-1.,0.,0.));
#1138=DIRECTION('center_axis',(0.,-1.,0.));
#1139=DIRECTION('ref_axis',(0.,0.,1.));
#1140=DIRECTION('',(-1.,0.,0.));
#1141=DIRECTION('center_axis',(0.,0.,-1.));
#1142=DIRECTION('ref_axis',(0.,-1.,0.));
#1143=DIRECTION('',(-1.,0.,0.));
#1144=DIRECTION('',(1.,0.,0.));
#1145=DIRECTION('',(1.,0.,0.));
#1146=DIRECTION('center_axis',(0.,1.,0.));
#1147=DIRECTION('ref_axis',(0.,0.,-1.));
#1148=DIRECTION('center_axis',(-1.,0.,0.));
#1149=DIRECTION('ref_axis',(0.,1.,0.));
#1150=DIRECTION('',(-1.,0.,0.));
#1151=DIRECTION('center_axis',(-1.,0.,0.));
#1152=DIRECTION('ref_axis',(0.,1.,0.));
#1153=DIRECTION('',(-1.,0.,0.));
#1154=DIRECTION('center_axis',(0.,1.,0.));
#1155=DIRECTION('ref_axis',(-1.,0.,0.));
#1156=DIRECTION('',(-1.,0.,0.));
#1157=DIRECTION('center_axis',(0.,-1.,0.));
#1158=DIRECTION('ref_axis',(1.,0.,0.));
#1159=DIRECTION('',(1.,0.,0.));
#1160=DIRECTION('center_axis',(0.,0.,1.));
#1161=DIRECTION('ref_axis',(1.,0.,0.));
#1162=CARTESIAN_POINT('',(0.,0.,0.));
#1163=CARTESIAN_POINT('Origin',(7.55,-4.9,-1.25));
#1164=CARTESIAN_POINT('',(0.,-4.9,-2.5));
#1165=CARTESIAN_POINT('',(0.,-4.9,0.));
#1166=CARTESIAN_POINT('',(0.,-4.9,-0.625));
#1167=CARTESIAN_POINT('',(15.1,-4.9,-2.5));
#1168=CARTESIAN_POINT('',(4.775,-4.9,-2.5));
#1169=CARTESIAN_POINT('',(15.1,-4.9,0.));
#1170=CARTESIAN_POINT('',(15.1,-4.9,0.625000018626451));
#1171=CARTESIAN_POINT('',(11.325,-4.9,0.));
#1172=CARTESIAN_POINT('Origin',(2.,16.55,-2.5));
#1173=CARTESIAN_POINT('',(0.,12.4,-2.5));
#1174=CARTESIAN_POINT('',(0.,0.,-2.5));
#1175=CARTESIAN_POINT('',(15.1,12.4,-2.5));
#1176=CARTESIAN_POINT('',(4.775,12.4,-2.5));
#1177=CARTESIAN_POINT('',(15.1,7.5,-2.5));
#1178=CARTESIAN_POINT('',(12.85,3.75,-2.5));
#1179=CARTESIAN_POINT('Origin',(11.35,3.75,-2.5));
#1180=CARTESIAN_POINT('Origin',(5.39260384428426E-32,33.1,0.));
#1181=CARTESIAN_POINT('',(0.,0.,0.));
#1182=CARTESIAN_POINT('',(0.,0.,0.));
#1183=CARTESIAN_POINT('',(0.,0.,22.5));
#1184=CARTESIAN_POINT('',(0.,0.,0.));
#1185=CARTESIAN_POINT('',(5.39260384428426E-32,33.1,22.5));
#1186=CARTESIAN_POINT('',(5.39260384428426E-32,33.1,22.5));
#1187=CARTESIAN_POINT('',(5.39260384428426E-33,33.1,0.));
#1188=CARTESIAN_POINT('',(5.39260384428426E-32,33.1,0.));
#1189=CARTESIAN_POINT('',(0.,38.,0.));
#1190=CARTESIAN_POINT('',(5.39260384428426E-33,33.1,0.));
#1191=CARTESIAN_POINT('',(0.,38.,-2.5));
#1192=CARTESIAN_POINT('',(0.,38.,-0.625));
#1193=CARTESIAN_POINT('',(0.,20.7,-2.5));
#1194=CARTESIAN_POINT('',(0.,25.6,-2.5));
#1195=CARTESIAN_POINT('',(0.,20.7,0.));
#1196=CARTESIAN_POINT('',(0.,20.7,-0.625));
#1197=CARTESIAN_POINT('',(0.,25.6,0.));
#1198=CARTESIAN_POINT('',(0.,25.6,0.));
#1199=CARTESIAN_POINT('',(0.,25.6,2.6));
#1200=CARTESIAN_POINT('',(0.,25.6,1.3));
#1201=CARTESIAN_POINT('',(0.,7.5,2.6));
#1202=CARTESIAN_POINT('',(0.,20.3,2.6));
#1203=CARTESIAN_POINT('',(0.,7.5,0.));
#1204=CARTESIAN_POINT('',(0.,7.5,0.));
#1205=CARTESIAN_POINT('',(0.,12.4,0.));
#1206=CARTESIAN_POINT('',(0.,7.5,0.));
#1207=CARTESIAN_POINT('',(0.,12.4,-0.625));
#1208=CARTESIAN_POINT('',(0.,28.1,17.5));
#1209=CARTESIAN_POINT('',(0.,5.,17.5));
#1210=CARTESIAN_POINT('',(0.,19.05,17.5));
#1211=CARTESIAN_POINT('',(0.,5.,5.));
#1212=CARTESIAN_POINT('',(0.,5.,2.5));
#1213=CARTESIAN_POINT('',(0.,28.1,5.));
#1214=CARTESIAN_POINT('',(0.,30.6,5.));
#1215=CARTESIAN_POINT('',(0.,28.1,8.75));
#1216=CARTESIAN_POINT('',(0.,1.4,11.25));
#1217=CARTESIAN_POINT('Origin',(0.,2.5,11.25));
#1218=CARTESIAN_POINT('',(0.,29.5,11.25));
#1219=CARTESIAN_POINT('Origin',(0.,30.6,11.25));
#1220=CARTESIAN_POINT('Origin',(7.55,38.,-1.25));
#1221=CARTESIAN_POINT('',(15.1,38.,-2.5));
#1222=CARTESIAN_POINT('',(15.1,38.,0.));
#1223=CARTESIAN_POINT('',(15.1,38.,0.625));
#1224=CARTESIAN_POINT('',(4.775,38.,-2.5));
#1225=CARTESIAN_POINT('',(3.775,38.,0.));
#1226=CARTESIAN_POINT('Origin',(15.1,29.35,2.5));
#1227=CARTESIAN_POINT('',(15.1,33.1,0.));
#1228=CARTESIAN_POINT('',(15.1,33.1,0.));
#1229=CARTESIAN_POINT('',(15.1,33.1,5.));
#1230=CARTESIAN_POINT('',(15.1,33.1,0.));
#1231=CARTESIAN_POINT('',(15.1,25.6,5.));
#1232=CARTESIAN_POINT('',(15.1,33.1,5.));
#1233=CARTESIAN_POINT('',(15.1,25.6,0.));
#1234=CARTESIAN_POINT('',(15.1,25.6,5.));
#1235=CARTESIAN_POINT('',(15.1,20.7,0.));
#1236=CARTESIAN_POINT('',(15.1,25.6,0.));
#1237=CARTESIAN_POINT('',(15.1,20.7,-2.5));
#1238=CARTESIAN_POINT('',(15.1,20.7,0.625));
#1239=CARTESIAN_POINT('',(15.1,33.1,-2.5));
#1240=CARTESIAN_POINT('Origin',(5.39260384428426E-33,33.1,0.));
#1241=CARTESIAN_POINT('',(2.,33.1,0.));
#1242=CARTESIAN_POINT('Origin',(7.55,20.7,-1.25));
#1243=CARTESIAN_POINT('',(4.775,20.7,-2.5));
#1244=CARTESIAN_POINT('',(11.325,20.7,0.));
#1245=CARTESIAN_POINT('Origin',(15.1,25.6,0.));
#1246=CARTESIAN_POINT('',(9.55,25.6,0.));
#1247=CARTESIAN_POINT('Origin',(7.55,12.4,-1.25));
#1248=CARTESIAN_POINT('',(15.1,12.4,0.));
#1249=CARTESIAN_POINT('',(15.1,12.4,0.625000018626451));
#1250=CARTESIAN_POINT('',(3.775,12.4,0.));
#1251=CARTESIAN_POINT('Origin',(15.1,3.75,2.5000000372529));
#1252=CARTESIAN_POINT('',(15.1,7.5,0.));
#1253=CARTESIAN_POINT('',(15.1,7.5,0.));
#1254=CARTESIAN_POINT('',(15.1,7.5,5.00000007450581));
#1255=CARTESIAN_POINT('',(15.1,7.5,0.));
#1256=CARTESIAN_POINT('',(15.1,0.,5.00000007450581));
#1257=CARTESIAN_POINT('',(15.1,0.,5.00000007450581));
#1258=CARTESIAN_POINT('',(15.1,0.,0.));
#1259=CARTESIAN_POINT('',(15.1,0.,22.5));
#1260=CARTESIAN_POINT('',(15.1,0.,0.));
#1261=CARTESIAN_POINT('Origin',(0.,7.5,0.));
#1262=CARTESIAN_POINT('',(2.,7.5,0.));
#1263=CARTESIAN_POINT('Origin',(15.1,0.,0.));
#1264=CARTESIAN_POINT('',(7.55,0.,0.));
#1265=CARTESIAN_POINT('Origin',(2.,16.55,-2.5));
#1266=CARTESIAN_POINT('',(12.85,29.35,-2.5));
#1267=CARTESIAN_POINT('Origin',(11.35,29.35,-2.5));
#1268=CARTESIAN_POINT('Origin',(4.,7.5,2.6));
#1269=CARTESIAN_POINT('',(4.,7.5,2.6));
#1270=CARTESIAN_POINT('',(4.,25.6,2.6));
#1271=CARTESIAN_POINT('',(4.,3.75,2.6));
#1272=CARTESIAN_POINT('',(4.,7.5,2.6));
#1273=CARTESIAN_POINT('',(4.,25.6,2.6));
#1274=CARTESIAN_POINT('Origin',(4.,0.,0.));
#1275=CARTESIAN_POINT('',(4.,25.6,5.));
#1276=CARTESIAN_POINT('',(4.,25.6,2.5));
#1277=CARTESIAN_POINT('',(4.,7.5,5.00000007450581));
#1278=CARTESIAN_POINT('',(4.,14.05,5.));
#1279=CARTESIAN_POINT('',(4.,7.5,0.));
#1280=CARTESIAN_POINT('Origin',(11.35,29.35,2.4));
#1281=CARTESIAN_POINT('',(12.85,29.35,2.4));
#1282=CARTESIAN_POINT('Origin',(11.35,29.35,2.4));
#1283=CARTESIAN_POINT('',(12.85,29.35,2.4));
#1284=CARTESIAN_POINT('Origin',(11.35,3.75,2.4));
#1285=CARTESIAN_POINT('',(12.85,3.75,2.4));
#1286=CARTESIAN_POINT('Origin',(11.35,3.75,2.4));
#1287=CARTESIAN_POINT('',(12.85,3.75,2.4));
#1288=CARTESIAN_POINT('Origin',(11.35,0.424462449467757,5.));
#1289=CARTESIAN_POINT('',(11.35,0.424462449467757,5.));
#1290=CARTESIAN_POINT('',(8.47,2.08723122473388,5.));
#1291=CARTESIAN_POINT('',(2.60182035446223,5.47522632273819,5.));
#1292=CARTESIAN_POINT('',(11.35,0.424462449467757,2.4));
#1293=CARTESIAN_POINT('',(11.35,0.424462449467757,5.));
#1294=CARTESIAN_POINT('',(8.47,2.08723122473388,2.4));
#1295=CARTESIAN_POINT('',(8.47,2.08723122473388,2.4));
#1296=CARTESIAN_POINT('',(8.47,2.08723122473388,5.));
#1297=CARTESIAN_POINT('Origin',(14.23,2.08723122473388,5.));
#1298=CARTESIAN_POINT('',(14.23,2.08723122473388,5.));
#1299=CARTESIAN_POINT('',(16.0256796455378,3.12396735146344,5.));
#1300=CARTESIAN_POINT('',(14.23,2.08723122473388,2.4));
#1301=CARTESIAN_POINT('',(14.23,2.08723122473388,5.));
#1302=CARTESIAN_POINT('',(11.35,0.424462449467757,2.4));
#1303=CARTESIAN_POINT('Origin',(14.23,5.41276877526612,5.));
#1304=CARTESIAN_POINT('',(14.23,5.41276877526612,5.));
#1305=CARTESIAN_POINT('',(14.23,16.7563843876331,5.));
#1306=CARTESIAN_POINT('',(14.23,5.41276877526612,2.4));
#1307=CARTESIAN_POINT('',(14.23,5.41276877526612,5.));
#1308=CARTESIAN_POINT('',(14.23,2.08723122473388,2.4));
#1309=CARTESIAN_POINT('Origin',(11.35,7.07553755053225,5.));
#1310=CARTESIAN_POINT('',(11.35,7.07553755053225,5.));
#1311=CARTESIAN_POINT('',(4.04182035446223,11.2949170361696,5.));
#1312=CARTESIAN_POINT('',(11.35,7.07553755053225,2.4));
#1313=CARTESIAN_POINT('',(11.35,7.07553755053225,5.));
#1314=CARTESIAN_POINT('',(14.23,5.41276877526612,2.4));
#1315=CARTESIAN_POINT('Origin',(8.47,5.41276877526613,5.));
#1316=CARTESIAN_POINT('',(8.47,5.41276877526613,5.));
#1317=CARTESIAN_POINT('',(11.7056796455378,7.28088928962874,5.));
#1318=CARTESIAN_POINT('',(8.47,5.41276877526613,2.4));
#1319=CARTESIAN_POINT('',(8.47,5.41276877526613,5.));
#1320=CARTESIAN_POINT('',(11.35,7.07553755053225,2.4));
#1321=CARTESIAN_POINT('Origin',(8.47,2.08723122473388,5.));
#1322=CARTESIAN_POINT('',(8.47,15.0936156123669,5.));
#1323=CARTESIAN_POINT('',(8.47,5.41276877526613,2.4));
#1324=CARTESIAN_POINT('Origin',(11.35,3.75,2.4));
#1325=CARTESIAN_POINT('Origin',(11.35,26.0302359521597,5.));
#1326=CARTESIAN_POINT('',(11.35,26.0302359521597,5.));
#1327=CARTESIAN_POINT('',(8.475,27.6901179760798,5.));
#1328=CARTESIAN_POINT('',(8.14563293868263,27.8802781375936,5.));
#1329=CARTESIAN_POINT('',(11.35,26.0302359521597,2.4));
#1330=CARTESIAN_POINT('',(11.35,26.0302359521597,5.));
#1331=CARTESIAN_POINT('',(8.475,27.6901179760798,2.4));
#1332=CARTESIAN_POINT('',(8.475,27.6901179760798,2.4));
#1333=CARTESIAN_POINT('',(8.475,27.6901179760798,5.));
#1334=CARTESIAN_POINT('Origin',(14.225,27.6901179760798,5.));
#1335=CARTESIAN_POINT('',(14.225,27.6901179760798,5.));
#1336=CARTESIAN_POINT('',(10.4793670613174,25.5275757906459,5.));
#1337=CARTESIAN_POINT('',(14.225,27.6901179760798,2.4));
#1338=CARTESIAN_POINT('',(14.225,27.6901179760798,5.));
#1339=CARTESIAN_POINT('',(11.35,26.0302359521597,2.4));
#1340=CARTESIAN_POINT('Origin',(14.225,31.0098820239202,5.));
#1341=CARTESIAN_POINT('',(14.225,31.0098820239202,5.));
#1342=CARTESIAN_POINT('',(14.225,29.5549410119601,5.));
#1343=CARTESIAN_POINT('',(14.225,31.0098820239202,2.4));
#1344=CARTESIAN_POINT('',(14.225,31.0098820239202,5.));
#1345=CARTESIAN_POINT('',(14.225,27.6901179760798,2.4));
#1346=CARTESIAN_POINT('Origin',(11.35,32.6697640478404,5.));
#1347=CARTESIAN_POINT('',(11.35,32.6697640478404,5.));
#1348=CARTESIAN_POINT('',(9.58313293868263,33.6898652213142,5.));
#1349=CARTESIAN_POINT('',(11.35,32.6697640478404,2.4));
#1350=CARTESIAN_POINT('',(11.35,32.6697640478404,5.));
#1351=CARTESIAN_POINT('',(14.225,31.0098820239202,2.4));
#1352=CARTESIAN_POINT('Origin',(8.475,31.0098820239202,5.));
#1353=CARTESIAN_POINT('',(8.475,31.0098820239202,5.));
#1354=CARTESIAN_POINT('',(6.16686706131736,29.6772808504463,5.));
#1355=CARTESIAN_POINT('',(8.475,31.0098820239202,2.4));
#1356=CARTESIAN_POINT('',(8.475,31.0098820239202,5.));
#1357=CARTESIAN_POINT('',(11.35,32.6697640478404,2.4));
#1358=CARTESIAN_POINT('Origin',(8.475,27.6901179760798,5.));
#1359=CARTESIAN_POINT('',(8.475,27.8950589880399,5.));
#1360=CARTESIAN_POINT('',(8.475,31.0098820239202,2.4));
#1361=CARTESIAN_POINT('Origin',(11.35,29.35,2.4));
#1362=CARTESIAN_POINT('Origin',(4.,25.6,5.));
#1363=CARTESIAN_POINT('',(4.,25.6,5.));
#1364=CARTESIAN_POINT('Origin',(4.,0.,0.));
#1365=CARTESIAN_POINT('',(4.,28.1,5.));
#1366=CARTESIAN_POINT('',(4.,33.1,5.));
#1367=CARTESIAN_POINT('',(4.,16.55,5.));
#1368=CARTESIAN_POINT('',(4.,33.1,22.5));
#1369=CARTESIAN_POINT('',(4.,33.1,0.));
#1370=CARTESIAN_POINT('',(4.,0.,22.5));
#1371=CARTESIAN_POINT('',(4.,0.,22.5));
#1372=CARTESIAN_POINT('',(4.,0.,5.00000007450581));
#1373=CARTESIAN_POINT('',(4.,0.,0.));
#1374=CARTESIAN_POINT('',(4.,5.,5.));
#1375=CARTESIAN_POINT('',(4.,3.75,5.00000007450581));
#1376=CARTESIAN_POINT('',(4.,5.,17.5));
#1377=CARTESIAN_POINT('',(4.,5.,2.5));
#1378=CARTESIAN_POINT('',(4.,28.1,17.5));
#1379=CARTESIAN_POINT('',(4.,2.5,17.5));
#1380=CARTESIAN_POINT('',(4.,28.1,8.75));
#1381=CARTESIAN_POINT('',(4.,1.4,11.25));
#1382=CARTESIAN_POINT('Origin',(4.,2.5,11.25));
#1383=CARTESIAN_POINT('',(4.,29.5,11.25));
#1384=CARTESIAN_POINT('Origin',(4.,30.6,11.25));
#1385=CARTESIAN_POINT('Origin',(4.,7.5,0.));
#1386=CARTESIAN_POINT('',(4.,7.5,5.00000007450581));
#1387=CARTESIAN_POINT('Origin',(4.,5.,17.5));
#1388=CARTESIAN_POINT('',(4.,5.,17.5));
#1389=CARTESIAN_POINT('',(4.,28.1,17.5));
#1390=CARTESIAN_POINT('Origin',(4.,5.,5.));
#1391=CARTESIAN_POINT('',(4.,5.,5.));
#1392=CARTESIAN_POINT('Origin',(4.,28.1,5.));
#1393=CARTESIAN_POINT('',(4.,28.1,5.));
#1394=CARTESIAN_POINT('',(4.,0.,5.00000007450581));
#1395=CARTESIAN_POINT('',(4.,33.1,5.));
#1396=CARTESIAN_POINT('Origin',(4.,28.1,17.5));
#1397=CARTESIAN_POINT('Origin',(4.,2.5,11.25));
#1398=CARTESIAN_POINT('',(4.,1.4,11.25));
#1399=CARTESIAN_POINT('Origin',(4.,30.6,11.25));
#1400=CARTESIAN_POINT('',(4.,29.5,11.25));
#1401=CARTESIAN_POINT('Origin',(4.,33.1,0.));
#1402=CARTESIAN_POINT('',(4.,33.1,22.5));
#1403=CARTESIAN_POINT('Origin',(0.,0.,0.));
#1404=CARTESIAN_POINT('',(0.,0.,22.5));
#1405=CARTESIAN_POINT('Origin',(2.,16.55,22.5));
#1406=UNCERTAINTY_MEASURE_WITH_UNIT(LENGTH_MEASURE(0.01),#1410,
'DISTANCE_ACCURACY_VALUE',
'Maximum model space distance between geometric entities at asserted c
onnectivities');
#1407=UNCERTAINTY_MEASURE_WITH_UNIT(LENGTH_MEASURE(0.01),#1410,
'DISTANCE_ACCURACY_VALUE',
'Maximum model space distance between geometric entities at asserted c
onnectivities');
#1408=(
GEOMETRIC_REPRESENTATION_CONTEXT(3)
GLOBAL_UNCERTAINTY_ASSIGNED_CONTEXT((#1406))
GLOBAL_UNIT_ASSIGNED_CONTEXT((#1410,#1412,#1413))
REPRESENTATION_CONTEXT('','3D')
);
#1409=(
GEOMETRIC_REPRESENTATION_CONTEXT(3)
GLOBAL_UNCERTAINTY_ASSIGNED_CONTEXT((#1407))
GLOBAL_UNIT_ASSIGNED_CONTEXT((#1410,#1412,#1413))
REPRESENTATION_CONTEXT('','3D')
);
#1410=(
LENGTH_UNIT()
NAMED_UNIT(*)
SI_UNIT(.MILLI.,.METRE.)
);
#1411=(
LENGTH_UNIT()
NAMED_UNIT(*)
SI_UNIT($,.METRE.)
);
#1412=(
NAMED_UNIT(*)
PLANE_ANGLE_UNIT()
SI_UNIT($,.RADIAN.)
);
#1413=(
NAMED_UNIT(*)
SI_UNIT($,.STERADIAN.)
SOLID_ANGLE_UNIT()
);
#1414=SHAPE_DEFINITION_REPRESENTATION(#1415,#1416);
#1415=PRODUCT_DEFINITION_SHAPE('',$,#1418);
#1416=SHAPE_REPRESENTATION('',(#894),#1408);
#1417=PRODUCT_DEFINITION_CONTEXT('part definition',#1422,'design');
#1418=PRODUCT_DEFINITION('2026-07-31-15-58-50-038','servo bracket',#1419,
#1417);
#1419=PRODUCT_DEFINITION_FORMATION('',$,#1424);
#1420=PRODUCT_RELATED_PRODUCT_CATEGORY('servo bracket','servo bracket',
(#1424));
#1421=APPLICATION_PROTOCOL_DEFINITION('international standard',
'automotive_design',2009,#1422);
#1422=APPLICATION_CONTEXT(
'Core Data for Automotive Mechanical Design Process');
#1423=PRODUCT_CONTEXT('part definition',#1422,'mechanical');
#1424=PRODUCT('2026-07-31-15-58-50-038','servo bracket',$,(#1423));
#1425=PRESENTATION_STYLE_ASSIGNMENT((#1426));
#1426=SURFACE_STYLE_USAGE(.BOTH.,#1427);
#1427=SURFACE_SIDE_STYLE('',(#1428));
#1428=SURFACE_STYLE_FILL_AREA(#1429);
#1429=FILL_AREA_STYLE('Steel - Satin',(#1430));
#1430=FILL_AREA_STYLE_COLOUR('Steel - Satin',#1431);
#1431=COLOUR_RGB('Steel - Satin',0.627450980392157,0.627450980392157,0.627450980392157);
ENDSEC;
END-ISO-10303-21;
